<?xml version="1.0" encoding="UTF-8" standalone="no"?>
<!-- Created with Inkscape (http://www.inkscape.org/) -->

<svg
   width="100"
   height="100"
   viewBox="0 0 26.458333 26.458334"
   version="1.1"
   id="svg5"
   inkscape:version="1.1.1 (3bf5ae0d25, 2021-09-20)"
   sodipodi:docname="iconu_marmour.svg"
   inkscape:export-filename="/media/stela/My Passport/unvanquished assets/icons/iconu_marmour.png"
   inkscape:export-xdpi="96"
   inkscape:export-ydpi="96"
   xmlns:inkscape="http://www.inkscape.org/namespaces/inkscape"
   xmlns:sodipodi="http://sodipodi.sourceforge.net/DTD/sodipodi-0.dtd"
   xmlns="http://www.w3.org/2000/svg"
   xmlns:svg="http://www.w3.org/2000/svg">
  <sodipodi:namedview
     id="namedview7"
     pagecolor="#505050"
     bordercolor="#eeeeee"
     borderopacity="1"
     inkscape:pageshadow="0"
     inkscape:pageopacity="0"
     inkscape:pagecheckerboard="0"
     inkscape:document-units="px"
     showgrid="false"
     units="px"
     height="1122.5196px"
     inkscape:zoom="5.6568543"
     inkscape:cx="78.665629"
     inkscape:cy="29.786873"
     inkscape:window-width="1920"
     inkscape:window-height="1022"
     inkscape:window-x="0"
     inkscape:window-y="33"
     inkscape:window-maximized="1"
     inkscape:current-layer="layer1"
     showguides="true">
    <inkscape:grid
       type="xygrid"
       id="grid836" />
  </sodipodi:namedview>
  <defs
     id="defs2">
    <inkscape:path-effect
       effect="mirror_symmetry"
       start_point="13.229167,2.6458333"
       end_point="13.229167,3.175"
       center_point="13.229167,2.9104167"
       id="path-effect2159"
       is_visible="true"
       lpeversion="1.1"
       mode="free"
       discard_orig_path="false"
       fuse_paths="false"
       oposite_fuse="false"
       split_items="true"
       split_open="false" />
    <inkscape:path-effect
       effect="mirror_symmetry"
       start_point="13.229167,8.4666667"
       end_point="13.229167,10.847917"
       center_point="13.229167,9.6572919"
       id="path-effect901"
       is_visible="true"
       lpeversion="1.1"
       mode="free"
       discard_orig_path="false"
       fuse_paths="false"
       oposite_fuse="false"
       split_items="true"
       split_open="false" />
    <inkscape:path-effect
       effect="mirror_symmetry"
       start_point="13.229167,1.6342052"
       end_point="13.229167,2.1060229"
       center_point="13.229167,1.870114"
       id="path-effect42275"
       is_visible="true"
       lpeversion="1.1"
       mode="free"
       discard_orig_path="false"
       fuse_paths="false"
       oposite_fuse="false"
       split_items="true"
       split_open="false" />
    <inkscape:path-effect
       effect="mirror_symmetry"
       start_point="13.229167,1.0476895"
       end_point="13.229167,4.7625"
       center_point="13.229167,2.9050947"
       id="path-effect39543"
       is_visible="true"
       lpeversion="1.1"
       mode="free"
       discard_orig_path="false"
       fuse_paths="false"
       oposite_fuse="false"
       split_items="true"
       split_open="false" />
    <inkscape:path-effect
       effect="mirror_symmetry"
       start_point="11.91781,5.1798566"
       end_point="11.91781,5.9031125"
       center_point="11.91781,5.5414846"
       id="path-effect32711"
       is_visible="true"
       lpeversion="1.1"
       mode="free"
       discard_orig_path="false"
       fuse_paths="false"
       oposite_fuse="false"
       split_items="true"
       split_open="false" />
    <inkscape:path-effect
       effect="mirror_symmetry"
       start_point="13.229208,1.0476895"
       end_point="13.229208,12.964583"
       center_point="13.229208,7.0061362"
       id="path-effect26730"
       is_visible="true"
       lpeversion="1.1"
       mode="free"
       discard_orig_path="false"
       fuse_paths="false"
       oposite_fuse="false"
       split_items="false"
       split_open="false" />
    <inkscape:path-effect
       effect="mirror_symmetry"
       start_point="13.229167,1.0583333"
       end_point="13.229167,25.42118"
       center_point="13.229167,13.239757"
       id="path-effect7396"
       is_visible="true"
       lpeversion="1.1"
       mode="free"
       discard_orig_path="false"
       fuse_paths="false"
       oposite_fuse="false"
       split_items="true"
       split_open="false" />
    <inkscape:path-effect
       effect="mirror_symmetry"
       start_point="10.583333,0.52694874"
       end_point="10.583333,26.00396"
       center_point="10.583333,13.265455"
       id="path-effect2647"
       is_visible="true"
       lpeversion="1.1"
       mode="free"
       discard_orig_path="false"
       fuse_paths="false"
       oposite_fuse="false"
       split_items="true"
       split_open="false" />
    <inkscape:path-effect
       effect="mirror_symmetry"
       start_point="10.591468,0.62624476"
       end_point="10.513751,4.6593088"
       center_point="10.552609,2.6427768"
       id="path-effect1400"
       is_visible="true"
       lpeversion="1.1"
       mode="free"
       discard_orig_path="false"
       fuse_paths="false"
       oposite_fuse="false"
       split_items="false"
       split_open="false" />
    <inkscape:path-effect
       effect="mirror_symmetry"
       start_point="22.489583,1.3229166"
       end_point="22.489583,6.6145833"
       center_point="22.489583,3.9687499"
       id="path-effect5216"
       is_visible="true"
       lpeversion="1.1"
       mode="free"
       discard_orig_path="false"
       fuse_paths="false"
       oposite_fuse="false"
       split_items="true"
       split_open="false" />
    <inkscape:path-effect
       effect="mirror_symmetry"
       start_point="13.229167,18.25625"
       end_point="13.229167,23.8125"
       center_point="13.229167,21.034375"
       id="path-effect2322"
       is_visible="true"
       lpeversion="1.1"
       mode="free"
       discard_orig_path="false"
       fuse_paths="false"
       oposite_fuse="false"
       split_items="true"
       split_open="false" />
  </defs>
  <g
     inkscape:label="Calque 1"
     inkscape:groupmode="layer"
     id="layer1">
    <path
       id="path7408-6"
       d="m 14.320614,3.7679369 c 0,0 0.04134,0.4134114 0.124023,0.578776 0.08268,0.1653646 0.28112,0.4464844 0.338998,0.4216797 0.05788,-0.024805 0.272851,0 0.438216,0.1322917 0.165364,0.1322916 0.138492,0.1653645 0.279052,0.1963705 0.14056,0.031006 0.901455,0.1073981 1.263939,0.7388223 0.362485,0.6314241 0.369037,0.5985637 0.348366,0.6461061 -0.02067,0.047542 -0.08682,0.093017 -0.08062,0.1240234 0.0062,0.031006 0.194303,0.3183269 0.194303,0.3948078 0,0.076481 -0.03307,0.099219 -0.08682,0.090951 -0.05374,-0.00827 0.239779,0.5953125 0.322461,0.8847005 0.08268,0.289388 0.454753,1.1162109 0.578776,1.3146484 0.124024,0.1984375 0.396875,0.6366536 0.471289,0.9012367 0.07441,0.264583 0.19017,0.562239 0.256316,0.661458 0.06615,0.09922 0.05374,0.107487 0.09922,0.111621 0.04547,0.0041 0.132291,-0.0083 0.194303,0.07855 0.06201,0.08682 0.177767,0.479558 0.198437,0.615983 0.02067,0.136426 -0.0083,0.310059 -0.07441,0.343132 -0.06615,0.03307 0.305925,0.603581 0.384473,0.748275 0.07855,0.144694 0.264583,0.39274 0.276986,0.479557 0.0124,0.08682 0.03307,0.756543 0.03721,0.930176 0.0041,0.173632 -0.0248,0.289388 -0.05788,0.310058 -0.03307,0.02067 -0.04961,0.157097 -0.107487,0.173633 -0.05788,0.01654 -0.132292,0.02894 -0.165365,0.0083 -0.03307,-0.02067 -0.01654,-0.177767 -0.0083,-0.23151 0.0083,-0.05374 -0.01654,-0.07441 -0.02894,-0.04961 -0.0124,0.02481 -0.02481,0.09095 -0.119889,0.103353 -0.09508,0.0124 -0.09922,-0.0083 -0.09922,-0.04961 0,-0.04134 0.14056,-0.520898 0.148828,-0.574642 0.0083,-0.05374 -0.177767,-0.483691 -0.347266,-0.587044 -0.169498,-0.103353 -0.190169,-0.107487 -0.198437,-0.08682 -0.0083,0.02067 0.0083,0.115756 -0.06201,0.144694 -0.07028,0.02894 -0.181901,0.05374 -0.223242,0.02481 -0.04134,-0.02894 -0.198438,-0.661458 -0.21084,-0.748275 -0.0124,-0.08682 0,-0.21084 -0.06615,-0.223242 -0.06615,-0.0124 -0.144694,-0.04134 -0.181901,-0.07028 -0.03721,-0.02894 0.0083,-0.05374 -0.02894,-0.09095 -0.03721,-0.03721 -0.359668,-0.318327 -0.376205,-0.417546 -0.01654,-0.09922 0.04548,-0.157096 0.03307,-0.190169 -0.0124,-0.03307 -0.711067,-0.77308 -0.789615,-0.901237 -0.07855,-0.128158 -1.277442,-2.6499669 -1.277442,-2.7491857 0,-0.099219 0.03721,-0.1777669 0.0083,-0.1777669 -0.02894,0 -0.05374,0.1612304 -0.05788,0.289388 -0.0041,0.1281575 -0.05374,0.2356445 -0.02067,0.2976562 0.03307,0.062012 0.08682,0.1694987 0.08268,0.2935222 -0.0041,0.1240234 -0.297656,0.8598958 -0.305924,0.9301757 -0.0083,0.07028 -0.05374,0.5663735 -0.06201,0.6862625 -0.0083,0.119889 -0.02067,0.338997 0.03307,0.496094 0.05374,0.157096 0.04805,0.177532 0.09482,0.230151 0.04677,0.05262 0.124238,0.0058 0.137393,0.159318 0.01315,0.153471 0.02631,0.442874 0.0058,0.463336 -0.02046,0.02046 -0.242631,0.0029 -0.26894,0.038 -0.02631,0.03508 -0.04677,0.07893 -0.01169,0.07893 0.03508,0 0.175396,-0.02046 0.207552,0.01754 0.03216,0.038 0.195858,0.648964 0.225091,0.917904 0.02923,0.26894 0.204628,1.175151 0.23386,1.414858 0.02923,0.239707 0.178091,2.277554 0.161555,2.442918 -0.01654,0.165365 -0.04134,0.471289 -0.107487,0.471289 -0.06615,0 -0.07752,0.05891 -0.08165,0.08062 -0.0041,0.0217 0.03617,0.01344 0.03927,0.03824 0.0031,0.02481 0.0088,1.860475 0.02046,1.872168 0.01169,0.01169 0.08185,0.0058 0.08185,0.03508 0,0.02923 -0.01446,0.706547 0.0021,0.805766 0.01654,0.09922 0.05374,0.508496 0.07028,0.665592 0.01654,0.157096 -0.01654,0.595313 -0.09509,0.768945 -0.07855,0.173633 -0.09922,0.227377 -0.09508,0.276986 0.0041,0.04961 -0.227377,1.562695 -0.256315,1.595768 -0.02894,0.03307 -0.0248,0.04547 -0.02894,0.07028 -0.0041,0.02481 -0.02894,0.310059 -0.01654,0.318327 0.0041,0.02906 0.19017,0.520898 0.227377,0.603581 0.03721,0.08268 0.198437,0.128157 0.293522,0.202571 0.09508,0.07441 0.293522,0.384473 0.318326,0.479558 0.02481,0.09508 0.02894,0.46302 0.0041,0.479557 -0.02481,0.01654 -1.372526,0.119889 -1.542025,0.111621 -0.169498,-0.0083 -0.690397,-0.111621 -0.682129,-0.148828 0.0083,-0.03721 0.02895,-0.05374 0.04548,-0.08682 0.01654,-0.03307 -0.01654,-0.607715 0.02067,-0.649056 0.03721,-0.04134 0.05374,-0.58291 0.08268,-0.640788 0.02894,-0.05788 0.157097,-0.177767 0.161231,-0.186035 0.0041,-0.0083 0.0248,-0.14056 -0.0041,-0.202572 -0.02894,-0.06201 -0.136426,-0.219108 -0.14056,-0.396875 -0.0041,-0.177767 0.05374,-0.28112 -0.02067,-0.434082 -0.07441,-0.152962 -0.351399,-1.029394 -0.405143,-1.322916 -0.05374,-0.293523 -0.107487,-1.256771 -0.148828,-1.343588 -0.04134,-0.08682 -0.05593,-0.806357 -0.04548,-0.835091 0.01043,-0.02865 -0.01579,-0.03701 0.02481,-0.06201 0.02362,-0.01454 -0.0124,-1.355989 0.01654,-1.44694 0.02894,-0.09095 -0.07441,-0.322461 -0.05788,-0.363802 0.01654,-0.04134 0.09509,-0.119889 0.0041,-0.219108 -0.09095,-0.09922 -0.388607,-1.364258 -0.413411,-1.451074 -0.0248,-0.08682 -0.101905,-0.905079 -0.09095,-1.050065 0.01096,-0.144986 0.132292,-0.293522 -0.132299,-0.293522 -0.264591,0 -0.143259,0.148536 -0.132299,0.293522 0.01096,0.144986 -0.06615,0.963245 -0.09095,1.050065 -0.0248,0.08682 -0.322461,1.351854 -0.413411,1.451074 -0.09099,0.09922 -0.01244,0.177768 0.0041,0.219108 0.01653,0.04134 -0.08682,0.272852 -0.05788,0.363802 0.02894,0.09095 -0.0071,1.4324 0.01654,1.44694 0.0406,0.025 0.01438,0.03336 0.02481,0.06201 0.01045,0.02873 -0.0041,0.748271 -0.04548,0.835091 -0.04134,0.08682 -0.09509,1.050065 -0.148828,1.343588 -0.05374,0.293522 -0.330733,1.169954 -0.405143,1.322916 -0.07441,0.152962 -0.01657,0.256315 -0.02067,0.434082 -0.0041,0.177767 -0.11162,0.334865 -0.14056,0.396875 -0.0289,0.06201 -0.0082,0.194272 -0.0041,0.202572 0.0041,0.0083 0.132291,0.128155 0.161231,0.186035 0.02894,0.05788 0.04547,0.599448 0.08268,0.640788 0.03721,0.04134 0.0041,0.615986 0.02067,0.649056 0.01653,0.03308 0.03718,0.04961 0.04548,0.08682 0.0083,0.03721 -0.512631,0.140528 -0.682129,0.148828 -0.169499,0.0083 -1.51722,-0.09508 -1.542025,-0.111621 -0.0248,-0.01654 -0.02067,-0.384477 0.0041,-0.479557 0.0248,-0.09509 0.223246,-0.405148 0.318326,-0.479558 0.09509,-0.07441 0.256312,-0.119891 0.293522,-0.202571 0.03721,-0.08268 0.223277,-0.574521 0.227377,-0.603581 0.0124,-0.0083 -0.01244,-0.293517 -0.01654,-0.318327 -0.0041,-0.02481 0,-0.03721 -0.02894,-0.07028 -0.02894,-0.03307 -0.260415,-1.546158 -0.256315,-1.595768 0.0041,-0.04961 -0.01653,-0.103353 -0.09508,-0.276986 -0.07855,-0.173632 -0.11163,-0.611849 -0.09509,-0.768945 0.01654,-0.157096 0.05374,-0.566372 0.07028,-0.665592 0.01656,-0.09922 0.0021,-0.776536 0.0021,-0.805766 0,-0.02928 0.07016,-0.02339 0.08185,-0.03508 0.01166,-0.01169 0.01736,-1.847358 0.02046,-1.872168 0.0031,-0.0248 0.04337,-0.01654 0.03927,-0.03824 -0.0041,-0.02171 -0.0155,-0.08062 -0.08165,-0.08062 -0.06615,0 -0.09095,-0.305924 -0.107487,-0.471289 -0.01654,-0.165364 0.132325,-2.203211 0.161555,-2.442918 0.02923,-0.239707 0.20463,-1.145918 0.23386,-1.414858 0.02923,-0.26894 0.192931,-0.879904 0.225091,-0.917904 0.03216,-0.038 0.172472,-0.01754 0.207552,-0.01754 0.03508,0 0.01462,-0.04385 -0.01169,-0.07893 -0.02631,-0.0351 -0.24848,-0.01754 -0.26894,-0.038 -0.02051,-0.02046 -0.0073,-0.309865 0.0058,-0.463336 0.01315,-0.153518 0.09062,-0.106698 0.137393,-0.159318 0.04677,-0.05262 0.04108,-0.07306 0.09482,-0.230151 0.05374,-0.157097 0.04137,-0.376205 0.03307,-0.496094 -0.0083,-0.119889 -0.05371,-0.6159825 -0.06201,-0.6862625 -0.0083,-0.07028 -0.301824,-0.8061523 -0.305924,-0.9301757 -0.0041,-0.1240235 0.04961,-0.2315102 0.08268,-0.2935222 0.03307,-0.062012 -0.01657,-0.1694987 -0.02067,-0.2976562 -0.0041,-0.1281576 -0.02894,-0.289388 -0.05788,-0.289388 -0.02891,0 0.0083,0.078548 0.0083,0.1777669 0,0.099219 -1.198894,2.6210277 -1.277442,2.7491857 -0.07855,0.128157 -0.777214,0.868167 -0.789616,0.901237 -0.0124,0.03307 0.04961,0.09095 0.03307,0.190169 -0.01654,0.09922 -0.338998,0.380336 -0.376205,0.417546 -0.03721,0.03721 0.0083,0.06201 -0.02894,0.09095 -0.03721,0.02894 -0.115755,0.05788 -0.181901,0.07028 -0.06615,0.0124 -0.05374,0.136422 -0.06615,0.223242 -0.0124,0.08682 -0.169499,0.719335 -0.21084,0.748275 -0.04134,0.02893 -0.152962,0.0041 -0.223242,-0.02481 -0.07028,-0.02894 -0.05374,-0.124024 -0.06201,-0.144694 -0.0083,-0.02067 -0.02894,-0.01653 -0.198437,0.08682 -0.169499,0.103353 -0.355536,0.533304 -0.347266,0.587044 0.0083,0.05374 0.148828,0.533302 0.148828,0.574642 0,0.04131 -0.0041,0.06201 -0.09922,0.04961 -0.09508,-0.0124 -0.107488,-0.07854 -0.119889,-0.103353 -0.0124,-0.0248 -0.03721,-0.0041 -0.02894,0.04961 0.0083,0.05374 0.0248,0.21084 -0.0083,0.23151 -0.03307,0.02064 -0.107487,0.0082 -0.165365,-0.0083 -0.05788,-0.01654 -0.07441,-0.152963 -0.107487,-0.173633 -0.03307,-0.02067 -0.06202,-0.136426 -0.05788,-0.310058 0.0041,-0.173633 0.02481,-0.843356 0.03721,-0.930176 0.0124,-0.08682 0.198438,-0.334863 0.276986,-0.479557 C 6.965947,12.606676 7.338016,12.036165 7.27187,12.003095 7.20573,11.970025 7.17678,11.796389 7.19746,11.659963 7.21813,11.523538 7.333885,11.1308 7.395897,11.04398 7.457907,10.95713 7.544725,10.96953 7.5902,10.96543 7.63567,10.96133 7.62327,10.95303 7.68942,10.853809 7.75557,10.754589 7.871322,10.456934 7.945736,10.192351 8.020223,9.9277679 8.293074,9.4895518 8.417098,9.2911143 8.541121,9.0926768 8.913192,8.2658539 8.995874,7.9764659 9.078556,7.6870779 9.372078,7.0834954 9.318335,7.0917654 c -0.05374,0.00827 -0.08682,-0.01447 -0.08682,-0.090951 0,-0.076481 0.188103,-0.3638018 0.194303,-0.3948078 0.0062,-0.031006 -0.05994,-0.076481 -0.08062,-0.1240234 -0.02067,-0.047542 -0.01412,-0.014682 0.348366,-0.6461061 0.362492,-0.6314242 1.123387,-0.7078163 1.263947,-0.7388223 0.14056,-0.031006 0.113688,-0.064079 0.279052,-0.1963705 0.165365,-0.1322917 0.380336,-0.1570967 0.438216,-0.1322917 0.05788,0.024805 0.256318,-0.2563151 0.338998,-0.4216797 0.08268,-0.1653646 0.124023,-0.578776 0.124023,-0.578776"
       style="fill:#ffffff;stroke:#000000;stroke-width:0.21166667;stroke-linecap:butt;stroke-linejoin:miter;stroke-miterlimit:4;stroke-dasharray:none;stroke-opacity:1;fill-opacity:1"
       sodipodi:nodetypes="csssssssssssssccsssscsscscsssssscssssssssscscccsssccsssssscscscsscsccsssscccsscccssscsscccczzcccsssssscccsscccssssccscsscscscssssssccssscccscssssssssscssssssccccscsscsccsssssssssssscc" />
    <path
       id="mirror-path-effect39543-2"
       d="M 14.186872,4.0164538 C 14.520086,3.5225722 14.520831,2.965549 14.529897,2.6444895 14.538997,2.32343 14.519007,2.1556322 14.270924,1.643002 14.022877,1.1303715 13.629091,1.0476895 13.229167,1.0476895 c -0.399924,0 -0.79371,0.082682 -1.041757,0.5953125 -0.248079,0.5126302 -0.268039,0.680428 -0.258973,1.0014875 0.0091,0.3210595 0.0098,0.8780827 0.343025,1.3719643 0.333215,0.4938817 0.510726,0.7460462 0.957705,0.7460462 0.446979,0 0.62449,-0.2521645 0.957705,-0.7460462 z"
       style="fill:#ffffff;fill-opacity:1;stroke:#000000;stroke-width:0.21166667;stroke-linecap:butt;stroke-linejoin:miter;stroke-miterlimit:4;stroke-dasharray:none;stroke-opacity:1"
       sodipodi:nodetypes="scczszzzs" />
    <path
       style="fill:none;stroke:#000000;stroke-width:0.21166667;stroke-linecap:butt;stroke-linejoin:miter;stroke-miterlimit:4;stroke-dasharray:none;stroke-opacity:1"
       d="m 9.3310876,7.1045721 c 0,0 0.2338607,-0.052619 0.5203405,-0.2981727 C 10.137907,6.5608457 10.646554,6.11651 10.646554,6.0112728 c 0,-0.1052375 -0.0029,-0.830206 -0.0029,-0.830206"
       id="path2813"
       sodipodi:nodetypes="cssc" />
    <path
       style="fill:none;stroke:#000000;stroke-width:0.21166667;stroke-linecap:butt;stroke-linejoin:miter;stroke-miterlimit:4;stroke-dasharray:none;stroke-opacity:1"
       d="m 10.585916,6.0717635 c 0,0 0.208297,0.2014468 0.295113,0.209715 0.08682,0.00827 0.124024,0.4051432 0.08268,0.901237 -0.04134,0.4960937 -0.166575,0.5769271 -0.252768,0.6294598"
       id="path3095"
       sodipodi:nodetypes="cscc" />
    <path
       style="fill:none;stroke:#000000;stroke-width:0.21166667;stroke-linecap:butt;stroke-linejoin:miter;stroke-miterlimit:4;stroke-dasharray:none;stroke-opacity:1"
       d="m 8.325486,9.4665665 c 0,0 0.7191222,0.3449447 0.7658942,0.4443357 0.046772,0.099391 -0.7015824,1.2336158 -0.7132754,1.3096208 -0.011695,0.076 0.2297875,0.28955 0.295163,0.372171"
       id="path3469"
       sodipodi:nodetypes="cssc" />
    <path
       style="fill:none;stroke:#000000;stroke-width:0.21166667;stroke-linecap:butt;stroke-linejoin:miter;stroke-miterlimit:4;stroke-dasharray:none;stroke-opacity:1"
       d="m 7.2088005,11.685321 c 0,0 0.1841653,-0.02923 0.371254,0.0877 0.1870887,0.11693 0.5934219,0.374177 0.7191222,0.456029"
       id="path3843"
       sodipodi:nodetypes="csc" />
    <path
       style="fill:none;stroke:#000000;stroke-width:0.21166667;stroke-linecap:butt;stroke-linejoin:miter;stroke-miterlimit:4;stroke-dasharray:none;stroke-opacity:1"
       d="m 6.6538978,14.52697 c 0,0 0.1212951,-0.01142 0.134731,-0.02175 0.013436,-0.01032 0.1463884,-0.112606 0.1463884,-0.112606"
       id="path4179"
       sodipodi:nodetypes="czc" />
    <path
       style="fill:none;stroke:#000000;stroke-width:0.21166667;stroke-linecap:butt;stroke-linejoin:miter;stroke-miterlimit:4;stroke-dasharray:none;stroke-opacity:1"
       d="m 6.935017,14.39261 c 0,0 -0.1012854,-0.227375 -0.080615,-0.3576 0.020672,-0.130224 0.14056,-0.219108 0.1612306,-0.235645"
       id="path4537"
       sodipodi:nodetypes="csc" />
    <path
       style="fill:none;stroke:#000000;stroke-width:0.21166667;stroke-linecap:butt;stroke-linejoin:miter;stroke-miterlimit:4;stroke-dasharray:none;stroke-opacity:1"
       d="m 10.531881,24.14542 c 0,0 0.489087,-0.04079 0.669215,0.0726 0.180127,0.113392 0.387501,0.3112 0.426399,0.414581 0.0389,0.10338 -0.01089,0.297458 0.0294,0.319908 0.04029,0.02245 0.267613,-0.05327 0.289526,-0.105386 0.02191,-0.05212 0.130763,-0.110718 0.112993,-0.309588"
       id="path870"
       sodipodi:nodetypes="cssssc" />
    <path
       style="fill:none;stroke:#000000;stroke-width:0.21166667;stroke-linecap:butt;stroke-linejoin:miter;stroke-miterlimit:4;stroke-dasharray:none;stroke-opacity:1"
       d="m 10.747884,23.239601 c 0,0 0.166853,-0.160162 0.24926,-0.162096 0.08241,-0.0019 0.214986,-0.04384 0.316887,0.03996 0.101902,0.0838 0.180021,0.195108 0.224324,0.195272 0.0443,1.63e-4 0.189446,-0.110829 0.272795,-0.128384 0.08335,-0.01756 0.131424,-0.03331 0.131424,-0.03331"
       id="path1564"
       sodipodi:nodetypes="ccsssc" />
    <path
       style="fill:none;stroke:#000000;stroke-width:0.21166667;stroke-linecap:butt;stroke-linejoin:miter;stroke-miterlimit:4;stroke-dasharray:none;stroke-opacity:1"
       d="m 10.336251,19.415283 c 0,0 0.522634,0.367981 0.752283,0.373623 0.22965,0.0056 0.832338,-0.04313 0.912673,-0.100763 0.08033,-0.05763 0.466498,-0.513894 0.530494,-0.535511"
       id="path3074"
       sodipodi:nodetypes="ccsc" />
    <path
       style="fill:none;stroke:#000000;stroke-width:0.21166667;stroke-linecap:butt;stroke-linejoin:miter;stroke-miterlimit:4;stroke-dasharray:none;stroke-opacity:1"
       d="m 10.457207,17.045391 c 0.538465,-0.0962 1.956341,0.04428 2.087155,0.13935"
       id="path4546"
       sodipodi:nodetypes="cc" />
    <path
       style="fill:none;stroke:#000000;stroke-width:0.21166667;stroke-linecap:butt;stroke-linejoin:miter;stroke-miterlimit:4;stroke-dasharray:none;stroke-opacity:1"
       d="m 12.810846,16.333087 c 0,0 -1.634395,0.04269 -1.767957,-0.09155 -0.133563,-0.134247 -0.259247,-1.868766 -0.104985,-1.937642 0.154262,-0.06888 1.880675,0.811782 2.107196,0.927817"
       id="path5322"
       sodipodi:nodetypes="cccc" />
    <path
       style="fill:none;stroke:#000000;stroke-width:0.21166667;stroke-linecap:butt;stroke-linejoin:miter;stroke-miterlimit:4;stroke-dasharray:none;stroke-opacity:1"
       d="m 11.68599,4.7878575 c 0.04818,0.076866 0.147249,0.2810476 0.404944,0.5692727 0.263118,0.2942898 0.753683,0.267851 1.138273,0.267851 0.38459,0 0.875155,0.026439 1.138273,-0.267851 0.257695,-0.2882251 0.356768,-0.4924066 0.404944,-0.5692727"
       id="path5566"
       sodipodi:nodetypes="cszsc" />
    <path
       style="fill:none;stroke:#000000;stroke-width:0.21166667;stroke-linecap:butt;stroke-linejoin:miter;stroke-miterlimit:4;stroke-dasharray:none;stroke-opacity:1"
       d="m 10.992201,10.997915 c 0.06913,0.0063 1.455414,0.04218 1.553264,-8.61e-4 0.09785,-0.04304 0.455644,-0.02749 0.683742,-0.02749 0.228098,0 0.585893,-0.01555 0.683742,0.02749 0.09785,0.04304 1.484135,0.0072 1.553264,8.61e-4"
       id="path6033"
       sodipodi:nodetypes="cszsc" />
    <path
       style="fill:none;stroke:#000000;stroke-width:0.21166667;stroke-linecap:butt;stroke-linejoin:miter;stroke-miterlimit:4;stroke-dasharray:none;stroke-opacity:1"
       d="m 13.092789,14.273418 c 0,0 -0.122771,-0.253782 -0.204069,-0.388618 -0.0813,-0.134836 -0.241624,-0.413695 -0.354582,-0.739185 -0.112958,-0.32549 -0.240394,-1.065489 -0.240394,-1.176037 0,-0.110548 0.0042,-0.270173 0.0042,-0.270173"
       id="path6993" />
    <path
       style="fill:none;stroke:#000000;stroke-width:0.211667;stroke-linecap:butt;stroke-linejoin:miter;stroke-miterlimit:4;stroke-dasharray:none;stroke-opacity:1"
       d="m 11.108371,11.695783 c 0.124456,-8.5e-4 1.413848,0.01002 2.120796,0.01203 0.706948,0.002 1.99642,-8.5e-4 2.120876,0"
       id="path6995"
       sodipodi:nodetypes="czc" />
    <path
       id="path7410-2"
       d="m 17.127327,7.1045721 c 0,0 -0.233861,-0.052619 -0.520341,-0.2981727 C 16.320507,6.5608457 15.81186,6.11651 15.81186,6.0112728 c 0,-0.1052375 0.0029,-0.830206 0.0029,-0.830206"
       style="fill:none;stroke:#000000;stroke-width:0.21166667;stroke-linecap:butt;stroke-linejoin:miter;stroke-miterlimit:4;stroke-dasharray:none;stroke-opacity:1" />
    <path
       id="path7412-9"
       d="m 15.872498,6.0717635 c 0,0 -0.208297,0.2014468 -0.295113,0.209715 -0.08682,0.00827 -0.124024,0.4051432 -0.08268,0.901237 0.04134,0.4960937 0.166575,0.5769271 0.252768,0.6294598"
       style="fill:none;stroke:#000000;stroke-width:0.21166667;stroke-linecap:butt;stroke-linejoin:miter;stroke-miterlimit:4;stroke-dasharray:none;stroke-opacity:1" />
    <path
       id="path7416-2"
       d="m 18.132928,9.4665665 c 0,0 -0.719122,0.3449447 -0.765894,0.4443357 -0.04677,0.099391 0.701582,1.2336158 0.713275,1.3096208 0.0117,0.076 -0.229787,0.28955 -0.295163,0.372171"
       style="fill:none;stroke:#000000;stroke-width:0.21166667;stroke-linecap:butt;stroke-linejoin:miter;stroke-miterlimit:4;stroke-dasharray:none;stroke-opacity:1" />
    <path
       id="path7418-7"
       d="m 19.249614,11.685321 c 0,0 -0.184166,-0.02923 -0.371254,0.0877 -0.187089,0.11693 -0.593422,0.374177 -0.719122,0.456029"
       style="fill:none;stroke:#000000;stroke-width:0.21166667;stroke-linecap:butt;stroke-linejoin:miter;stroke-miterlimit:4;stroke-dasharray:none;stroke-opacity:1" />
    <path
       id="path7422-9"
       d="m 19.804516,14.52697 c 0,0 -0.121295,-0.01142 -0.134731,-0.02175 -0.01344,-0.01032 -0.146388,-0.112606 -0.146388,-0.112606"
       style="fill:none;stroke:#000000;stroke-width:0.21166667;stroke-linecap:butt;stroke-linejoin:miter;stroke-miterlimit:4;stroke-dasharray:none;stroke-opacity:1" />
    <path
       id="path7424-3"
       d="m 19.523397,14.39261 c 0,0 0.101286,-0.227375 0.08062,-0.3576 -0.02067,-0.130224 -0.14056,-0.219108 -0.16123,-0.235645"
       style="fill:none;stroke:#000000;stroke-width:0.21166667;stroke-linecap:butt;stroke-linejoin:miter;stroke-miterlimit:4;stroke-dasharray:none;stroke-opacity:1" />
    <path
       id="path7426-6"
       d="m 15.926533,24.14542 c 0,0 -0.489087,-0.04079 -0.669215,0.0726 -0.180127,0.113392 -0.387501,0.3112 -0.426399,0.414581 -0.0389,0.10338 0.01089,0.297458 -0.0294,0.319908 -0.04029,0.02245 -0.267613,-0.05327 -0.289526,-0.105386 -0.02191,-0.05212 -0.130763,-0.110718 -0.112993,-0.309588"
       style="fill:none;stroke:#000000;stroke-width:0.21166667;stroke-linecap:butt;stroke-linejoin:miter;stroke-miterlimit:4;stroke-dasharray:none;stroke-opacity:1" />
    <path
       id="path7432-2"
       d="m 15.71053,23.239601 c 0,0 -0.166853,-0.160162 -0.24926,-0.162096 -0.08241,-0.0019 -0.214986,-0.04384 -0.316887,0.03996 -0.101902,0.0838 -0.180021,0.195108 -0.224324,0.195272 -0.0443,1.63e-4 -0.189446,-0.110829 -0.272795,-0.128384 -0.08335,-0.01756 -0.131424,-0.03331 -0.131424,-0.03331"
       style="fill:none;stroke:#000000;stroke-width:0.21166667;stroke-linecap:butt;stroke-linejoin:miter;stroke-miterlimit:4;stroke-dasharray:none;stroke-opacity:1" />
    <path
       id="path7440-7"
       d="m 16.122163,19.415283 c 0,0 -0.522634,0.367981 -0.752283,0.373623 -0.22965,0.0056 -0.832338,-0.04313 -0.912673,-0.100763 -0.08033,-0.05763 -0.466498,-0.513894 -0.530494,-0.535511"
       style="fill:none;stroke:#000000;stroke-width:0.21166667;stroke-linecap:butt;stroke-linejoin:miter;stroke-miterlimit:4;stroke-dasharray:none;stroke-opacity:1" />
    <path
       id="path7442-9"
       d="m 16.001207,17.045391 c -0.538465,-0.0962 -1.956341,0.04428 -2.087155,0.13935"
       style="fill:none;stroke:#000000;stroke-width:0.21166667;stroke-linecap:butt;stroke-linejoin:miter;stroke-miterlimit:4;stroke-dasharray:none;stroke-opacity:1" />
    <path
       id="path7444-2"
       d="m 13.647568,16.333087 c 0,0 1.634395,0.04269 1.767957,-0.09155 0.133563,-0.134247 0.259247,-1.868766 0.104985,-1.937642 -0.154262,-0.06888 -1.880675,0.811782 -2.107196,0.927817"
       style="fill:none;stroke:#000000;stroke-width:0.21166667;stroke-linecap:butt;stroke-linejoin:miter;stroke-miterlimit:4;stroke-dasharray:none;stroke-opacity:1" />
    <path
       id="path7454-5"
       d="m 13.365625,14.273418 c 0,0 0.122771,-0.253782 0.204069,-0.388618 0.0813,-0.134836 0.241624,-0.413695 0.354582,-0.739185 0.112958,-0.32549 0.240394,-1.065489 0.240394,-1.176037 0,-0.110548 -0.0042,-0.270173 -0.0042,-0.270173"
       style="fill:none;stroke:#000000;stroke-width:0.21166667;stroke-linecap:butt;stroke-linejoin:miter;stroke-miterlimit:4;stroke-dasharray:none;stroke-opacity:1" />
    <path
       style="fill:none;stroke:#000000;stroke-width:0.211667;stroke-linecap:butt;stroke-linejoin:miter;stroke-miterlimit:4;stroke-dasharray:none;stroke-opacity:1"
       d="m 12.234296,2.4963065 c -0.03721,0.016536 -0.01848,0.3859224 0.227547,0.541846 0.186775,0.1183721 0.518989,0.1055331 0.527257,0.043521 C 12.9974,3.0196615 12.938,2.8784833 12.89144,2.8427481 12.8295,2.7952121 12.271507,2.4797696 12.2343,2.4963061 Z"
       id="path932"
       sodipodi:nodetypes="sscss" />
    <path
       style="fill:none;stroke:#000000;stroke-width:0.21166667;stroke-linecap:butt;stroke-linejoin:miter;stroke-miterlimit:4;stroke-dasharray:none;stroke-opacity:1"
       d="m 11.641667,9.6572917 c 0,-0.1322916 0,-1.190625 1.5875,-1.1906251 1.5875,0 1.5875,1.0583335 1.5875,1.190625 0,0.1322916 0,1.1906254 -1.5875,1.1906254 -1.5875,0 -1.5875,-1.0583337 -1.5875,-1.1906253 z"
       id="path20537"
       sodipodi:nodetypes="zzszz" />
    <path
       id="path26764-6"
       d="m 13.229167,8.4666665 c 0.264584,0 1.086266,-0.013966 1.322917,-0.1322915 0.264583,-0.1322917 0.798563,-1.988041 0.529167,-2.1166667 -0.264584,-0.1263318 -1.23315,-0.1322918 -1.852084,-0.1322918 -0.618934,1e-7 -1.5875,0.00596 -1.852084,0.1322919 -0.269396,0.1286257 0.264584,1.984375 0.529167,2.1166667 0.236651,0.1183253 1.058333,0.1322915 1.322917,0.1322915"
       style="fill:none;stroke:#000000;stroke-width:0.21166667;stroke-linecap:butt;stroke-linejoin:miter;stroke-miterlimit:4;stroke-dasharray:none;stroke-opacity:1"
       sodipodi:nodetypes="csczssc" />
    <path
       id="mirror-path-effect42275-3"
       d="M 14.059558,1.7425342 C 13.926551,1.684272 13.776943,1.636957 13.684913,1.634217 c -0.09203,-0.00274 0.07338,0.4718059 -0.455746,0.4718059 -0.529127,0 -0.363716,-0.4745456 -0.455746,-0.4718059 -0.09203,0.00274 -0.241638,0.050055 -0.374645,0.1083172"
       style="fill:none;stroke:#000000;stroke-width:0.21166667;stroke-linecap:butt;stroke-linejoin:miter;stroke-miterlimit:4;stroke-dasharray:none;stroke-opacity:1"
       sodipodi:nodetypes="cszzc" />
    <path
       id="mirror-path-effect2159-6"
       d="m 14.224169,2.4961932 c 0.03721,0.016536 0.01848,0.3859224 -0.227547,0.541846 -0.186775,0.1183721 -0.518989,0.1055331 -0.527257,0.043521 -0.0083,-0.062012 0.0511,-0.2031902 0.09766,-0.2389254 0.06194,-0.047536 0.619933,-0.3629785 0.65714,-0.346442 z"
       style="fill:none;stroke:#000000;stroke-width:0.211667;stroke-linecap:butt;stroke-linejoin:miter;stroke-miterlimit:4;stroke-dasharray:none;stroke-opacity:1" />
    <path
       id="mirror-path-effect5216-6"
       d="m 25.664583,7.9374999 v -3.96875 h -5.291666 c 0,0 -1e-6,3.175 0,3.96875 0,0.79375 2.116666,2.6458331 2.645833,2.6458331 0.529167,1e-6 2.645833,-1.8520831 2.645833,-2.6458331 z"
       style="fill:#ffffff;fill-opacity:1;stroke:#000000;stroke-width:0.330729;stroke-linecap:butt;stroke-linejoin:miter;stroke-miterlimit:4;stroke-dasharray:none;stroke-opacity:1"
       sodipodi:nodetypes="scczzs"
       inkscape:export-filename="/media/stela/My Passport/unvanquished assets/icons/bsuit2.png"
       inkscape:export-xdpi="480"
       inkscape:export-ydpi="480" />
    <path
       id="mirror-path-effect5216-6-3"
       d="M 24.60625,7.6729165 V 5.2916663 h -3.175 c 0,0 -10e-7,1.9050002 0,2.3812502 0,0.47625 1.27,1.5875 1.5875,1.5875 0.3175,0 1.5875,-1.11125 1.5875,-1.5875 z"
       style="fill:#ffffff;fill-opacity:1;stroke:#000000;stroke-width:0.264583;stroke-linecap:butt;stroke-linejoin:miter;stroke-miterlimit:4;stroke-dasharray:none;stroke-opacity:1"
       sodipodi:nodetypes="scczzs"
       inkscape:export-filename="/media/stela/My Passport/unvanquished assets/icons/bsuit2.png"
       inkscape:export-xdpi="480"
       inkscape:export-ydpi="480" />
  </g>
</svg>
