<?xml version="1.0" encoding="UTF-8" standalone="no"?>
<!-- Created with Inkscape (http://www.inkscape.org/) -->

<svg
   width="100"
   height="100"
   viewBox="0 0 26.458333 26.458334"
   version="1.1"
   id="svg5"
   inkscape:version="1.1.1 (3bf5ae0d25, 2021-09-20)"
   sodipodi:docname="iconu_bsuit.svg"
   inkscape:export-filename="/media/stela/My Passport/unvanquished assets/icons/iconu_bsuit.png"
   inkscape:export-xdpi="96"
   inkscape:export-ydpi="96"
   xmlns:inkscape="http://www.inkscape.org/namespaces/inkscape"
   xmlns:sodipodi="http://sodipodi.sourceforge.net/DTD/sodipodi-0.dtd"
   xmlns="http://www.w3.org/2000/svg"
   xmlns:svg="http://www.w3.org/2000/svg">
  <sodipodi:namedview
     id="namedview7"
     pagecolor="#ffffff"
     bordercolor="#666666"
     borderopacity="1.0"
     inkscape:pageshadow="2"
     inkscape:pageopacity="0.0"
     inkscape:pagecheckerboard="0"
     inkscape:document-units="mm"
     showgrid="true"
     units="px"
     inkscape:zoom="4"
     inkscape:cx="42.25"
     inkscape:cy="-7.625"
     inkscape:window-width="1920"
     inkscape:window-height="1022"
     inkscape:window-x="0"
     inkscape:window-y="33"
     inkscape:window-maximized="1"
     inkscape:current-layer="layer1">
    <inkscape:grid
       type="xygrid"
       id="grid1942" />
  </sodipodi:namedview>
  <defs
     id="defs2">
    <inkscape:path-effect
       effect="mirror_symmetry"
       start_point="22.489583,1.3229166"
       end_point="22.489583,6.6145833"
       center_point="22.489583,3.9687499"
       id="path-effect5216"
       is_visible="true"
       lpeversion="1.1"
       mode="free"
       discard_orig_path="false"
       fuse_paths="false"
       oposite_fuse="false"
       split_items="true"
       split_open="false" />
    <inkscape:path-effect
       effect="mirror_symmetry"
       start_point="13.229167,18.25625"
       end_point="13.229167,23.8125"
       center_point="13.229167,21.034375"
       id="path-effect2322"
       is_visible="true"
       lpeversion="1.1"
       mode="free"
       discard_orig_path="false"
       fuse_paths="false"
       oposite_fuse="false"
       split_items="true"
       split_open="false" />
    <inkscape:path-effect
       effect="mirror_symmetry"
       start_point="10.583333,0.52694874"
       end_point="10.583333,26.00396"
       center_point="10.583333,13.265455"
       id="path-effect2647"
       is_visible="true"
       lpeversion="1.1"
       mode="free"
       discard_orig_path="false"
       fuse_paths="false"
       oposite_fuse="false"
       split_items="true"
       split_open="false" />
    <inkscape:path-effect
       effect="mirror_symmetry"
       start_point="10.591468,0.62624476"
       end_point="10.513751,4.6593088"
       center_point="10.552609,2.6427768"
       id="path-effect1400"
       is_visible="true"
       lpeversion="1.1"
       mode="free"
       discard_orig_path="false"
       fuse_paths="false"
       oposite_fuse="false"
       split_items="false"
       split_open="false" />
  </defs>
  <g
     inkscape:label="Calque 1"
     inkscape:groupmode="layer"
     id="layer1">
    <path
       id="mirror-path-effect5216-6"
       d="M 25.664583,7.9375 V 3.96875 h -5.291666 c 0,0 -1e-6,3.175 0,3.96875 0,0.79375 2.116666,2.645833 2.645833,2.645833 0.529167,1e-6 2.645833,-1.852083 2.645833,-2.645833 z"
       style="fill:#ffffff;fill-opacity:1;stroke:#000000;stroke-width:0.33072917;stroke-linecap:butt;stroke-linejoin:miter;stroke-miterlimit:4;stroke-dasharray:none;stroke-opacity:1"
       sodipodi:nodetypes="scczzs"
       inkscape:export-filename="/media/stela/My Passport/unvanquished assets/icons/bsuit2.png"
       inkscape:export-xdpi="480"
       inkscape:export-ydpi="480" />
    <path
       id="mirror-path-effect5216-6-3"
       d="M 24.60625,7.6729166 V 5.2916664 h -3.175 c 0,0 -10e-7,1.9050002 0,2.3812502 0,0.47625 1.27,1.5875 1.5875,1.5875 0.3175,0 1.5875,-1.11125 1.5875,-1.5875 z"
       style="fill:#ffffff;fill-opacity:1;stroke:#000000;stroke-width:0.26458333;stroke-linecap:butt;stroke-linejoin:miter;stroke-miterlimit:4;stroke-dasharray:none;stroke-opacity:1"
       sodipodi:nodetypes="scczzs"
       inkscape:export-filename="/media/stela/My Passport/unvanquished assets/icons/iconu_bsuit.png"
       inkscape:export-xdpi="96"
       inkscape:export-ydpi="96" />
    <path
       sodipodi:type="star"
       style="fill:#ffffff;fill-rule:evenodd;stroke:#000000;stroke-width:1.55160056;stroke-linejoin:round;stroke-miterlimit:4;stroke-dasharray:none;stroke-opacity:1;paint-order:markers fill stroke"
       id="path2402"
       inkscape:flatsided="false"
       sodipodi:sides="4"
       sodipodi:cx="72.241669"
       sodipodi:cy="2.4176538"
       sodipodi:r1="7.3189363"
       sodipodi:r2="3.0143113"
       sodipodi:arg1="0"
       sodipodi:arg2="0.78539816"
       inkscape:rounded="0"
       inkscape:randomized="0"
       d="m 79.560605,2.4176538 -5.187496,2.13144 -2.13144,5.1874963 -2.13144,-5.1874963 -5.187497,-2.13144 5.187497,-2.13143996 2.13144,-5.18749634 2.13144,5.18749632 z"
       transform="matrix(0.17052284,0,0,0.17052284,10.699895,6.5417723)" />
    <g
       id="g6034"
       style="stroke-width:0.211667;stroke-miterlimit:4;stroke-dasharray:none">
      <path
         style="fill:#ffffff;fill-opacity:1;stroke:#000000;stroke-width:0.211667;stroke-linecap:butt;stroke-linejoin:miter;stroke-miterlimit:4;stroke-dasharray:none;stroke-opacity:1"
         d="m 11.610653,2.9591421 c 0,0 -0.587044,0.012401 -0.711068,0.3555339 -0.124023,0.3431315 -0.117822,0.6056479 -0.132291,0.6118489 -0.01447,0.0062 -0.525033,0.3472657 -0.584978,0.3348633 -0.05994,-0.012402 -1.5172196,-1.0397296 -1.963704,-0.510563 -0.4464844,0.5291667 -0.5622396,0.9425781 -0.5539714,1.5875 0.00827,0.6449219 0.3886068,1.480013 0.4878256,1.5875 0.099219,0.1074869 -0.00414,0.3534666 -0.082682,0.4836914 -0.078548,0.1302244 -0.2965596,0.7337425 -0.322869,0.8185168 -0.02631,0.084775 -0.058465,0.1198539 -0.00585,0.1520098 0.052619,0.032156 0.1198538,0.020463 0.1140071,0.055542 -0.00585,0.035079 -0.3475313,0.6317115 -0.3971407,0.6523821 -0.049609,0.020672 -0.144694,-0.020672 -0.1901692,0.033073 -0.045475,0.053743 -0.6986654,1.8107417 -0.8102865,2.0091787 -0.1116211,0.198438 -0.1943034,0.301791 -0.2025716,0.322461 -0.00827,0.02067 -0.076322,0.0056 -0.130402,0.07279 -0.05408,0.06723 -0.1169305,0.236784 -0.1125456,0.287941 0.00438,0.05116 0.019,0.118392 0.048234,0.140317 0.029232,0.02192 -0.036541,0.114007 -0.096468,0.182703 -0.059927,0.0687 -0.505724,0.646041 -0.5846521,0.982216 -0.078928,0.336175 -0.1110839,0.418026 -0.1110839,0.461875 0,0.04385 0.029233,0.06724 0.058465,0.06139 0.029233,-0.0058 0.040926,0.04969 0.049696,0.201704 0.00877,0.15201 0.048234,0.621193 0.064312,0.631425 0.016079,0.01023 0.055542,-0.01169 0.055542,0.03069 0,0.04239 0.027771,0.09208 0.061388,0.106699 0.033618,0.01462 0.038002,0.07162 0.05408,0.07747 0.016079,0.0058 0.1783189,0.03362 0.1943968,-0.0015 0.016079,-0.03508 -0.019,-0.213398 -0.00731,-0.228014 0.011692,-0.01462 0.1008526,0.05846 0.13447,0.06285 0.033617,0.0044 0.1242385,-0.01023 0.1286235,-0.04385 0.00438,-0.03362 -0.1602046,-0.702226 -0.1620206,-0.853866 -0.00292,-0.244092 0.3621148,-0.623705 0.5387005,-0.601629 0.1765857,0.02208 0.2094335,0.303731 0.2693606,0.335886 0.059927,0.03216 0.1710108,0.057 0.2323991,-0.07893 0.061389,-0.135932 0.1914737,-0.732277 0.1958586,-0.757125 0.00438,-0.02485 -0.015362,-0.343663 0.062105,-0.384543 0.077466,-0.04093 0.4661965,0.06897 0.4574266,-0.05088 -0.00877,-0.119854 0.1557415,-0.320191 0.3019044,-0.444429 0.1461633,-0.124239 0.925212,-0.969061 1.0567588,-1.216077 0.1315466,-0.247015 0.1841654,-0.267478 0.1593178,-0.343483 -0.024847,-0.076 0.276248,-0.8360515 0.292326,-0.8521294 0.016079,-0.016079 0.1318384,0.010378 0.1596093,-0.00862 0.027771,-0.019002 0.3478679,-0.5510345 0.3756389,-0.5919602 0.02777,-0.040926 0.148795,-0.478099 0.157564,-0.4883302 0.0088,-0.010231 0.057,0.010231 0.05993,0.023387 0.0029,0.013155 -0.05903,0.2448786 -0.07657,0.3223448 -0.01754,0.077467 -0.04913,0.3763145 -0.04182,0.4216249 0.0073,0.045311 0.04092,0.146163 0.118392,0.1753957 0.07747,0.029232 0.09354,0.00731 0.100853,0.02631 0.0073,0.019002 0.02106,0.047994 0.01899,0.065564 -0.0021,0.017571 -0.03514,0.027905 -0.03411,0.05581 10e-4,0.027905 0.07545,0.2790528 0.107487,0.3524332 0.03204,0.073381 0.02067,0.089917 0.109554,0.089917 0.08888,0 0.113688,-0.016536 0.116789,-0.00103 0.0031,0.015502 -0.108521,0.1074869 -0.08785,0.2315104 0.02067,0.1240238 0.04547,0.4878258 0.09509,0.5622398 0.04961,0.07441 0.09508,0.08682 0.14056,0.09508 0.04547,0.0083 0.03721,0.343132 0.0124,0.384473 -0.02481,0.04134 -0.124024,0.02067 -0.148828,0.03721 -0.02481,0.01654 -0.223242,0.454753 -0.219108,0.58291 0.0041,0.128158 0.06201,0.14056 0.07028,0.190169 0.0083,0.04961 -0.248047,0.653191 -0.26045,0.748275 -0.0124,0.09509 -0.16123,0.06201 -0.2893876,0.107487 -0.1281576,0.04547 -0.4382162,0.768945 -0.4464844,0.847494 -0.00827,0.07855 0.074414,0.276985 0.099219,0.289388 0.024805,0.0124 -0.2852539,0.822688 -0.2769856,1.116211 0.00827,0.293522 0.057878,2.220019 0.057878,2.31097 0,0.09095 0.07028,0.186035 0.07028,0.206705 0,0.02067 -0.1116211,0.107487 -0.1322916,0.194304 -0.020672,0.08682 0.045475,0.520898 0.062012,0.644922 0.016536,0.124023 0.1116211,0.194303 0.1529622,0.186035 0.041341,-0.0083 0.107487,0.09922 0.1116211,0.136426 0.00414,0.03721 -0.066146,0.107487 -0.099219,0.124023 -0.033073,0.01654 -0.099219,-0.0124 -0.107487,0.0124 -0.00827,0.02481 0.033073,0.219108 0.031006,0.243913 -0.00206,0.0248 -0.039274,0.227376 -0.00206,0.328662 0.037207,0.101286 0.057394,0.220918 0.066163,0.293999 0.00877,0.07308 -0.00837,0.499377 -0.010231,0.60073 -0.00196,0.107054 0.081851,1.521557 0.222168,1.878195 0.1403165,0.356638 0.1403165,0.970522 0.1812419,1.052374 0.040926,0.08185 0.13447,0.02339 0.128624,0.105237 -0.0059,0.08185 -0.2046287,0.836053 -0.2280147,0.912057 -0.023386,0.07601 -0.13447,0.590499 -0.1520095,0.666504 -0.017539,0.07601 -0.017539,0.222168 -0.058465,0.274786 -0.040926,0.05262 -0.13447,0.175396 -0.1403165,0.216322 -0.00585,0.04093 -0.1637027,0.05847 -0.1987817,0.122777 -0.035079,0.06431 -0.1052375,0.420949 -0.111084,0.479414 -0.00585,0.05846 2.7537114,0.146163 2.7887904,0.09354 0.03508,-0.05262 0.175396,-0.491107 0.181242,-0.608038 0.0059,-0.11693 -0.04677,-0.406333 -0.04385,-0.473568 0.0029,-0.06724 0.04093,-0.429719 0.0059,-0.470645 -0.03508,-0.04093 -0.07601,-0.06139 -0.07893,-0.11693 -0.0029,-0.05554 0.09939,-0.570036 0.05262,-0.596345 -0.04677,-0.02632 -0.210474,-0.04678 -0.239707,-0.0614 -0.02923,-0.01461 -0.07601,-0.114007 -0.06431,-0.14324 0.01169,-0.02923 0.68989,-1.330083 0.724969,-1.71303 0.03508,-0.382947 -0.116931,-1.341777 -0.169549,-1.672105 -0.05262,-0.330329 -0.04093,-1.219 -0.06724,-1.242386 -0.02631,-0.02339 -0.163703,0.01462 -0.192935,-0.02923 -0.02923,-0.04385 0.038,-0.409257 0.05554,-0.438489 0.01754,-0.02923 0.122777,-0.0088 0.137393,-0.038 0.01462,-0.02923 0.05262,-0.552496 0.03216,-0.581729 -0.02046,-0.02923 -0.04385,-0.0088 -0.06139,-0.06724 C 12.213663,17.640934 12.7,17.4625 12.7,16.66875 c 0,-0.79375 0.264584,-0.978959 0.529167,-0.978959 0.264583,0 0.529167,0.185209 0.529167,0.978959 0,0.79375 0.486321,0.972184 0.468782,1.030644 -0.01754,0.05844 -0.04092,0.03801 -0.06139,0.06724 -0.02046,0.02923 0.01754,0.552499 0.03216,0.581729 0.01462,0.0292 0.119854,0.0088 0.137393,0.038 0.01754,0.02923 0.08478,0.394639 0.05554,0.438489 -0.02923,0.04385 -0.166625,0.0058 -0.192935,0.02923 -0.02631,0.02339 -0.01462,0.912057 -0.06724,1.242386 -0.05262,0.330328 -0.204628,1.289158 -0.169549,1.672105 0.03508,0.382947 0.713276,1.6838 0.724968,1.71303 0.01169,0.02923 -0.03508,0.12863 -0.06431,0.14324 -0.02923,0.01462 -0.192935,0.03508 -0.239707,0.0614 -0.04677,0.02631 0.05554,0.540805 0.05262,0.596345 -0.0029,0.05554 -0.04385,0.076 -0.07893,0.11693 -0.03508,0.04093 0.0029,0.403405 0.0059,0.470645 0.0029,0.06724 -0.0497,0.356638 -0.04385,0.473568 0.0058,0.116931 0.146164,0.555418 0.181243,0.608038 0.03508,0.05262 2.79464,-0.03508 2.78879,-0.09354 -0.0058,-0.05846 -0.076,-0.415104 -0.111084,-0.479414 -0.03508,-0.06431 -0.192932,-0.08185 -0.198782,-0.122777 -0.0058,-0.04093 -0.09939,-0.163702 -0.140316,-0.216322 -0.04093,-0.05262 -0.04093,-0.198776 -0.05846,-0.274786 -0.01754,-0.07601 -0.128624,-0.590494 -0.15201,-0.666504 -0.02339,-0.076 -0.222164,-0.830207 -0.228014,-0.912057 -0.0058,-0.08185 0.0877,-0.02339 0.128624,-0.105237 0.04093,-0.08185 0.04093,-0.695736 0.181241,-1.052374 0.140317,-0.356638 0.224129,-1.771141 0.222168,-1.878195 -0.0019,-0.101353 -0.019,-0.52765 -0.01023,-0.60073 0.0088,-0.07308 0.02896,-0.192713 0.06616,-0.293999 0.03721,-0.101286 0,-0.303862 -0.0021,-0.328662 -0.0021,-0.02481 0.03927,-0.219103 0.03101,-0.243913 -0.0083,-0.0248 -0.07441,0.0041 -0.107487,-0.0124 -0.03307,-0.01654 -0.103359,-0.08681 -0.09922,-0.124023 0.0041,-0.03721 0.07028,-0.144726 0.111622,-0.136426 0.04134,0.0083 0.136426,-0.06201 0.152962,-0.186035 0.01654,-0.124024 0.08268,-0.558102 0.06201,-0.644922 -0.02067,-0.08682 -0.132292,-0.173634 -0.132292,-0.194304 0,-0.02067 0.07028,-0.115755 0.07028,-0.206705 0,-0.09095 0.04961,-2.017448 0.05788,-2.31097 0.0083,-0.293523 -0.30179,-1.103811 -0.276985,-1.116211 0.02481,-0.0124 0.107489,-0.210838 0.09922,-0.289388 -0.0083,-0.07855 -0.318327,-0.802024 -0.446485,-0.847494 -0.128157,-0.04548 -0.276987,-0.0124 -0.289388,-0.107487 -0.0124,-0.09508 -0.268719,-0.698665 -0.260449,-0.748275 0.0083,-0.04961 0.06614,-0.06201 0.07028,-0.190169 0.0041,-0.128157 -0.194303,-0.56637 -0.219108,-0.58291 -0.02481,-0.01654 -0.124023,0.0041 -0.148828,-0.03721 -0.02481,-0.04134 -0.03307,-0.376173 0.0124,-0.384473 0.04547,-0.0083 0.09095,-0.02067 0.14056,-0.09508 0.04961,-0.07441 0.07441,-0.438216 0.09508,-0.5622397 0.02067,-0.1240235 -0.09095,-0.2160084 -0.08785,-0.2315104 0.0031,-0.015506 0.02791,0.00103 0.116788,0.00103 0.08888,0 0.07752,-0.016536 0.109555,-0.089917 0.03204,-0.07338 0.106457,-0.3245282 0.107487,-0.3524332 0.001,-0.027905 -0.03205,-0.038239 -0.03411,-0.05581 -0.0021,-0.01757 0.01168,-0.046562 0.01899,-0.065564 0.0073,-0.019 0.02339,0.00292 0.100852,-0.02631 0.07747,-0.029233 0.111082,-0.1300847 0.118392,-0.1753957 0.0073,-0.04531 -0.02428,-0.3441579 -0.04182,-0.4216249 -0.01754,-0.077466 -0.07949,-0.3091898 -0.07657,-0.3223448 0.0029,-0.013156 0.05116,-0.033618 0.05993,-0.023387 0.0088,0.010231 0.129793,0.4474042 0.157564,0.4883302 0.02777,0.040926 0.347868,0.5729582 0.37564,0.5919602 0.02777,0.018998 0.14353,-0.00746 0.159609,0.00862 0.01608,0.016078 0.317173,0.7761293 0.292326,0.8521293 -0.02485,0.07601 0.02777,0.09647 0.159318,0.343483 0.131546,0.247016 0.910595,1.091838 1.056758,1.216077 0.146163,0.124238 0.310675,0.324575 0.301905,0.444429 -0.0088,0.11985 0.37996,0.0099 0.457426,0.05088 0.07747,0.04088 0.05773,0.359693 0.0621,0.384543 0.0044,0.02485 0.13447,0.621193 0.195859,0.757125 0.06139,0.13593 0.172472,0.11109 0.232399,0.07893 0.05993,-0.03216 0.09278,-0.313806 0.269361,-0.335886 0.176585,-0.02208 0.54162,0.357537 0.5387,0.601629 -0.0018,0.15164 -0.1664,0.820246 -0.16202,0.853866 0.0044,0.03362 0.09501,0.04825 0.128623,0.04385 0.03362,-0.0044 0.122778,-0.07747 0.13447,-0.06285 0.01169,0.01462 -0.02339,0.192934 -0.0073,0.228014 0.01608,0.03512 0.178318,0.0073 0.194397,0.0015 0.01608,-0.0058 0.02046,-0.06285 0.05408,-0.07747 0.03362,-0.01462 0.06139,-0.06431 0.06139,-0.106699 0,-0.04238 0.03946,-0.02046 0.05554,-0.03069 0.01608,-0.01023 0.05554,-0.479415 0.06431,-0.631425 0.0088,-0.152014 0.02046,-0.207504 0.0497,-0.201704 0.02923,0.0058 0.05847,-0.01754 0.05847,-0.06139 0,-0.04385 -0.03216,-0.1257 -0.111084,-0.461875 -0.07893,-0.336175 -0.524725,-0.913516 -0.584652,-0.982216 -0.05993,-0.0687 -0.1257,-0.160783 -0.09647,-0.182703 0.02923,-0.02192 0.04385,-0.08916 0.04823,-0.140317 0.0044,-0.05116 -0.05847,-0.220711 -0.112546,-0.287941 -0.05408,-0.06719 -0.122132,-0.05212 -0.130402,-0.07279 -0.0083,-0.02067 -0.09095,-0.124023 -0.202571,-0.322461 -0.111621,-0.198437 -0.764812,-1.9554356 -0.810287,-2.0091786 -0.04547,-0.053745 -0.14056,-0.012401 -0.190169,-0.033073 -0.04961,-0.020671 -0.391291,-0.6173031 -0.397141,-0.6523821 -0.0058,-0.035079 0.06139,-0.023386 0.114007,-0.055542 0.05261,-0.032156 0.02046,-0.067235 -0.0058,-0.1520098 -0.02631,-0.084774 -0.244321,-0.6882924 -0.322869,-0.8185168 -0.07854,-0.1302248 -0.181901,-0.3762045 -0.08268,-0.4836914 0.09922,-0.107487 0.479556,-0.9425781 0.487826,-1.5875 0.0083,-0.6449219 -0.107487,-1.0583333 -0.553971,-1.5875 -0.446485,-0.5291666 -1.90376,0.4981607 -1.963705,0.510563 -0.05994,0.012402 -0.570508,-0.3286619 -0.584977,-0.3348633 -0.01447,-0.0062 -0.0083,-0.2687174 -0.132291,-0.6118489 -0.124086,-0.3431329 -0.71113,-0.3555339 -0.71113,-0.3555339"
         id="path3351"
         sodipodi:nodetypes="csssscscsccssssccccsscssssccsccszcsccsssssssscscssccssssscsscsscsssssssccssccssssssssssssssssscsssssscsczzzcscssssssccsssssssssssssscsccssccssssssscsscsscsssssscsscscssssssssccscssccsccsssscssssccssssssscssssssc" />
      <path
         style="fill:#ffffff;fill-opacity:1;stroke:#000000;stroke-width:0.211667;stroke-linecap:butt;stroke-linejoin:miter;stroke-miterlimit:4;stroke-dasharray:none;stroke-opacity:1"
         d="m 11.649927,3.4118278 c -0.0524,-0.096346 -0.05788,-0.4630208 -0.07441,-1.7445963 -0.01654,-1.28157551 0.977626,-1.17408851 1.653646,-1.1740885 0.67602,10e-9 1.670182,-0.10748694 1.653646,1.1740886 -0.01654,1.2815755 -0.02201,1.64825 -0.07441,1.7445963 -0.0524,0.096346 -0.785482,1.3146485 -1.579234,1.3146485 -0.793752,-1e-7 -1.526835,-1.2183023 -1.579234,-1.3146486 z"
         id="path1996"
         sodipodi:nodetypes="zszsszz" />
      <path
         style="fill:none;stroke:#000000;stroke-width:0.211667;stroke-linecap:butt;stroke-linejoin:miter;stroke-miterlimit:4;stroke-dasharray:none;stroke-opacity:1"
         d="m 13.229159,8.6952262 c -0.529166,0 -1.097934,-0.1850095 -1.334138,-0.3239529 C 11.398067,8.0789473 10.971271,7.5410672 10.807569,7.2253552 10.71571,7.0482003 10.556168,6.1145161 10.608787,5.6409479 10.661406,5.1673798 10.73741,3.9746897 10.73741,3.9746897"
         id="path3485"
         sodipodi:nodetypes="csssc" />
      <path
         style="fill:none;stroke:#000000;stroke-width:0.211667;stroke-linecap:butt;stroke-linejoin:miter;stroke-miterlimit:4;stroke-dasharray:none;stroke-opacity:1"
         d="m 9.4421983,25.290395 c 0,0 0.7631787,-0.189303 1.0058087,-0.165917 0.242631,0.02339 0.570036,0.08478 0.631425,0.201705 0.06139,0.116931 0.154933,0.561266 0.157856,0.608039"
         id="path3812"
         sodipodi:nodetypes="cssc" />
      <path
         style="fill:none;stroke:#000000;stroke-width:0.211667;stroke-linecap:butt;stroke-linejoin:miter;stroke-miterlimit:4;stroke-dasharray:none;stroke-opacity:1"
         d="m 9.5911381,13.726443 c 0,0 0.4960939,-0.169496 0.7276039,0.08682 0.231511,0.256315 0.818555,0.802018 0.892969,1.562695 0.07441,0.760677 0.144694,2.736784 0.07028,3.075781"
         id="path3904"
         sodipodi:nodetypes="cssc" />
      <path
         style="fill:none;stroke:#000000;stroke-width:0.211667;stroke-linecap:butt;stroke-linejoin:miter;stroke-miterlimit:4;stroke-dasharray:none;stroke-opacity:1"
         d="m 9.6236482,18.497447 c 0,0 0.4618748,-0.198782 0.6752728,-0.201705 0.213398,-0.0029 0.789281,0.05847 1.145919,0.228014 0.356637,0.16955 0.619731,0.289403 0.619731,0.289403"
         id="path4266"
         sodipodi:nodetypes="cccc" />
      <path
         style="fill:none;stroke:#000000;stroke-width:0.211667;stroke-linecap:butt;stroke-linejoin:miter;stroke-miterlimit:4;stroke-dasharray:none;stroke-opacity:1"
         d="m 6.0551874,12.00065 c 0,0 0.1540925,-0.196008 0.2885625,-0.217932 0.13447,-0.02192 0.4180263,-0.0029 0.5598046,0.0877 0.1417781,0.09062 0.2250908,0.178319 0.2382457,0.207551 0.013155,0.02923 0.052585,0.04237 0.1445688,0.04547 0.091984,0.0031 0.3348633,0.0052 0.3431315,0.0052"
         id="path5026"
         sodipodi:nodetypes="cccssc" />
      <path
         style="fill:none;stroke:#000000;stroke-width:0.211667;stroke-linecap:butt;stroke-linejoin:miter;stroke-miterlimit:4;stroke-dasharray:none;stroke-opacity:1"
         d="m 5.4942305,14.549132 c 0,0 0.1819011,-0.02274 0.2067057,-0.08888 0.024805,-0.06614 0.00206,-0.316259 0.045475,-0.446484 0.043408,-0.130224 0.1426272,-0.177766 0.1736327,-0.204638"
         id="path5867"
         sodipodi:nodetypes="cscc" />
      <path
         style="fill:none;stroke:#000000;stroke-width:0.211667;stroke-linecap:butt;stroke-linejoin:miter;stroke-miterlimit:4;stroke-dasharray:none;stroke-opacity:1"
         d="m 7.8199966,8.5174362 c 0,0 0.2864794,0.058465 0.3332517,0.076005 0.046772,0.017539 0.058465,0.3449447 0.093544,0.3858704 0.035079,0.040926 0.3917169,0.2514005 0.4560287,0.26894 0.064312,0.017539 0.3507912,-0.1637025 0.3917169,-0.1520095 0.040926,0.011692 0.3858705,0.13447 0.3858705,0.13447"
         id="path6381"
         sodipodi:nodetypes="cssssc" />
      <path
         style="fill:none;stroke:#000000;stroke-width:0.211667;stroke-linecap:butt;stroke-linejoin:miter;stroke-miterlimit:4;stroke-dasharray:none;stroke-opacity:1"
         d="m 8.2000205,6.9914942 c 0,0 0.8068199,0.1373934 0.9997548,0.02631 0.1929353,-0.1110835 0.186967,-0.9319303 0.2835564,-1.2891576 0.1841653,-0.6811195 0.6869663,-1.4704 0.6869663,-1.4704"
         id="path6383"
         sodipodi:nodetypes="cssc" />
      <path
         style="fill:none;stroke:#000000;stroke-width:0.211667;stroke-linecap:butt;stroke-linejoin:miter;stroke-miterlimit:4;stroke-dasharray:none;stroke-opacity:1"
         d="m 9.7089603,24.638439 c 0,0 0.4444177,-0.642855 0.9322427,-0.630453 0.487826,0.0124 0.839225,0.227376 0.855762,0.285254 0.01654,0.05788 0.14056,0.446484 0.173633,0.599447 0.03307,0.152962 0.08268,0.285254 0.144694,0.326595 0.06201,0.04134 0.289388,-0.107487 0.289388,-0.107487"
         id="path6624"
         sodipodi:nodetypes="cssssc" />
      <path
         style="fill:none;stroke:#000000;stroke-width:0.211667;stroke-linecap:butt;stroke-linejoin:miter;stroke-miterlimit:4;stroke-dasharray:none;stroke-opacity:1"
         d="m 9.4715229,18.928059 c 0,0 0.152688,0.573742 0.2436385,0.710168 0.090951,0.136426 0.1570964,0.248047 0.2025717,0.227376 0.045475,-0.02067 0.095359,-0.226476 0.3268689,-0.205805 0.23151,0.02067 0.623977,0.205805 0.669453,0.271951 0.04548,0.06615 -0.0248,0.144694 0.256315,-0.0083 0.28112,-0.152962 0.446484,-0.227376 0.446484,-0.272852 0,-0.04547 -0.04547,-0.268717 0.0041,-0.351399 0.04961,-0.08268 0.05374,-0.157097 0.157096,-0.194304 0.103353,-0.03721 0.173633,-0.01654 0.173633,-0.04134 0,-0.02481 -0.0065,-0.282814 0.112853,-0.250426 l 0.18754,0.0509"
         id="path6776"
         sodipodi:nodetypes="csssscsssssc" />
      <path
         style="fill:none;stroke:#000000;stroke-width:0.211667;stroke-linecap:butt;stroke-linejoin:miter;stroke-miterlimit:4;stroke-dasharray:none;stroke-opacity:1"
         d="m 10.063071,23.150403 c 0,0 0.400365,-0.138736 0.435505,-0.256561 0.03514,-0.117822 0.23151,-0.09302 0.291455,-0.08268 0.05994,0.01033 0.111621,0.157096 0.233578,0.200505 0.121956,0.04341 0.254248,-0.0124 0.307991,0.03927 0.05374,0.05168 0.163298,0.425814 0.241846,0.448552 0.07855,0.02274 0.181901,0.03514 0.181901,0.03514"
         id="path7566"
         sodipodi:nodetypes="cscscsc" />
      <path
         style="fill:none;stroke:#000000;stroke-width:0.211667;stroke-linecap:butt;stroke-linejoin:miter;stroke-miterlimit:4;stroke-dasharray:none;stroke-opacity:1"
         d="m 11.235298,7.7988509 c 0,0 0.03018,0.4743183 -0.06468,0.7244133 -0.09486,0.250095 -0.323399,0.7718452 -0.422575,0.9313886 -0.09917,0.1595435 -0.113158,0.2290582 -0.113158,0.2290582"
         id="path8481"
         sodipodi:nodetypes="cssc" />
      <path
         style="fill:none;stroke:#000000;stroke-width:0.211667;stroke-linecap:butt;stroke-linejoin:miter;stroke-miterlimit:4;stroke-dasharray:none;stroke-opacity:1"
         d="m 10.213526,8.1353848 c 0,0 0.216481,-0.2957563 0.365884,-0.5152866 0.149402,-0.2195304 0.243922,-0.3567369 0.243922,-0.3567369"
         id="path9029"
         sodipodi:nodetypes="csc" />
      <path
         style="fill:none;stroke:#000000;stroke-width:0.211667;stroke-linecap:butt;stroke-linejoin:miter;stroke-miterlimit:4;stroke-dasharray:none;stroke-opacity:1"
         d="m 10.594655,7.592657 c 0,0 -0.08842,-0.265266 -0.06708,-0.5030905 0.02134,-0.2378247 0.03049,-0.3445406 0.06403,-0.4116194 0.03354,-0.067079 0.07013,-0.079275 0.07013,-0.079275"
         id="path9031"
         sodipodi:nodetypes="cssc" />
      <path
         style="fill:none;stroke:#000000;stroke-width:0.211667;stroke-linecap:butt;stroke-linejoin:miter;stroke-miterlimit:4;stroke-dasharray:none;stroke-opacity:1"
         d="m 10.625145,5.4735793 c 0,0 0.100618,-0.048783 0.335394,-0.054883 0.234775,-0.0061 0.792748,-0.033539 0.88117,-0.1006181 0.08842,-0.067079 0.05793,-0.2683146 0.225629,-0.3414916 0.167697,-0.073177 0.774517,0.014473 1.161821,0.014473 0.387304,0 0.994124,-0.08765 1.161821,-0.014473 0.167697,0.073177 0.137206,0.2744128 0.225628,0.3414916 0.08842,0.067079 0.646395,0.09452 0.881171,0.1006181 0.234776,0.0061 0.335394,0.054883 0.335394,0.054883"
         id="path9085"
         sodipodi:nodetypes="cssszsssc" />
      <path
         style="fill:none;stroke:#000000;stroke-width:0.211667;stroke-linecap:butt;stroke-linejoin:miter;stroke-miterlimit:4;stroke-dasharray:none;stroke-opacity:1"
         d="m 10.95933,9.9419069 c 0,0 0.06037,0.028028 0.09271,0.1487631 0.03234,0.120736 0.0065,0.610146 0.04096,0.778313 0.0345,0.168168 0.12936,0.379455 0.200508,0.487254 l 0.07115,0.1078 c 0,0 0.199589,0.296648 0.358139,0.403364 0.15855,0.106716 0.994164,0.303433 1.50637,0.303432 0.512206,0 1.347804,-0.196716 1.506354,-0.303432 0.158549,-0.106716 0.358139,-0.403364 0.358139,-0.403364 l 0.07115,-0.1078 c 0.07115,-0.107799 0.166007,-0.319086 0.200507,-0.487254 0.03446,-0.168167 0.0086,-0.657577 0.04096,-0.778313 0.03234,-0.120735 0.09271,-0.148763 0.09271,-0.148763"
         id="path11773"
         sodipodi:nodetypes="cssscszscscsc" />
      <path
         id="path2653-0"
         d="m 13.229159,8.6952263 c 0.529166,0 1.097934,-0.1850095 1.334137,-0.3239529 0.496954,-0.292326 0.92375,-0.8302061 1.087453,-1.1459181 0.09186,-0.1771549 0.2514,-1.1108391 0.198782,-1.5844073 -0.05262,-0.4735681 -0.128624,-1.6662582 -0.128624,-1.6662582"
         style="fill:none;stroke:#000000;stroke-width:0.211667;stroke-linecap:butt;stroke-linejoin:miter;stroke-miterlimit:4;stroke-dasharray:none;stroke-opacity:1" />
      <path
         id="path2655-0"
         d="m 17.016119,25.290395 c 0,0 -0.763178,-0.189303 -1.005809,-0.165917 -0.242631,0.02339 -0.570036,0.08478 -0.631424,0.201705 -0.06139,0.116931 -0.154933,0.561266 -0.157856,0.608039"
         style="fill:none;stroke:#000000;stroke-width:0.211667;stroke-linecap:butt;stroke-linejoin:miter;stroke-miterlimit:4;stroke-dasharray:none;stroke-opacity:1" />
      <path
         id="path2657-3"
         d="m 16.867179,13.726443 c 0,0 -0.496093,-0.169496 -0.727604,0.08682 -0.23151,0.256315 -0.818554,0.802018 -0.892968,1.562695 -0.07441,0.760677 -0.144694,2.736784 -0.07028,3.075781"
         style="fill:none;stroke:#000000;stroke-width:0.211667;stroke-linecap:butt;stroke-linejoin:miter;stroke-miterlimit:4;stroke-dasharray:none;stroke-opacity:1" />
      <path
         id="path2659-4"
         d="m 16.834669,18.497447 c 0,0 -0.461875,-0.198782 -0.675273,-0.201705 -0.213398,-0.0029 -0.78928,0.05847 -1.145918,0.228014 -0.356638,0.16955 -0.619731,0.289403 -0.619731,0.289403"
         style="fill:none;stroke:#000000;stroke-width:0.211667;stroke-linecap:butt;stroke-linejoin:miter;stroke-miterlimit:4;stroke-dasharray:none;stroke-opacity:1" />
      <path
         id="path2661-1"
         d="m 16.033696,12.034118 c 0,0 -1.078683,0.874055 -1.406088,1.341777 -0.327405,0.467721 -0.678197,1.028988 -0.783434,1.379779 -0.05262,0.175396 -0.18453,0.752008 -0.295249,0.838975 -0.11072,0.08697 -0.528814,0.08697 -0.639532,0 -0.110719,-0.08697 -0.24263,-0.663579 -0.295249,-0.838975 -0.105237,-0.350791 -0.456029,-0.912058 -0.783434,-1.379779 -0.327405,-0.467722 -1.406088,-1.341777 -1.406088,-1.341777"
         style="fill:none;stroke:#000000;stroke-width:0.211667;stroke-linecap:butt;stroke-linejoin:miter;stroke-miterlimit:4;stroke-dasharray:none;stroke-opacity:1"
         sodipodi:nodetypes="csszzssc" />
      <path
         id="path2665-5"
         d="m 20.40313,12.00065 c 0,0 -0.154092,-0.196008 -0.288562,-0.217932 -0.13447,-0.02192 -0.418027,-0.0029 -0.559805,0.0877 -0.141778,0.09062 -0.225091,0.178319 -0.238246,0.207551 -0.01316,0.02923 -0.05259,0.04237 -0.144568,0.04547 -0.09198,0.0031 -0.334864,0.0052 -0.343132,0.0052"
         style="fill:none;stroke:#000000;stroke-width:0.211667;stroke-linecap:butt;stroke-linejoin:miter;stroke-miterlimit:4;stroke-dasharray:none;stroke-opacity:1" />
      <path
         id="path2667-0"
         d="m 20.964087,14.549132 c 0,0 -0.181901,-0.02274 -0.206706,-0.08888 -0.02481,-0.06614 -0.0021,-0.316259 -0.04547,-0.446484 -0.04341,-0.130224 -0.142627,-0.177766 -0.173632,-0.204638"
         style="fill:none;stroke:#000000;stroke-width:0.211667;stroke-linecap:butt;stroke-linejoin:miter;stroke-miterlimit:4;stroke-dasharray:none;stroke-opacity:1" />
      <path
         id="path2669-5"
         d="m 18.638321,8.5174363 c 0,0 -0.286479,0.058465 -0.333252,0.076005 -0.04677,0.017539 -0.05846,0.3449447 -0.09354,0.3858704 -0.03508,0.040926 -0.391717,0.2514005 -0.456028,0.26894 -0.06431,0.017539 -0.350792,-0.1637025 -0.391717,-0.1520095 -0.04093,0.011692 -0.385871,0.13447 -0.385871,0.13447"
         style="fill:none;stroke:#000000;stroke-width:0.211667;stroke-linecap:butt;stroke-linejoin:miter;stroke-miterlimit:4;stroke-dasharray:none;stroke-opacity:1" />
      <path
         id="path2671-0"
         d="m 18.258297,6.9914943 c 0,0 -0.80682,0.1373934 -0.999755,0.02631 C 17.065607,6.9067208 17.071575,6.085874 16.974986,5.7286467 16.790821,5.0475272 16.28802,4.2582467 16.28802,4.2582467"
         style="fill:none;stroke:#000000;stroke-width:0.211667;stroke-linecap:butt;stroke-linejoin:miter;stroke-miterlimit:4;stroke-dasharray:none;stroke-opacity:1" />
      <path
         id="path2675-3"
         d="m 16.749357,24.638439 c 0,0 -0.444417,-0.642855 -0.932243,-0.630453 -0.487825,0.0124 -0.839225,0.227376 -0.855761,0.285254 -0.01654,0.05788 -0.14056,0.446484 -0.173633,0.599447 -0.03307,0.152962 -0.08268,0.285254 -0.144694,0.326595 -0.06201,0.04134 -0.289388,-0.107487 -0.289388,-0.107487"
         style="fill:none;stroke:#000000;stroke-width:0.211667;stroke-linecap:butt;stroke-linejoin:miter;stroke-miterlimit:4;stroke-dasharray:none;stroke-opacity:1" />
      <path
         id="path2681-4"
         d="m 16.395247,23.150403 c 0,0 -0.400366,-0.138736 -0.435505,-0.256561 -0.03514,-0.117822 -0.231511,-0.09302 -0.291456,-0.08268 -0.05995,0.01033 -0.111621,0.157096 -0.233577,0.200505 -0.121956,0.04341 -0.254248,-0.0124 -0.307992,0.03927 -0.05374,0.05168 -0.163297,0.425814 -0.241845,0.448552 -0.07855,0.02274 -0.181901,0.03514 -0.181901,0.03514"
         style="fill:none;stroke:#000000;stroke-width:0.211667;stroke-linecap:butt;stroke-linejoin:miter;stroke-miterlimit:4;stroke-dasharray:none;stroke-opacity:1" />
      <path
         id="path2687-7"
         d="m 15.22302,7.798851 c 0,0 -0.03018,0.4743183 0.06468,0.7244133 0.09486,0.250095 0.323399,0.7718452 0.422574,0.9313886 0.09918,0.1595435 0.113158,0.2290582 0.113158,0.2290582"
         style="fill:none;stroke:#000000;stroke-width:0.211667;stroke-linecap:butt;stroke-linejoin:miter;stroke-miterlimit:4;stroke-dasharray:none;stroke-opacity:1" />
      <path
         id="path2689-8"
         d="m 16.244792,8.1353849 c 0,0 -0.216481,-0.2957563 -0.365884,-0.5152866 C 15.729505,7.4005679 15.634985,7.2633614 15.634985,7.2633614"
         style="fill:none;stroke:#000000;stroke-width:0.211667;stroke-linecap:butt;stroke-linejoin:miter;stroke-miterlimit:4;stroke-dasharray:none;stroke-opacity:1" />
      <path
         id="path2691-3"
         d="m 15.863663,7.5926571 c 0,0 0.08842,-0.265266 0.06708,-0.5030905 -0.02134,-0.2378247 -0.03049,-0.3445406 -0.06403,-0.4116194 -0.03354,-0.067079 -0.07013,-0.079275 -0.07013,-0.079275"
         style="fill:none;stroke:#000000;stroke-width:0.211667;stroke-linecap:butt;stroke-linejoin:miter;stroke-miterlimit:4;stroke-dasharray:none;stroke-opacity:1" />
      <path
         id="path2699-5"
         d="m 14.735521,13.254711 c 0,0 -0.07318,0.118912 -0.314051,0.335394 -0.240873,0.216481 -0.414668,0.274413 -0.59761,0.350637 -0.182942,0.07623 -0.395871,0.04615 -0.594701,0.04615 -0.19883,0 -0.411759,0.03008 -0.594701,-0.04615 -0.182942,-0.07622 -0.356737,-0.134156 -0.59761,-0.350637 -0.240874,-0.216482 -0.314051,-0.335394 -0.314051,-0.335394"
         style="fill:none;stroke:#000000;stroke-width:0.211667;stroke-linecap:butt;stroke-linejoin:miter;stroke-miterlimit:4;stroke-dasharray:none;stroke-opacity:1"
         sodipodi:nodetypes="csczcsc" />
      <path
         id="path2709-7"
         d="M 14.874536,2.3224888 C 14.767049,2.857857 13.80765,2.874393 13.229159,2.874393 c -0.578491,0 -1.53789,-0.016536 -1.645377,-0.5519043"
         style="fill:none;stroke:#000000;stroke-width:0.211667;stroke-linecap:butt;stroke-linejoin:miter;stroke-miterlimit:4;stroke-dasharray:none;stroke-opacity:1"
         sodipodi:nodetypes="czc" />
      <path
         id="mirror-path-effect2322-3"
         d="m 16.986879,18.927794 c 0,0 -0.152688,0.573742 -0.243638,0.710168 -0.09095,0.136426 -0.157097,0.248047 -0.202572,0.227376 -0.04547,-0.02067 -0.09536,-0.226476 -0.326869,-0.205805 -0.23151,0.02067 -0.623977,0.205805 -0.669453,0.271951 -0.04548,0.06615 0.0248,0.144694 -0.256315,-0.0083 -0.28112,-0.152962 -0.446484,-0.227376 -0.446484,-0.272852 0,-0.04547 0.04547,-0.268717 -0.0041,-0.351399 -0.04961,-0.08268 -0.05374,-0.157097 -0.157096,-0.194304 -0.103353,-0.03721 -0.173633,-0.01654 -0.173633,-0.04134 0,-0.02481 0.0065,-0.282814 -0.112853,-0.250426 l -0.18754,0.0509"
         style="fill:none;stroke:#000000;stroke-width:0.211667;stroke-linecap:butt;stroke-linejoin:miter;stroke-miterlimit:4;stroke-dasharray:none;stroke-opacity:1" />
    </g>
  </g>
</svg>
