<?xml version="1.0" encoding="UTF-8" standalone="no"?>
<!-- Created with Inkscape (http://www.inkscape.org/) -->

<svg
   width="100"
   height="100"
   viewBox="0 0 26.458334 26.458334"
   version="1.1"
   id="svg5"
   inkscape:version="1.2.1 (9c6d41e410, 2022-07-14)"
   sodipodi:docname="iconu_larmour (copie 1).svg"
   inkscape:export-filename="iconu_larmour.png"
   inkscape:export-xdpi="96"
   inkscape:export-ydpi="96"
   xmlns:inkscape="http://www.inkscape.org/namespaces/inkscape"
   xmlns:sodipodi="http://sodipodi.sourceforge.net/DTD/sodipodi-0.dtd"
   xmlns="http://www.w3.org/2000/svg"
   xmlns:svg="http://www.w3.org/2000/svg">
  <sodipodi:namedview
     id="namedview7"
     pagecolor="#505050"
     bordercolor="#eeeeee"
     borderopacity="1"
     inkscape:pageshadow="0"
     inkscape:pageopacity="0"
     inkscape:pagecheckerboard="0"
     inkscape:document-units="px"
     showgrid="true"
     units="px"
     height="1122.5196px"
     inkscape:zoom="8"
     inkscape:cx="25"
     inkscape:cy="46.3125"
     inkscape:window-width="1920"
     inkscape:window-height="1028"
     inkscape:window-x="0"
     inkscape:window-y="27"
     inkscape:window-maximized="1"
     inkscape:current-layer="layer1"
     showguides="false"
     width="100px"
     inkscape:guide-bbox="true"
     inkscape:showpageshadow="0"
     inkscape:deskcolor="#505050">
    <inkscape:grid
       type="xygrid"
       id="grid836" />
    <sodipodi:guide
       position="2.6458334,19.843751"
       orientation="0.70710678,-0.70710678"
       id="guide11245"
       inkscape:locked="false" />
  </sodipodi:namedview>
  <defs
     id="defs2">
    <inkscape:path-effect
       effect="mirror_symmetry"
       start_point="13.229167,2.6458333"
       end_point="13.229167,3.175"
       center_point="13.229167,2.9104167"
       id="path-effect2159"
       is_visible="true"
       lpeversion="1.1"
       mode="free"
       discard_orig_path="false"
       fuse_paths="false"
       oposite_fuse="false"
       split_items="true"
       split_open="false" />
    <inkscape:path-effect
       effect="mirror_symmetry"
       start_point="13.229167,8.4666667"
       end_point="13.229167,10.847917"
       center_point="13.229167,9.6572919"
       id="path-effect901"
       is_visible="true"
       lpeversion="1.1"
       mode="free"
       discard_orig_path="false"
       fuse_paths="false"
       oposite_fuse="false"
       split_items="true"
       split_open="false" />
    <inkscape:path-effect
       effect="mirror_symmetry"
       start_point="13.229167,1.6342052"
       end_point="13.229167,2.1060229"
       center_point="13.229167,1.870114"
       id="path-effect42275"
       is_visible="true"
       lpeversion="1.1"
       mode="free"
       discard_orig_path="false"
       fuse_paths="false"
       oposite_fuse="false"
       split_items="true"
       split_open="false" />
    <inkscape:path-effect
       effect="mirror_symmetry"
       start_point="13.229167,1.0476895"
       end_point="13.229167,4.7625"
       center_point="13.229167,2.9050947"
       id="path-effect39543"
       is_visible="true"
       lpeversion="1.1"
       mode="free"
       discard_orig_path="false"
       fuse_paths="false"
       oposite_fuse="false"
       split_items="true"
       split_open="false" />
    <inkscape:path-effect
       effect="mirror_symmetry"
       start_point="11.91781,5.1798566"
       end_point="11.91781,5.9031125"
       center_point="11.91781,5.5414846"
       id="path-effect32711"
       is_visible="true"
       lpeversion="1.1"
       mode="free"
       discard_orig_path="false"
       fuse_paths="false"
       oposite_fuse="false"
       split_items="true"
       split_open="false" />
    <inkscape:path-effect
       effect="mirror_symmetry"
       start_point="13.229208,1.0476895"
       end_point="13.229208,12.964583"
       center_point="13.229208,7.0061362"
       id="path-effect26730"
       is_visible="true"
       lpeversion="1.1"
       mode="free"
       discard_orig_path="false"
       fuse_paths="false"
       oposite_fuse="false"
       split_items="false"
       split_open="false" />
    <inkscape:path-effect
       effect="mirror_symmetry"
       start_point="13.229167,1.0583333"
       end_point="13.229167,25.42118"
       center_point="13.229167,13.239757"
       id="path-effect7396"
       is_visible="true"
       lpeversion="1.1"
       mode="free"
       discard_orig_path="false"
       fuse_paths="false"
       oposite_fuse="false"
       split_items="true"
       split_open="false" />
    <inkscape:path-effect
       effect="mirror_symmetry"
       start_point="10.583333,0.52694874"
       end_point="10.583333,26.00396"
       center_point="10.583333,13.265455"
       id="path-effect2647"
       is_visible="true"
       lpeversion="1.1"
       mode="free"
       discard_orig_path="false"
       fuse_paths="false"
       oposite_fuse="false"
       split_items="true"
       split_open="false" />
    <inkscape:path-effect
       effect="mirror_symmetry"
       start_point="10.591468,0.62624476"
       end_point="10.513751,4.6593088"
       center_point="10.552609,2.6427768"
       id="path-effect1400"
       is_visible="true"
       lpeversion="1.1"
       mode="free"
       discard_orig_path="false"
       fuse_paths="false"
       oposite_fuse="false"
       split_items="false"
       split_open="false" />
    <inkscape:path-effect
       effect="mirror_symmetry"
       start_point="22.489583,1.3229166"
       end_point="22.489583,6.6145833"
       center_point="22.489583,3.9687499"
       id="path-effect5216"
       is_visible="true"
       lpeversion="1.1"
       mode="free"
       discard_orig_path="false"
       fuse_paths="false"
       oposite_fuse="false"
       split_items="true"
       split_open="false" />
    <inkscape:path-effect
       effect="mirror_symmetry"
       start_point="13.229167,18.25625"
       end_point="13.229167,23.8125"
       center_point="13.229167,21.034375"
       id="path-effect2322"
       is_visible="true"
       lpeversion="1.1"
       mode="free"
       discard_orig_path="false"
       fuse_paths="false"
       oposite_fuse="false"
       split_items="true"
       split_open="false" />
  </defs>
  <g
     inkscape:label="Calque 1"
     inkscape:groupmode="layer"
     id="layer1">
    <path
       id="mirror-path-effect5216-6-35-3"
       d="M 25.135417,7.9375002 V 3.9687501 H 19.84375 v 3.9687501 c 0,0.714375 2.169583,2.6458338 2.645834,2.6458338 0.47625,10e-7 2.645833,-1.9314588 2.645833,-2.6458338 z"
       style="fill:#ffffff;fill-opacity:1;stroke:none;stroke-width:0.396874;stroke-linecap:butt;stroke-linejoin:miter;stroke-miterlimit:4;stroke-dasharray:none;stroke-opacity:1"
       sodipodi:nodetypes="scczzs"
       inkscape:export-filename="/media/stela/My Passport/unvanquished assets/icons/bsuit2.png"
       inkscape:export-xdpi="480"
       inkscape:export-ydpi="480" />
    <g
       id="g8759"
       style="fill:#ffffff;fill-opacity:1">
      <path
         id="path7408-6"
         style="fill:#ffffff;fill-opacity:1;stroke:none;stroke-width:0.317501;stroke-linecap:butt;stroke-linejoin:miter;stroke-miterlimit:4;stroke-dasharray:none;stroke-opacity:1"
         d="M 11.841655 5.1810792 C 11.879643 5.2523681 11.921781 5.3227798 11.968779 5.3924358 C 12.218285 5.7622459 12.404209 6.029615 12.585795 6.1892865 C 12.767381 6.3489579 12.93322 6.4182131 13.22865 6.4182131 C 13.524079 6.4182132 13.689401 6.348958 13.870988 6.1892865 C 14.052574 6.029615 14.240567 5.7622458 14.490072 5.3924358 C 14.537035 5.3228293 14.579229 5.2523171 14.617196 5.1810792 L 11.841655 5.1810792 z M 11.546066 5.5174928 C 11.515061 5.7047057 11.468628 5.9240279 11.406022 6.0492433 C 11.343834 6.1736359 11.237832 6.3415529 11.136788 6.4735068 C 11.170763 6.5537576 11.209662 6.6462102 11.257711 6.7479087 C 11.364543 6.9740282 11.509687 7.2334497 11.679908 7.4238365 C 11.831577 7.5934779 12.058532 7.6811432 12.337749 7.7225262 C 12.616964 7.7639092 12.935361 7.754049 13.22865 7.7540489 C 13.521942 7.7540489 13.841886 7.7639102 14.121102 7.7225262 C 14.400321 7.6811431 14.627786 7.5934779 14.77946 7.4238365 C 14.949666 7.2334663 15.092303 6.9740204 15.199073 6.7479087 C 15.24699 6.6464328 15.287304 6.5541636 15.321546 6.4740236 C 15.220426 6.3420199 15.114552 6.1737393 15.052312 6.0492433 C 14.989833 5.9242895 14.943273 5.7054844 14.912268 5.5185263 C 14.88977 5.5554956 14.866707 5.5924768 14.841988 5.6291139 C 14.591673 6.000125 14.394676 6.2929565 14.150558 6.5076133 C 13.906439 6.7222701 13.603687 6.8419598 13.22865 6.8419598 C 12.853612 6.8419598 12.55086 6.7222701 12.306743 6.5076133 C 12.062624 6.2929565 11.867695 6.0001249 11.617379 5.6291139 C 11.592416 5.5921118 11.568765 5.5548333 11.546066 5.5174928 z M 10.75645 6.6714276 C 10.616327 6.6836519 10.410734 6.7437769 10.240202 6.8802004 C 9.9921612 7.0786336 10.032463 7.1282488 9.821623 7.174756 C 9.7751805 7.1850009 9.6836574 7.1983307 9.5632408 7.2233319 C 9.5642586 7.6218188 9.5663414 8.4185614 9.5663414 8.5467654 C 9.5663414 8.573829 9.5636664 8.5963195 9.5596235 8.6160118 C 9.5632294 8.6189965 9.5668132 8.6218056 9.5704755 8.6247968 C 9.6135915 8.6600108 9.6596595 8.6961859 9.6955325 8.7188479 C 9.7179505 8.7330129 9.7398986 8.7398385 9.7435916 8.7415855 C 9.7418116 8.7416217 9.7366013 8.7409924 9.7265383 8.7400352 C 9.8216513 8.7490952 9.8891271 8.8098482 9.9239423 8.8573407 C 9.9587573 8.9048347 9.9765762 8.9501657 9.9921552 8.9979006 C 10.023311 9.0933766 10.040517 9.2028066 10.052617 9.3337974 C 10.076807 9.5957814 10.073078 9.9383367 10.041248 10.320301 C 10.009508 10.701163 9.9650605 10.963053 9.9043053 11.154358 C 9.8503073 11.324379 9.7896643 11.377094 9.6753787 11.610144 C 9.6756623 11.616844 9.6762045 11.623698 9.6764122 11.630298 C 9.6825622 11.822534 9.6510844 11.983763 9.6014814 12.076783 C 9.5518764 12.169783 9.4713079 12.33103 9.4774579 12.517066 C 9.4836079 12.703101 9.9238947 13.806927 9.9363447 13.912329 C 9.9487927 14.017749 10.016912 14.761891 10.029362 14.941724 C 10.041812 15.121558 10.060362 15.450219 9.9797529 15.685865 C 9.9590629 15.746345 9.9439925 15.792803 9.9322105 15.830559 C 10.172928 15.834759 10.43535 15.839257 10.720793 15.841927 C 11.071518 15.845227 11.42217 15.845727 11.693343 15.841927 C 11.820616 15.84005 11.927681 15.836641 12.009086 15.832626 C 11.507586 15.663293 11.17683 15.392999 10.972457 15.103471 C 10.63422 14.624289 10.63656 14.114902 10.63656 14.015682 C 10.63656 13.916463 10.634207 13.405014 10.972457 12.925826 C 11.121209 12.715099 11.336104 12.513965 11.635466 12.354802 C 11.450452 12.327785 11.284233 12.287964 11.150224 12.22096 C 11.024826 12.158261 10.96796 12.066525 10.90011 11.956893 C 10.832258 11.847262 10.766206 11.712934 10.701156 11.560535 C 10.571057 11.255737 10.445509 10.876947 10.343555 10.496 C 10.241601 10.115057 10.164605 9.7357031 10.1384 9.4237144 C 10.12533 9.2677203 10.123611 9.1287073 10.144601 9.0041018 C 10.16559 8.8794962 10.207502 8.7366784 10.359575 8.6640709 C 10.503519 8.5953397 10.678521 8.5641315 10.894426 8.5353965 C 11.110332 8.506662 11.362798 8.4875553 11.630815 8.4744183 C 12.166845 8.4481418 12.763775 8.4454796 13.22865 8.4454795 C 13.693529 8.4454795 14.292001 8.4481455 14.828036 8.4744183 C 15.096053 8.4875549 15.34852 8.5066618 15.564425 8.5353965 C 15.780331 8.5641316 15.953778 8.5953393 16.097726 8.6640709 C 16.249799 8.7366789 16.293343 8.879496 16.31425 9.0041018 C 16.33528 9.1287073 16.333561 9.2677203 16.320451 9.4237144 C 16.294238 9.7357031 16.21725 10.115057 16.115296 10.496 C 16.013343 10.876947 15.885728 11.255737 15.755628 11.560535 C 15.690579 11.712934 15.626591 11.847262 15.558741 11.956893 C 15.490889 12.066525 15.434024 12.15826 15.308627 12.22096 C 15.174497 12.288026 15.008082 12.327785 14.822868 12.354802 C 15.122566 12.513965 15.337642 12.7151 15.486394 12.925826 C 15.824626 13.405014 15.82229 13.916462 15.82229 14.015682 C 15.82229 14.114901 15.824638 14.624289 15.486394 15.103471 C 15.281935 15.39312 14.950637 15.663829 14.448214 15.833142 C 14.529423 15.837196 14.637093 15.840157 14.76344 15.841927 C 15.034633 15.845727 15.387332 15.845227 15.738058 15.841927 C 16.023315 15.839227 16.285524 15.834829 16.526123 15.830559 C 16.514343 15.792799 16.499271 15.746349 16.478581 15.685865 C 16.397971 15.450219 16.416522 15.121558 16.428972 14.941724 C 16.441382 14.761891 16.509539 14.017749 16.521989 13.912329 C 16.534389 13.806927 16.974676 12.703101 16.980876 12.517066 C 16.987076 12.33103 16.906456 12.169785 16.856853 12.076783 C 16.807253 11.983763 16.775722 11.822534 16.781922 11.630298 C 16.782136 11.623698 16.782704 11.616844 16.782955 11.610144 C 16.668684 11.377103 16.606924 11.324366 16.552995 11.154358 C 16.492315 10.963068 16.447793 10.701141 16.416053 10.320301 C 16.384183 9.9383368 16.382024 9.5957816 16.406234 9.3337974 C 16.418334 9.2028064 16.435536 9.0933765 16.466696 8.9979006 C 16.482276 8.9501626 16.500088 8.9048346 16.534908 8.8573407 C 16.569728 8.8098487 16.637213 8.7490952 16.732312 8.7400352 C 16.722252 8.7409927 16.716152 8.7411054 16.714226 8.7410687 C 16.717467 8.7393211 16.739356 8.7330085 16.761768 8.7188479 C 16.797638 8.6961869 16.845768 8.6600108 16.888892 8.6247968 C 16.89245 8.6218905 16.895722 8.6189121 16.899227 8.6160118 C 16.895184 8.5963195 16.892509 8.5738291 16.892509 8.5467654 C 16.892509 8.4185968 16.894594 7.6218298 16.89561 7.2233319 C 16.774952 7.1982661 16.683216 7.1850145 16.636711 7.174756 C 16.425871 7.1282488 16.466178 7.0786343 16.218132 6.8802004 C 16.046293 6.7427322 15.838961 6.6830064 15.698784 6.6714276 C 15.66605 6.747062 15.627791 6.8328194 15.581995 6.9298097 C 15.466609 7.1741703 15.30999 7.4629909 15.093653 7.7049562 C 14.85065 7.9767473 14.513154 8.0914426 14.181564 8.1405886 C 13.84997 8.1897342 13.512241 8.1777956 13.22865 8.1777956 C 12.945062 8.1777956 12.606814 8.1897342 12.27522 8.1405886 C 11.943625 8.0914426 11.606135 7.9767475 11.363131 7.7049562 C 11.14681 7.4630075 10.990236 7.1741625 10.874789 6.9298097 C 10.82898 6.8328553 10.792285 6.7470472 10.760067 6.6714276 C 10.758826 6.6715292 10.757702 6.6713184 10.75645 6.6714276 z M 17.31729 7.3375368 C 17.316195 7.7657703 17.314824 8.3679166 17.314706 8.5136924 C 17.327346 8.5335294 17.353553 8.568786 17.388603 8.6092938 C 17.458695 8.6903109 17.564167 8.7964373 17.683676 8.9100507 C 17.922691 9.1372774 18.219542 9.3948337 18.433501 9.578227 C 18.611003 9.7303721 18.916255 9.874141 19.171957 9.9689008 C 19.187965 9.9748333 19.201355 9.9788251 19.216915 9.9844037 C 19.169231 9.8291035 18.942565 9.479792 18.934245 9.4381838 C 18.924945 9.3916758 19.024155 9.3234599 19.055168 9.2521487 C 19.086178 9.1808347 19.076448 9.2298167 18.532719 8.2826988 C 18.226249 7.7487968 17.729911 7.4791921 17.31729 7.3375368 z M 9.1400108 7.3380536 C 8.727619 7.4798073 8.2318518 7.749265 7.9256146 8.2826988 C 7.3818964 9.229817 7.3721609 9.1808357 7.4031659 9.2521487 C 7.4341839 9.3234607 7.5333887 9.3916766 7.5240887 9.4381838 C 7.5157603 9.4798341 7.2887881 9.8298566 7.2414186 9.9849205 C 7.2571904 9.9792697 7.2706603 9.9749154 7.2868939 9.9689008 C 7.5426577 9.8741405 7.8478621 9.7303586 8.0253501 9.578227 C 8.2393082 9.3948339 8.5346085 9.1372772 8.7736249 8.9100507 C 8.8931331 8.7964374 8.9980851 8.6903109 9.0681806 8.6092938 C 9.1032263 8.5687861 9.1299516 8.5335294 9.1425946 8.5136924 C 9.144724 8.5103507 9.1436939 8.5111114 9.1446617 8.5085248 C 9.1444778 8.3579144 9.1416528 7.7710631 9.1400108 7.3380536 z M 13.22865 8.8692263 C 12.765134 8.8692263 12.172155 8.8710438 11.650452 8.8966148 C 11.389598 8.9094008 11.14634 8.9287722 10.949203 8.9550092 C 10.776708 8.9779665 10.641273 9.0107844 10.572482 9.0361412 C 10.569656 9.0433199 10.566013 9.0544892 10.562663 9.0743817 C 10.551563 9.1397096 10.549236 9.2513059 10.560596 9.3865074 C 10.583315 9.6569097 10.654409 10.023088 10.751799 10.386963 C 10.849185 10.750843 10.972754 11.115683 11.09183 11.394654 C 11.151368 11.534135 11.209438 11.652838 11.259778 11.734168 C 11.303826 11.805333 11.352225 11.844397 11.346078 11.844239 C 11.447293 11.890608 11.84851 11.957822 12.236463 11.984282 C 12.630714 12.011182 13.033936 12.017355 13.22865 12.017355 C 13.423363 12.017355 13.828649 12.011172 14.222905 11.984282 C 14.611427 11.957785 15.01282 11.890099 15.11329 11.843722 C 15.110825 11.841344 15.156506 11.802939 15.199073 11.734168 C 15.24941 11.652834 15.307481 11.534135 15.367021 11.394654 C 15.486096 11.115683 15.609662 10.750843 15.707052 10.386963 C 15.804439 10.023088 15.875535 9.6569097 15.898255 9.3865074 C 15.909565 9.2513059 15.9077 9.1397097 15.896705 9.0743817 C 15.893361 9.0545449 15.889712 9.04333 15.886886 9.0361412 C 15.817884 9.0107629 15.680456 8.9780172 15.507581 8.9550092 C 15.310443 8.9287722 15.067698 8.9093998 14.806849 8.8966148 C 14.28514 8.8710408 13.69217 8.8692263 13.22865 8.8692263 z M 9.3157107 8.9632774 C 9.2420428 9.043091 9.1606618 9.1276154 9.0666303 9.2170087 C 8.8167335 9.4545788 8.5165441 9.7136844 8.3007855 9.8986209 C 8.0485557 10.114817 7.7121878 10.262063 7.433655 10.365259 C 7.3860291 10.382904 7.3429527 10.396975 7.2992962 10.411768 C 7.1833639 10.708699 6.9616989 11.205018 6.8791668 11.493872 C 6.7551474 11.927954 6.1970337 13.168189 6.0110028 13.465845 C 5.9950318 13.491399 5.975673 13.522716 5.9567425 13.553178 C 6.0935976 13.612628 6.3171462 13.711705 6.5215659 13.820345 C 6.6632232 13.895635 6.8070526 13.974544 6.9256756 14.048755 C 6.9849888 14.08588 7.0378405 14.122239 7.0838055 14.158309 C 7.1297708 14.194382 7.1718477 14.212724 7.2150637 14.304554 C 7.2591067 14.398141 7.2368995 14.444678 7.2284995 14.484388 C 7.2201035 14.524096 7.2100066 14.558452 7.1954266 14.595492 C 7.1662668 14.669577 7.123709 14.752933 7.073987 14.847673 C 6.9745421 15.037162 6.8392173 15.269407 6.7013999 15.499829 C 6.5635824 15.730261 6.4241537 15.958623 6.3184775 16.134933 C 6.2656403 16.223087 6.2214525 16.297557 6.1913535 16.351457 C 6.1900614 16.353857 6.1905265 16.355458 6.1892865 16.357658 C 6.2046835 16.379698 6.2173114 16.400366 6.2419964 16.431556 C 6.3148808 16.523639 6.4199483 16.643994 6.5293174 16.765385 C 6.5317165 16.768048 6.5336319 16.770474 6.5360353 16.773137 C 6.8289087 16.446136 7.4877991 15.736913 7.5798993 15.586646 C 7.6977195 15.394409 9.3611869 11.548648 9.3901247 11.462866 C 9.4190637 11.377096 9.4894103 11.253607 9.5250002 11.1125 C 9.5605912 10.971393 9.5887813 10.648415 9.6190513 10.285161 C 9.6492353 9.9229818 9.6516979 9.5978734 9.6309369 9.3730715 C 9.6205559 9.2606705 9.6020405 9.1720436 9.5880455 9.1291588 C 9.5867855 9.1252788 9.586972 9.1235176 9.587012 9.1229576 C 9.5869256 9.1225873 9.5864548 9.1219634 9.5859784 9.1208905 C 9.5494749 9.1048052 9.502208 9.095811 9.47074 9.075932 C 9.416277 9.0415278 9.3636611 9.001931 9.3157107 8.9632774 z M 17.142107 8.9643109 C 17.094459 9.0026748 17.042149 9.041798 16.988111 9.075932 C 16.955991 9.096218 16.908861 9.1067146 16.871322 9.1229576 C 16.869622 9.1268576 16.871188 9.12337 16.869255 9.1291588 C 16.855255 9.1720438 16.838294 9.2606704 16.827914 9.3730715 C 16.807184 9.5978736 16.807572 9.9229821 16.837732 10.285161 C 16.868002 10.648439 16.887084 10.979566 16.933334 11.1125 C 16.979584 11.245434 17.03933 11.377106 17.068209 11.462866 C 17.097089 11.548636 18.76061 15.394409 18.878435 15.586646 C 18.970483 15.736829 19.628662 16.445375 19.921782 16.77262 C 19.92393 16.770238 19.925837 16.768284 19.927983 16.765902 C 20.037385 16.64451 20.143944 16.523638 20.216854 16.431556 C 20.241544 16.400366 20.254164 16.379688 20.269564 16.357658 C 20.268275 16.355358 20.268797 16.353757 20.267497 16.351457 C 20.237394 16.29756 20.193213 16.223083 20.140373 16.134933 C 20.034696 15.958623 19.893711 15.730261 19.755901 15.499829 C 19.618084 15.269405 19.482247 15.037162 19.382797 14.847673 C 19.333077 14.752929 19.292584 14.669572 19.263424 14.595492 C 19.248844 14.558454 19.236684 14.524098 19.228284 14.484388 C 19.219894 14.444679 19.200264 14.398136 19.244304 14.304554 C 19.287523 14.212719 19.329075 14.194379 19.375045 14.158309 C 19.421011 14.122234 19.473865 14.085885 19.533175 14.048755 C 19.651802 13.974503 19.795627 13.895635 19.937285 13.820345 C 20.141707 13.711703 20.364931 13.612628 20.501591 13.553178 C 20.482667 13.522716 20.463302 13.491399 20.447331 13.465845 C 20.261297 13.168189 19.703187 11.927954 19.579167 11.493872 C 19.496618 11.204962 19.274435 10.708679 19.158521 10.411768 C 19.115229 10.397056 19.072484 10.382784 19.025196 10.365259 C 18.746725 10.262062 18.41028 10.114804 18.158065 9.8986209 C 17.942306 9.7136844 17.642635 9.454579 17.392737 9.2170087 C 17.299026 9.1279198 17.216156 9.0438971 17.142107 8.9643109 z M 13.22865 12.441618 C 12.085069 12.441618 11.575234 12.805568 11.318172 13.169739 C 11.061117 13.53391 11.060307 13.916462 11.060307 14.015682 C 11.060307 14.1149 11.061117 14.495393 11.318172 14.859558 C 11.575234 15.223729 12.085069 15.589746 13.22865 15.589746 C 14.37223 15.589746 14.883622 15.223729 15.140678 14.859558 C 15.39774 14.495393 15.398544 14.114902 15.398544 14.015682 C 15.398544 13.916464 15.39774 13.53391 15.140678 13.169739 C 14.883622 12.805568 14.37223 12.441618 13.22865 12.441618 z M 5.7603721 13.876673 C 5.578186 14.185929 5.3772892 14.557616 5.3040691 14.817701 C 5.1924517 15.214558 5.0188197 15.661058 4.9195965 15.809888 C 4.8203735 15.958719 4.8389735 15.97122 4.7707683 15.97732 C 4.7025573 15.98342 4.5723265 15.96487 4.4793133 16.095142 C 4.3997236 16.206573 4.2616595 16.653493 4.2038779 16.908529 C 4.4215466 16.887359 4.6578846 16.87885 4.8674033 17.009815 C 5.0432165 17.119699 5.3173815 17.350089 5.5919069 17.580323 C 5.6995257 17.670579 5.8010722 17.754625 5.8973146 17.834054 C 5.9870829 17.750108 6.3331735 17.441699 6.4238975 17.276982 C 6.3551056 17.20233 6.2878755 17.129894 6.2146079 17.048572 C 6.1024125 16.924044 5.9941037 16.79953 5.9102337 16.693555 C 5.8682989 16.640571 5.8318997 16.593664 5.8027467 16.546794 C 5.7881697 16.523364 5.7757236 16.50026 5.7634726 16.47083 C 5.7512226 16.441404 5.7320024 16.408463 5.7443524 16.328203 C 5.7553384 16.256783 5.7653253 16.253227 5.7774253 16.228467 C 5.7895253 16.203707 5.8051978 16.177072 5.8223838 16.146302 C 5.8567553 16.084754 5.9014242 16.005535 5.9551922 15.915825 C 6.0627291 15.736411 6.2018788 15.509026 6.3381146 15.281238 C 6.4743495 15.05345 6.6074879 14.825274 6.6993329 14.650269 C 6.7397289 14.573295 6.7691788 14.514528 6.7892498 14.466818 C 6.7639178 14.448628 6.7387219 14.431783 6.7013999 14.408423 C 6.598043 14.343729 6.4588749 14.266149 6.3220949 14.193449 C 6.1480179 14.100927 5.9284252 13.974207 5.7603721 13.876673 z M 20.697962 13.876673 C 20.530096 13.974229 20.310698 14.101 20.136756 14.193449 C 19.999974 14.266148 19.861326 14.343733 19.757968 14.408423 C 19.720648 14.431783 19.695448 14.448618 19.670118 14.466818 C 19.690198 14.514526 19.717588 14.573339 19.757968 14.650269 C 19.849814 14.825274 19.982949 15.05345 20.119186 15.281238 C 20.255422 15.509026 20.396638 15.736411 20.504175 15.915825 C 20.557948 16.005532 20.602614 16.084752 20.636984 16.146302 C 20.654174 16.177072 20.667775 16.203707 20.679875 16.228467 C 20.691975 16.253227 20.704025 16.256783 20.715015 16.328203 C 20.727375 16.408481 20.707638 16.4414 20.695378 16.47083 C 20.683118 16.50026 20.669134 16.523364 20.654554 16.546794 C 20.625395 16.593658 20.591084 16.640565 20.549134 16.693555 C 20.465238 16.79953 20.354405 16.924562 20.242176 17.049089 C 20.16895 17.13034 20.102587 17.202383 20.034437 17.276982 C 20.125232 17.441838 20.47161 17.750934 20.561019 17.834571 C 20.657438 17.754998 20.759018 17.670816 20.866944 17.580323 C 21.141535 17.350086 21.416171 17.119685 21.591964 17.009815 C 21.80187 16.878607 22.036854 16.887266 22.254456 16.908529 C 22.196672 16.653493 22.058613 16.206573 21.979021 16.095142 C 21.886001 15.964867 21.755776 15.98342 21.687566 15.97732 C 21.619346 15.97112 21.637946 15.95872 21.538738 15.809888 C 21.439518 15.661059 21.26588 15.214558 21.154265 14.817701 C 21.081116 14.557616 20.880173 14.185931 20.697962 13.876673 z M 12.718604 16.190743 C 12.694174 16.190839 12.669917 16.190985 12.646257 16.19126 C 12.551627 16.19236 12.46359 16.195079 12.39666 16.201079 C 12.32973 16.207079 12.278053 16.223549 12.289173 16.218649 C 12.223023 16.247789 12.206653 16.242137 12.171867 16.246037 C 12.137087 16.250037 12.097317 16.253356 12.050944 16.255856 C 11.958204 16.260856 11.839762 16.263674 11.701095 16.265674 C 11.42376 16.269574 11.069231 16.268974 10.716659 16.265674 C 10.364069 16.262374 10.013715 16.255571 9.7441083 16.250171 C 9.6996623 16.249281 9.6737553 16.248487 9.6340375 16.247587 C 9.6331201 16.254887 9.6321337 16.261778 9.6314537 16.269808 C 9.6170827 16.438175 9.6029193 16.714131 9.6081993 16.863054 C 10.178477 16.864354 12.26625 16.876344 13.230717 16.879074 C 14.17678 16.881774 16.232662 16.878792 16.850135 16.879074 C 16.857035 16.7345 16.84184 16.444007 16.82688 16.269808 C 16.826192 16.261808 16.825196 16.254907 16.824296 16.247587 C 16.784756 16.248474 16.758986 16.249271 16.714742 16.250171 C 16.445146 16.255571 16.094785 16.262374 15.742192 16.265674 C 15.389598 16.268974 15.035091 16.269574 14.757756 16.265674 C 14.619088 16.263674 14.501163 16.260856 14.408423 16.255856 C 14.362053 16.253356 14.321773 16.249937 14.286984 16.246037 C 14.252194 16.242137 14.235814 16.247739 14.169678 16.218649 C 14.180798 16.223549 14.129638 16.207079 14.062708 16.201079 C 13.995778 16.194979 13.907224 16.19236 13.812594 16.19126 C 13.623338 16.18906 13.404532 16.195394 13.22865 16.195394 C 13.096738 16.195394 12.941691 16.191643 12.792501 16.190743 C 12.767631 16.190601 12.743034 16.190647 12.718604 16.190743 z M 9.6846804 17.287317 C 9.5962804 17.560107 9.4301318 18.218282 9.3947756 18.543571 C 9.3509326 18.946982 9.0877376 20.306363 9.0438926 20.665923 C 9.0000496 21.025466 8.7767202 24.08227 8.8015302 24.330298 C 8.8263342 24.578345 8.6674404 25.169327 9.0712812 25.097177 C 9.4751217 25.025027 12.10373 25.23466 12.20184 25.30595 C 12.24859 25.33992 12.399754 24.837213 12.549105 24.288441 C 12.276553 24.286941 11.915932 24.282737 11.525395 24.271387 C 11.158707 24.260687 10.786391 24.24421 10.486182 24.21661 C 10.336078 24.20281 10.203935 24.18515 10.095508 24.1639 C 10.041298 24.15327 9.9933797 24.1432 9.9471967 24.12721 C 9.9010137 24.11122 9.8553407 24.09765 9.7988853 24.04091 C 9.6993293 23.940858 9.6987333 23.869906 9.6717613 23.767542 C 9.6447883 23.665178 9.6212383 23.540085 9.5994143 23.398572 C 9.5557673 23.115564 9.5200943 22.76382 9.4981285 22.414136 C 9.4761605 22.064469 9.4682575 21.719401 9.4805585 21.445203 C 9.4867085 21.308105 9.4972565 21.190284 9.5177655 21.089669 C 9.5280215 21.039359 9.538746 20.993619 9.560657 20.945492 C 9.582568 20.897362 9.612432 20.832224 9.7048342 20.79098 C 9.7980332 20.74936 9.8464878 20.76621 9.8965538 20.77341 C 9.9466178 20.78061 9.9962093 20.794077 10.052617 20.810617 C 10.165423 20.843687 10.300018 20.892617 10.456726 20.955311 C 10.770143 21.080683 11.162672 21.257042 11.558468 21.441586 C 12.145433 21.715273 12.650637 21.964306 12.988872 22.133017 C 13.017262 21.806427 13.038379 21.486043 13.030729 21.384742 C 13.025539 21.316012 13.003642 21.246833 12.988872 21.184237 C 12.903602 21.050454 12.646067 20.64545 12.53722 20.464901 C 12.412173 20.25751 12.163848 19.828102 11.986349 19.316651 C 11.893429 19.048888 11.804098 18.649447 11.734168 18.285189 C 11.699198 18.103061 11.669465 17.931114 11.648385 17.792713 C 11.627305 17.654312 11.615312 17.566311 11.615312 17.484205 C 11.615312 17.406025 11.616496 17.373783 11.617896 17.296102 C 10.819836 17.292402 10.025556 17.288417 9.6846804 17.287317 z M 12.040092 17.298169 C 12.038792 17.361199 12.036992 17.426896 12.036992 17.484205 C 12.036992 17.484994 12.048464 17.597016 12.068514 17.728634 C 12.088564 17.860252 12.116163 18.027964 12.150163 18.205091 C 12.218173 18.559332 12.310331 18.95717 12.386841 19.177641 C 12.548216 19.642646 12.781652 20.049193 12.900505 20.24631 C 12.973115 20.366739 13.116021 20.592596 13.229684 20.771859 C 13.35187 20.579215 13.492069 20.357091 13.558863 20.24631 C 13.677715 20.049193 13.911164 19.642646 14.072526 19.177641 C 14.149036 18.95717 14.240678 18.559333 14.308688 18.205091 C 14.342688 18.027964 14.370813 17.860252 14.390853 17.728634 C 14.410953 17.597016 14.419792 17.484994 14.419792 17.484205 C 14.419792 17.411855 14.418508 17.37924 14.417208 17.303854 C 13.966469 17.303854 13.536262 17.303655 13.22865 17.30282 C 12.91881 17.301936 12.489367 17.300269 12.040092 17.298169 z M 16.778304 17.30282 C 16.404591 17.302811 15.62194 17.303629 14.840955 17.303854 C 14.842255 17.379474 14.843539 17.409244 14.843539 17.484205 C 14.843539 17.566315 14.829489 17.654312 14.808399 17.792713 C 14.787309 17.931114 14.757576 18.103061 14.722616 18.285189 C 14.652686 18.649447 14.565422 19.048888 14.472502 19.316651 C 14.295004 19.828103 14.047195 20.25751 13.922148 20.464901 C 13.812704 20.646417 13.552034 21.05565 13.468429 21.186821 C 13.453739 21.248711 13.432715 21.316951 13.427605 21.384742 C 13.419905 21.486043 13.441072 21.806427 13.469462 22.133017 C 13.807096 21.96432 14.311175 21.715326 14.898316 21.441586 C 15.294127 21.257042 15.686632 21.080683 16.000057 20.955311 C 16.156777 20.892621 16.293422 20.843687 16.406234 20.810617 C 16.462644 20.794077 16.512227 20.78061 16.562297 20.77341 C 16.612367 20.76621 16.658767 20.74936 16.751949 20.79098 C 16.844349 20.83222 16.874748 20.897362 16.896643 20.945492 C 16.918553 20.993622 16.931342 21.039362 16.941602 21.089669 C 16.962112 21.190284 16.972092 21.308105 16.978292 21.445203 C 16.990592 21.719401 16.982692 22.064468 16.960722 22.414136 C 16.938762 22.76382 16.903082 23.115563 16.859436 23.398572 C 16.837606 23.540085 16.814059 23.665178 16.787089 23.767542 C 16.760119 23.869906 16.757979 23.940857 16.658415 24.04091 C 16.601965 24.09766 16.557834 24.110703 16.511654 24.126693 C 16.465464 24.142683 16.417564 24.15327 16.363343 24.1639 C 16.25491 24.18515 16.122785 24.20281 15.972669 24.21661 C 15.672437 24.24421 15.298093 24.260687 14.931389 24.271387 C 14.54207 24.282737 14.181601 24.286951 13.909229 24.288441 C 14.05858 24.837215 14.209739 25.339924 14.256494 25.30595 C 14.354604 25.23465 16.983205 25.025027 17.387053 25.097177 C 17.790881 25.169327 17.631994 24.578345 17.656804 24.330298 C 17.681604 24.08227 17.458291 21.025466 17.414441 20.665923 C 17.370591 20.306363 17.107408 18.946982 17.063558 18.543571 C 17.028818 18.223956 16.867774 17.583867 16.778304 17.30282 z M 4.3082643 17.329692 C 4.2686709 17.329819 4.2282647 17.331853 4.1883749 17.33486 C 4.2077566 17.431755 4.2436745 17.509014 4.2932781 17.533814 C 4.3924951 17.583424 3.8345123 18.439185 3.7165691 18.656226 C 3.5987489 18.873267 3.3196906 19.245332 3.3010906 19.375562 C 3.2824906 19.505792 3.25143 20.510377 3.24528 20.770826 C 3.23907 21.031256 3.2824934 21.204904 3.3320964 21.235914 C 3.3817114 21.266924 3.4065084 21.471553 3.4933269 21.496363 C 3.5801419 21.521113 3.6917688 21.539725 3.7413738 21.508765 C 3.7910218 21.477755 3.7662261 21.242092 3.7537761 21.1615 C 3.7413711 21.08089 3.7785863 21.049908 3.7971843 21.087085 C 3.8157853 21.124305 3.8344023 21.223515 3.9770183 21.242115 C 4.1196965 21.260715 4.1258465 21.229671 4.1258465 21.167701 C 4.1258465 21.105691 3.9150543 20.386348 3.9026043 20.305738 C 3.8901993 20.225128 4.1692596 19.580201 4.4235027 19.425171 C 4.6777446 19.270169 4.708709 19.263937 4.721159 19.294947 C 4.733564 19.325957 4.7087576 19.468578 4.8141766 19.511988 C 4.919593 19.555398 5.0870316 19.592595 5.1490398 19.549195 C 5.2110518 19.505785 5.4466996 18.557013 5.4652996 18.426783 C 5.4827512 18.304692 5.4676853 18.133328 5.5474651 18.097087 C 5.4724187 18.033794 5.4017533 17.974122 5.3185385 17.904334 C 5.0454393 17.675296 4.7474277 17.432926 4.6426108 17.367416 C 4.6140028 17.349566 4.4686808 17.329178 4.3082643 17.329692 z M 22.149036 17.329692 C 21.988634 17.329165 21.843317 17.349521 21.81469 17.367416 C 21.70985 17.432941 21.411927 17.675292 21.138762 17.904334 C 21.055571 17.974088 20.985118 18.033819 20.910352 18.097087 C 20.990632 18.1329 20.975565 18.304469 20.993034 18.426783 C 21.011634 18.557008 21.247284 19.505785 21.309294 19.549195 C 21.371304 19.592595 21.538755 19.555398 21.644157 19.511988 C 21.749617 19.468578 21.724725 19.325957 21.737175 19.294947 C 21.749575 19.263947 21.780605 19.270157 22.034831 19.425171 C 22.289079 19.580201 22.56818 20.225128 22.55573 20.305738 C 22.54333 20.386358 22.332488 21.105691 22.332488 21.167701 C 22.332488 21.229671 22.338688 21.260715 22.481316 21.242115 C 22.623939 21.223515 22.64255 21.124295 22.66115 21.087085 C 22.67975 21.049895 22.717008 21.08088 22.704558 21.1615 C 22.692198 21.2421 22.66736 21.477755 22.71696 21.508765 C 22.76657 21.539725 22.878187 21.521173 22.965007 21.496363 C 23.051827 21.471563 23.076638 21.266924 23.126238 21.235914 C 23.175858 21.204904 23.219154 21.031256 23.213054 20.770826 C 23.206854 20.510377 23.175843 19.505792 23.157243 19.375562 C 23.138643 19.245337 22.85959 18.873267 22.741765 18.656226 C 22.623943 18.439185 22.065826 17.583424 22.165056 17.533814 C 22.214551 17.509052 22.250033 17.431521 22.269442 17.33486 C 22.229312 17.331812 22.188883 17.329823 22.149036 17.329692 z M 9.9275597 21.214726 C 9.9171517 21.277846 9.9070282 21.355934 9.9022382 21.462773 C 9.8910682 21.711758 9.8985282 22.049969 9.9198082 22.388815 C 9.9410932 22.727661 9.976655 23.069305 10.017477 23.333977 C 10.037887 23.466313 10.059225 23.579118 10.080005 23.657988 C 10.091805 23.702868 10.101876 23.724755 10.102226 23.730335 C 10.120136 23.736035 10.143194 23.743172 10.177674 23.749972 C 10.261504 23.766402 10.383535 23.781881 10.525456 23.794931 C 10.809297 23.821021 11.17687 23.837081 11.538831 23.847641 C 12.015348 23.861521 12.398828 23.864114 12.66176 23.864694 C 12.780506 23.410882 12.879411 23.011976 12.894304 22.959839 C 12.905854 22.919419 12.925093 22.772996 12.945463 22.584152 C 12.657834 22.439128 12.050713 22.136915 11.380701 21.824508 C 10.988687 21.641726 10.600238 21.467391 10.300664 21.347535 C 10.150869 21.287605 10.023287 21.243043 9.9337608 21.216793 C 9.9310308 21.215993 9.9302197 21.215526 9.9275597 21.214726 z M 16.531291 21.214726 C 16.528591 21.215526 16.528307 21.215993 16.525607 21.216793 C 16.436067 21.243043 16.307994 21.287603 16.158187 21.347535 C 15.858588 21.467392 15.470181 21.641224 15.07815 21.823991 C 14.407619 22.136609 13.800142 22.439813 13.512871 22.584669 C 13.533221 22.77324 13.55249 22.919453 13.56403 22.959839 C 13.57892 23.011969 13.677828 23.410882 13.796574 23.864694 C 14.060238 23.864113 14.444004 23.861491 14.92002 23.847641 C 15.282012 23.837091 15.649529 23.821031 15.933395 23.794931 C 16.075328 23.781881 16.197337 23.766402 16.281177 23.749972 C 16.314137 23.743472 16.336858 23.735945 16.354558 23.730335 C 16.355349 23.724135 16.365169 23.702048 16.376779 23.657988 C 16.397559 23.579118 16.420964 23.466313 16.441374 23.333977 C 16.482194 23.069305 16.517763 22.727661 16.539043 22.388815 C 16.560323 22.049969 16.567783 21.711758 16.556613 21.462773 C 16.551813 21.355934 16.541701 21.277846 16.531291 21.214726 z " />
      <path
         id="mirror-path-effect39543-2"
         style="fill:#ffffff;fill-opacity:1;stroke:none;stroke-width:0.42333334;stroke-linecap:butt;stroke-linejoin:miter;stroke-miterlimit:4;stroke-dasharray:none;stroke-opacity:1"
         d="M 13.22865 1.26969 C 12.943298 1.26969 12.679684 1.3011163 12.452987 1.4081828 C 12.22629 1.5152494 12.026524 1.6938137 11.857674 2.0427694 C 11.49149 2.7994158 11.476965 2.9765904 11.490255 3.4473349 C 11.504093 3.9355451 11.510136 4.7126717 11.968779 5.3924358 C 12.218285 5.762245 12.404212 6.0296153 12.585795 6.1892865 C 12.767381 6.3489573 12.933223 6.4182131 13.22865 6.4182131 C 13.524079 6.4182132 13.689401 6.3489574 13.870988 6.1892865 C 14.052574 6.0296153 14.240567 5.7622449 14.490072 5.3924358 C 14.948708 4.7126642 14.954806 3.9354994 14.968596 3.4473349 C 14.981938 2.9766098 14.967874 2.7994209 14.601693 2.0427694 C 14.432843 1.6938138 14.232561 1.5152494 14.005864 1.4081828 C 13.779168 1.3011163 13.514005 1.26969 13.22865 1.26969 z M 12.539287 2.0117636 C 12.592859 2.0101696 12.660641 2.0330667 12.703101 2.0686076 C 12.745571 2.1041481 12.765315 2.1407285 12.777515 2.1698934 C 12.801865 2.228223 12.803621 2.266777 12.808521 2.3047689 C 12.818351 2.3807527 12.825161 2.4532408 12.843661 2.5135417 C 12.862161 2.5738423 12.884711 2.6139413 12.931511 2.6484172 C 12.978314 2.6828922 13.061866 2.7186972 13.22865 2.7186972 C 13.395433 2.7186972 13.478473 2.6828932 13.525273 2.6484172 C 13.572073 2.6139417 13.59669 2.5738427 13.61519 2.5135417 C 13.63369 2.4532411 13.64053 2.3807529 13.65033 2.3047689 C 13.65524 2.2667774 13.657453 2.2282234 13.681853 2.1698934 C 13.694053 2.140728 13.71329 2.1041486 13.75575 2.0686076 C 13.798216 2.0330667 13.866511 2.0101636 13.920081 2.0117636 C 14.123758 2.0178276 14.345988 2.0976976 14.560352 2.1915975 L 14.390853 2.5781373 C 14.260596 2.5210798 14.151815 2.5001447 14.048755 2.4763347 C 14.041715 2.5288666 14.04008 2.5688077 14.0193 2.6365316 C 13.983362 2.7536715 13.911667 2.8911365 13.777454 2.9899984 C 13.64324 3.08886 13.45871 3.1424439 13.22865 3.1424439 C 12.998588 3.1424439 12.81561 3.0888603 12.681397 2.9899984 C 12.547183 2.8911366 12.475491 2.7536716 12.439551 2.6365316 C 12.418751 2.5688894 12.417096 2.5288306 12.410096 2.4763347 C 12.307037 2.5001452 12.198772 2.5210803 12.068514 2.5781373 L 11.898499 2.1915975 C 12.112863 2.0976981 12.335609 2.0178236 12.539287 2.0117636 z M 11.729517 3.0246217 C 11.732333 3.0245712 11.735215 3.024554 11.737785 3.0246217 C 11.742925 3.0247569 11.747488 3.0249144 11.751738 3.0251384 C 11.768728 3.0260384 11.780512 3.0289196 11.791012 3.0313396 C 11.812022 3.0361716 11.829766 3.0420896 11.847856 3.0489096 C 11.884043 3.0625416 11.924696 3.0795458 11.970846 3.1016195 C 12.063136 3.1457676 12.175829 3.206703 12.29124 3.269568 C 12.406651 3.3324321 12.523298 3.3980763 12.617318 3.4530193 C 12.711339 3.507962 12.773126 3.5417903 12.820406 3.5780763 C 12.909559 3.6465023 12.937432 3.7228392 12.972852 3.8085532 C 13.008272 3.8942671 13.042042 3.9724237 13.027112 4.0839885 C 13.016406 4.1642838 12.961399 4.2079799 12.923759 4.2302329 C 12.886124 4.2524856 12.850805 4.263184 12.814205 4.271574 C 12.741014 4.2883507 12.659495 4.292404 12.568225 4.289144 C 12.385691 4.2826276 12.172319 4.2439639 11.9941 4.1310141 C 11.763241 3.9847042 11.648785 3.7513361 11.595675 3.5548219 C 11.569125 3.4565648 11.557103 3.3666138 11.556401 3.2912721 C 11.556001 3.2536013 11.556969 3.2195378 11.564669 3.1837851 C 11.568509 3.1659081 11.573846 3.1465619 11.585856 3.1228069 C 11.597876 3.0990519 11.616919 3.0634078 11.671639 3.0390911 C 11.672509 3.0387031 11.707852 3.0266684 11.720732 3.0251384 C 11.723952 3.0247559 11.726701 3.0246721 11.729517 3.0246217 z M 14.720032 3.0246217 C 14.725661 3.0244864 14.731679 3.0243734 14.738119 3.0251384 C 14.750999 3.0266654 14.786339 3.0387035 14.787211 3.0390911 C 14.841941 3.0634079 14.860984 3.0990509 14.872994 3.1228069 C 14.884974 3.1465619 14.890898 3.1659081 14.894698 3.1837851 C 14.902346 3.2195377 14.902801 3.2536011 14.90245 3.2912721 C 14.90175 3.3666141 14.889736 3.4565651 14.863176 3.5548219 C 14.810064 3.7513364 14.695608 3.9847042 14.464751 4.1310141 C 14.286531 4.243964 14.073162 4.282624 13.890625 4.289144 C 13.799356 4.292402 13.717834 4.288351 13.644646 4.271574 C 13.608051 4.263185 13.572731 4.2524857 13.535091 4.2302329 C 13.497458 4.2079797 13.442439 4.1642835 13.431739 4.0839885 C 13.416799 3.9724235 13.449029 3.894267 13.484449 3.8085532 C 13.519866 3.7228389 13.549294 3.6465021 13.638444 3.5780763 C 13.685726 3.5417893 13.74803 3.5079621 13.84205 3.4530193 C 13.93607 3.3980762 14.050649 3.3324318 14.166061 3.269568 C 14.281472 3.2067036 14.396232 3.1457675 14.488522 3.1016195 C 14.534669 3.0795457 14.575332 3.0625426 14.611512 3.0489096 C 14.629602 3.0420936 14.646829 3.0361696 14.667839 3.0313396 C 14.678339 3.0289196 14.688056 3.0260345 14.705046 3.0251384 C 14.709291 3.0249144 14.714403 3.0247569 14.720032 3.0246217 z M 11.894365 3.4199464 C 11.898065 3.4388764 11.897233 3.4505263 11.902633 3.4705893 C 11.941875 3.6157857 12.025933 3.7757555 12.164116 3.8633302 C 12.266058 3.9279379 12.440347 3.9678942 12.580111 3.9728842 C 12.626696 3.9745542 12.656455 3.968396 12.689665 3.964616 C 12.685265 3.946711 12.687247 3.947407 12.679847 3.929476 C 12.659293 3.8797553 12.619165 3.8295461 12.622486 3.8276734 C 12.616564 3.8239914 12.543887 3.7770903 12.457121 3.7263876 C 12.366332 3.6733339 12.253288 3.6083091 12.140861 3.5470704 C 12.050635 3.4979246 11.969235 3.4572561 11.894365 3.4199464 z M 14.564486 3.4199464 C 14.489619 3.4572563 14.408736 3.4979246 14.318506 3.5470704 C 14.20608 3.6083089 14.093036 3.6733338 14.002246 3.7263876 C 13.915149 3.7772832 13.841766 3.8243238 13.836365 3.8276734 C 13.83969 3.8295462 13.800066 3.8797552 13.779521 3.929476 C 13.772121 3.94732 13.774002 3.94678 13.769702 3.964616 C 13.802907 3.968396 13.83215 3.9745442 13.87874 3.9728842 C 14.018504 3.9678948 14.192793 3.927938 14.294735 3.8633302 C 14.432917 3.7757553 14.517495 3.6157859 14.556735 3.4705893 C 14.562135 3.4505273 14.560786 3.4388764 14.564486 3.4199464 z " />
    </g>
  </g>
</svg>
