<?xml version="1.0" encoding="UTF-8" standalone="no"?>
<!-- Created with Inkscape (http://www.inkscape.org/) -->

<svg
   width="100"
   height="100"
   viewBox="0 0 26.458333 26.458334"
   version="1.1"
   id="svg5"
   inkscape:version="1.2.1 (9c6d41e410, 2022-07-14)"
   sodipodi:docname="iconu_bsuit (copie 1).svg"
   inkscape:export-filename="iconu_bsuit.png"
   inkscape:export-xdpi="96"
   inkscape:export-ydpi="96"
   xmlns:inkscape="http://www.inkscape.org/namespaces/inkscape"
   xmlns:sodipodi="http://sodipodi.sourceforge.net/DTD/sodipodi-0.dtd"
   xmlns="http://www.w3.org/2000/svg"
   xmlns:svg="http://www.w3.org/2000/svg">
  <sodipodi:namedview
     id="namedview7"
     pagecolor="#ffffff"
     bordercolor="#666666"
     borderopacity="1.0"
     inkscape:pageshadow="2"
     inkscape:pageopacity="0.0"
     inkscape:pagecheckerboard="0"
     inkscape:document-units="mm"
     showgrid="true"
     units="px"
     inkscape:zoom="8"
     inkscape:cx="35"
     inkscape:cy="52.9375"
     inkscape:window-width="1920"
     inkscape:window-height="1028"
     inkscape:window-x="0"
     inkscape:window-y="27"
     inkscape:window-maximized="1"
     inkscape:current-layer="layer1"
     inkscape:showpageshadow="0"
     inkscape:deskcolor="#d1d1d1"
     showguides="false">
    <inkscape:grid
       type="xygrid"
       id="grid1942" />
  </sodipodi:namedview>
  <defs
     id="defs2">
    <inkscape:path-effect
       effect="mirror_symmetry"
       start_point="22.489583,1.3229166"
       end_point="22.489583,6.6145833"
       center_point="22.489583,3.9687499"
       id="path-effect5216"
       is_visible="true"
       lpeversion="1.1"
       mode="free"
       discard_orig_path="false"
       fuse_paths="false"
       oposite_fuse="false"
       split_items="true"
       split_open="false" />
    <inkscape:path-effect
       effect="mirror_symmetry"
       start_point="13.229167,18.25625"
       end_point="13.229167,23.8125"
       center_point="13.229167,21.034375"
       id="path-effect2322"
       is_visible="true"
       lpeversion="1.1"
       mode="free"
       discard_orig_path="false"
       fuse_paths="false"
       oposite_fuse="false"
       split_items="true"
       split_open="false" />
    <inkscape:path-effect
       effect="mirror_symmetry"
       start_point="10.583333,0.52694874"
       end_point="10.583333,26.00396"
       center_point="10.583333,13.265455"
       id="path-effect2647"
       is_visible="true"
       lpeversion="1.1"
       mode="free"
       discard_orig_path="false"
       fuse_paths="false"
       oposite_fuse="false"
       split_items="true"
       split_open="false" />
    <inkscape:path-effect
       effect="mirror_symmetry"
       start_point="10.591468,0.62624476"
       end_point="10.513751,4.6593088"
       center_point="10.552609,2.6427768"
       id="path-effect1400"
       is_visible="true"
       lpeversion="1.1"
       mode="free"
       discard_orig_path="false"
       fuse_paths="false"
       oposite_fuse="false"
       split_items="false"
       split_open="false" />
  </defs>
  <g
     inkscape:label="Calque 1"
     inkscape:groupmode="layer"
     id="layer1">
    <path
       id="mirror-path-effect5216-6"
       style="fill:#fdfdfd;fill-opacity:1;stroke:none;stroke-width:0.331;stroke-linecap:butt;stroke-linejoin:miter;stroke-miterlimit:4;stroke-dasharray:none;stroke-opacity:1"
       d="M 19.575033 2.2241536 L 19.575033 6.1929036 C 19.575033 6.9866522 21.691699 8.838737 22.220866 8.838737 C 22.750031 8.838738 24.866699 6.9866522 24.866699 6.1929036 L 24.866699 2.2241536 L 19.575033 2.2241536 z M 20.474719 3.3884237 L 23.967013 3.3884237 L 23.967013 5.9278035 C 23.967013 6.1174211 23.866974 6.2880628 23.734469 6.4709229 C 23.601962 6.6537828 23.426109 6.8417051 23.241992 7.0155924 C 23.057876 7.1894799 22.866108 7.3467614 22.693188 7.4646606 C 22.606731 7.5236109 22.524956 7.5729567 22.449276 7.6093547 C 22.373597 7.6457525 22.306856 7.6739502 22.220866 7.6739502 C 22.134877 7.6739502 22.067619 7.6457525 21.991939 7.6093547 C 21.916261 7.5729568 21.836554 7.5236106 21.750094 7.4646606 C 21.577174 7.3467614 21.383339 7.1894799 21.199223 7.0155924 C 21.015106 6.8417051 20.841321 6.6537828 20.708813 6.4709229 C 20.576308 6.2880628 20.474719 6.1174211 20.474719 5.9278035 L 20.474719 3.5470703 L 20.474719 3.3884237 z M 20.793046 3.7052002 L 20.793046 5.9278035 C 20.793046 5.9763104 20.849073 6.1238938 20.964612 6.2833374 C 21.080151 6.4427811 21.244743 6.6216601 21.417814 6.7851156 C 21.590885 6.948571 21.773359 7.0978358 21.927861 7.2031779 C 22.00511 7.2558488 22.076403 7.2978671 22.130949 7.3241007 C 22.185489 7.3503337 22.227466 7.3571737 22.220866 7.3571737 C 22.214256 7.3571737 22.257783 7.3503347 22.312333 7.3241007 C 22.366879 7.2978672 22.436621 7.2558487 22.513871 7.2031779 C 22.668373 7.0978358 22.852397 6.948571 23.025468 6.7851156 C 23.198538 6.6216601 23.361064 6.4427811 23.476603 6.2833374 C 23.592142 6.1238938 23.650236 5.9763105 23.650236 5.9278035 L 23.650236 3.7052002 L 20.793046 3.7052002 z M 22.220866 3.8287069 A 0.13230485 0.13230485 0 0 1 22.343339 3.9108724 L 22.685437 4.7444132 L 23.519495 5.0865112 A 0.13230485 0.13230485 0 0 1 23.519495 5.3314575 L 22.685437 5.6740723 L 22.343339 6.5076131 A 0.13230485 0.13230485 0 0 1 22.098393 6.5076131 L 21.756295 5.6740723 L 20.922237 5.3314575 A 0.13230485 0.13230485 0 0 1 20.922237 5.0865112 L 21.756295 4.7444132 L 22.098393 3.9108724 A 0.13230485 0.13230485 0 0 1 22.220866 3.8287069 z M 22.220866 4.3092977 L 21.980054 4.896342 A 0.13230485 0.13230485 0 0 1 21.907707 4.9681722 L 21.320662 5.2095011 L 21.907707 5.4503133 A 0.13230485 0.13230485 0 0 1 21.980054 5.5221436 L 22.220866 6.1091878 L 22.462195 5.5221436 A 0.13230485 0.13230485 0 0 1 22.534025 5.4503133 L 23.121069 5.2095011 L 22.534025 4.9681722 A 0.13230485 0.13230485 0 0 1 22.462195 4.896342 L 22.220866 4.3092977 z " />
    <g
       id="g5922"
       style="fill:#fdfdfd;fill-opacity:1"
       transform="translate(-1.5875,0.09631358)">
      <path
         id="path3351"
         style="fill:#fdfdfd;fill-opacity:1;stroke:none;stroke-width:0.3175;stroke-linecap:butt;stroke-linejoin:miter;stroke-miterlimit:4;stroke-dasharray:none;stroke-opacity:1"
         d="m 11.349178,4.4860311 c 2.23e-4,0.00614 2.89e-4,0.017758 5.17e-4,0.023771 0.0126,0.3331086 0.05752,0.4897694 0.03876,0.4552694 0.01457,0.026785 0.273616,0.4600061 0.627352,0.8474935 0.353736,0.3874874 0.812101,0.7286377 1.212846,0.7286377 0.400744,0 0.859111,-0.3411503 1.212846,-0.7286377 0.353734,-0.3874874 0.612255,-0.8206915 0.626835,-0.8474935 -0.01877,0.034503 0.02667,-0.1221601 0.03927,-0.4552694 2.27e-4,-0.00601 2.92e-4,-0.01763 5.17e-4,-0.023771 h -0.877983 c -0.366556,0.070938 -0.727004,0.1018026 -1.001489,0.1018026 -0.274556,0 -0.634377,-0.030825 -1.000456,-0.1018026 z m -0.422196,0.024805 c -0.232007,0.040105 -0.573449,0.1449751 -0.681096,0.4196126 -0.01104,0.2514304 -0.02136,0.5048215 -0.04858,1.063501 -0.03809,0.7818307 -0.08315,1.629507 -0.119372,1.9554362 -0.001,0.00928 -0.0017,0.019223 -0.0026,0.028939 0.06708,-0.00936 0.145579,-0.016687 0.239262,-0.01912 0.146674,-0.00381 0.397589,-0.015247 0.621151,-0.03514 0.111776,-0.00995 0.217035,-0.023495 0.294555,-0.037207 0.03252,-0.00575 0.06105,-0.015826 0.08165,-0.023254 0.0071,-0.018455 0.02495,-0.054542 0.04547,-0.1116211 0.03729,-0.1037148 0.119579,-0.2663943 0.296623,-0.3436483 0.110857,-0.048376 0.212649,-0.051857 0.334347,-0.054777 0.121694,-0.00292 0.257861,0.00356 0.402042,0.011886 0.288363,0.01665 0.605779,0.044958 0.838192,0.044958 0.232413,0 0.55138,-0.028309 0.839742,-0.044958 0.144182,-0.00833 0.280345,-0.014806 0.402043,-0.011886 0.121694,0.00292 0.223488,0.0064 0.334346,0.054777 0.177042,0.077255 0.259333,0.2399347 0.296623,0.3436483 0.02026,0.056384 0.03813,0.092402 0.04547,0.1111043 0.0206,0.00744 0.0489,0.017978 0.08165,0.023771 0.07752,0.013712 0.181224,0.027257 0.293005,0.037207 0.223563,0.019893 0.476543,0.03133 0.623218,0.03514 0.09267,0.00241 0.170053,0.00939 0.236678,0.018604 -8.74e-4,-0.00954 -0.0016,-0.019305 -0.0026,-0.028422 C 16.342625,7.623455 16.298069,6.775781 16.259989,5.9939494 16.239723,5.5779646 16.223354,5.2061131 16.211414,4.9278646 16.102677,4.6554226 15.76311,4.5509037 15.531868,4.5108358 c -1.39e-4,0.00377 -3.75e-4,0.010739 -5.16e-4,0.014469 -0.01301,0.3438749 -0.0039,0.4847769 -0.08992,0.6428548 -0.05263,0.096772 -0.299582,0.5049495 -0.687297,0.929659 -0.387714,0.4247096 -0.908159,0.8671305 -1.525488,0.8671305 -0.61733,0 -1.137773,-0.442421 -1.525488,-0.8671305 -0.387716,-0.4247094 -0.633107,-0.8328671 -0.685747,-0.929659 -0.08594,-0.1580742 -0.07691,-0.2989791 -0.08992,-0.6428548 -1.41e-4,-0.00373 -3.77e-4,-0.010696 -5.16e-4,-0.014469 z M 7.286377,5.3071696 C 7.0889563,5.3079418 6.9190066,5.3636112 6.8026855,5.501473 6.2300298,6.1801762 6.0815297,6.710354 6.0921346,7.5375244 c 0.010607,0.8271705 0.4985441,1.8981909 0.6258016,2.0360514 0.0029,0.00314 0.00563,0.0065 0.00827,0.00982 0.1166628,7.311e-4 0.2443822,7.901e-4 0.3829224,-0.00155 0.1953386,-0.0033 0.397767,-0.010288 0.5606893,-0.025322 0.1261135,-0.011637 0.2393342,-0.041105 0.2749186,-0.048576 0.00458,-0.011877 0.035864,-0.05405 0.057361,-0.1291911 C 8.0325695,9.2722354 8.058427,9.119958 8.080127,8.955009 8.1235277,8.6251107 8.1477941,8.2520436 8.2206868,7.9824585 8.379939,7.3934771 8.7807011,6.5472394 9.0562948,5.9996338 8.6474239,5.7538813 7.8537843,5.3049502 7.286377,5.3071696 Z m 11.885579,0 c -0.567508,-0.00222 -1.361114,0.4472579 -1.769917,0.692981 0.276153,0.5476276 0.676941,1.3935809 0.836124,1.9823079 0.07289,0.2695848 0.09716,0.6426524 0.14056,0.9725505 0.02171,0.1649489 0.04808,0.3172263 0.07855,0.4237467 0.02156,0.075363 0.05196,0.1174673 0.05581,0.1291911 0.03683,0.00769 0.150593,0.037009 0.275952,0.048576 0.162924,0.015033 0.365353,0.022022 0.560689,0.025322 0.138629,0.00234 0.266526,0.00228 0.382923,0.00155 0.0026,-0.00332 0.0054,-0.00668 0.0083,-0.00982 0.127261,-0.1378605 0.614678,-1.208881 0.625285,-2.0360514 C 20.376845,6.710354 20.228296,6.1801762 19.655648,5.501473 19.539325,5.3636112 19.369378,5.3079418 19.171956,5.3071696 Z M 9.7782145,5.9128174 C 9.6811532,5.9735497 9.5767657,6.0372844 9.4914103,6.0843831 9.2209129,6.621917 8.7782213,7.5414223 8.6289307,8.0935628 8.5779363,8.28216 8.5458648,8.6651746 8.5002563,9.011853 8.4774523,9.1851924 8.449833,9.350787 8.4082723,9.4960612 8.3667117,9.6413353 8.3258719,9.7827505 8.1659098,9.8748494 8.0217364,9.957859 7.8901833,9.962015 7.7090902,9.9787191 7.5279971,9.9954281 7.3188783,10.002708 7.117395,10.006108 c -0.1502687,0.0025 -0.2886732,0.0024 -0.4123779,0.0015 -0.028513,0.06967 -0.062657,0.134838 -0.093534,0.186035 -0.1007448,0.167027 -0.3801834,0.941333 -0.4139282,1.050065 -0.0049,0.01577 -0.01014,0.02962 -0.014986,0.04289 0.251789,0.09355 0.5679019,0.210965 0.6102986,0.226859 0.1074911,0.04032 0.1232696,0.102283 0.1390096,0.136943 0.01574,0.03466 0.023996,0.06317 0.031006,0.09198 0.014014,0.05761 0.022357,0.11707 0.031006,0.1757 0.00865,0.05863 0.016531,0.114675 0.023771,0.153995 6.9e-4,0.0038 0.00138,0.0049 0.00207,0.0083 0.010607,0.0074 0.018801,0.01395 0.033073,0.02325 0.046424,0.03038 0.1086745,0.06832 0.1715657,0.10542 0.062892,0.0371 0.126622,0.07259 0.177767,0.09974 0.031841,0.01689 0.033324,0.01902 0.047026,0.02532 0.00204,-8e-4 0.00196,-0.0012 0.00413,-0.0021 0.035274,-0.01384 0.085431,-0.03853 0.1384929,-0.0646 0.053061,-0.02607 0.1075699,-0.05329 0.1581299,-0.07596 0.025279,-0.01134 0.049317,-0.02232 0.078031,-0.03152 0.028714,-0.0092 0.049217,-0.03636 0.1565796,-0.0057 0.040178,0.01148 0.043162,0.01431 0.07028,0.02532 0.027117,0.01101 0.06184,0.02628 0.1012858,0.04289 0.078891,0.03323 0.1778002,0.0753 0.2754354,0.117305 0.1184964,0.05098 0.1603895,0.06914 0.2335775,0.100769 0.1235204,-0.186754 0.3950739,-0.636773 0.4237467,-0.679028 0.03562,-0.05249 0.1908079,-0.613195 0.2020549,-0.626318 0.01129,-0.01312 0.073238,0.01309 0.076998,0.02997 0.0037,0.01687 -0.075685,0.31407 -0.098185,0.413411 -0.0225,0.09936 -0.063123,0.482421 -0.053743,0.540536 0.0094,0.05812 0.052569,0.187815 0.1519287,0.225309 0.099358,0.03749 0.1198111,0.0092 0.1291911,0.03359 0.0094,0.02437 0.026938,0.0617 0.024288,0.08423 -0.0027,0.02254 -0.045245,0.03552 -0.043925,0.07131 0.0013,0.03579 0.096882,0.35805 0.1379761,0.452169 0.00629,0.0144 0.011161,0.02655 0.015503,0.03772 0.097009,-0.123546 0.1937863,-0.250155 0.2361613,-0.318326 0.094941,-0.152733 0.4071733,-0.851437 0.5234823,-1.158069 0.04246,-0.111941 0.06921,-0.333849 0.07441,-0.515731 0.0025,-0.08843 0.0016,-0.166803 0,-0.224792 C 10.230003,10.538774 10.046405,10.268937 9.9353109,10.054683 9.8824064,9.9526569 9.8548291,9.8367384 9.8185221,9.6758952 9.7822153,9.5150512 9.7461649,9.3200707 9.7167196,9.1131388 9.6578262,8.6992748 9.6203012,8.2445706 9.6583252,7.90236 9.6896007,7.6208898 9.7376267,6.7549538 9.7756307,5.9748291 c 0.00114,-0.023342 0.00146,-0.038819 0.00258,-0.062012 z m 6.9029375,5.167e-4 c 0.0015,0.031964 10e-4,0.029233 0.0026,0.061495 0.038,0.7801255 0.08551,1.6460614 0.116789,1.9275309 0.03803,0.3422102 4.9e-4,0.7969145 -0.05839,1.2107788 -0.02944,0.2069321 -0.06498,0.4019123 -0.101286,0.5627564 -0.03631,0.1608434 -0.06441,0.276761 -0.117306,0.3787878 -0.111019,0.214107 -0.294456,0.483755 -0.529683,0.751376 -0.0016,0.05804 -0.0025,0.136653 0,0.225309 0.0052,0.181882 0.02989,0.40379 0.07235,0.515731 0.116309,0.306633 0.430609,1.005335 0.525549,1.158069 0.04232,0.06807 0.139317,0.194439 0.236161,0.31781 0.0043,-0.01101 0.0088,-0.02309 0.01499,-0.03721 0.0411,-0.09412 0.136655,-0.416378 0.137976,-0.452169 0.0013,-0.03579 -0.04128,-0.04878 -0.04392,-0.07131 -0.0027,-0.02254 0.01491,-0.05986 0.02429,-0.08423 0.0094,-0.02437 0.02984,0.0039 0.129191,-0.03359 0.09936,-0.03749 0.142552,-0.167193 0.151928,-0.225309 0.0094,-0.05812 -0.03124,-0.441176 -0.05374,-0.540536 -0.0225,-0.09934 -0.10193,-0.396538 -0.09818,-0.413411 0.0037,-0.01687 0.06575,-0.04309 0.077,-0.02997 0.01129,0.01312 0.166435,0.573825 0.202054,0.626318 0.02867,0.04225 0.300225,0.492273 0.423747,0.679028 0.07264,-0.03163 0.113658,-0.04984 0.232027,-0.100769 0.09764,-0.04201 0.198613,-0.08408 0.277503,-0.117305 0.03945,-0.01661 0.07262,-0.03188 0.09974,-0.04289 0.02712,-0.01101 0.03164,-0.01384 0.07183,-0.02532 0.107351,-0.03064 0.127869,-0.0035 0.156579,0.0057 0.02871,0.0092 0.05069,0.02018 0.07596,0.03152 0.05056,0.02267 0.10507,0.04989 0.15813,0.07596 0.05307,0.02607 0.10529,0.05076 0.14056,0.0646 0.001,3.62e-4 0.0012,-3.46e-4 0.0021,0 0.01417,-0.0065 0.01572,-0.0066 0.04703,-0.02326 0.05115,-0.02715 0.116944,-0.06264 0.179834,-0.09974 0.06289,-0.0371 0.123079,-0.07505 0.169499,-0.10542 0.01484,-0.0097 0.02482,-0.01627 0.03566,-0.02377 7e-4,-0.0034 8.6e-4,-0.004 0.0016,-0.0078 0.0072,-0.03932 0.01517,-0.09537 0.02377,-0.153995 0.0086,-0.05863 0.017,-0.11809 0.03101,-0.1757 0.007,-0.02881 0.01371,-0.05732 0.02945,-0.09198 0.01574,-0.03466 0.03307,-0.09662 0.14056,-0.136943 0.04243,-0.01591 0.358602,-0.133324 0.609782,-0.226859 -0.0048,-0.01327 -0.01011,-0.02712 -0.01499,-0.04289 -0.03375,-0.108734 -0.3132,-0.883038 -0.413928,-1.050065 -0.03088,-0.0512 -0.06509,-0.116367 -0.09353,-0.186035 -0.123536,8.63e-4 -0.261393,9.8e-4 -0.411344,-0.0015 -0.201485,-0.0034 -0.411118,-0.01068 -0.592212,-0.027389 C 18.568666,9.9620095 18.435047,9.9578584 18.290873,9.8748494 18.130908,9.7827503 18.092138,9.6413353 18.050578,9.4960612 18.009018,9.350787 17.981907,9.1851924 17.959111,9.011853 17.913505,8.6651749 17.880909,8.2821598 17.829919,8.0935628 17.680592,7.5412778 17.236944,6.6213346 16.965889,6.0838664 16.881063,6.0369758 16.777403,5.9735922 16.681152,5.9133341 Z m -4.602819,1.8634522 c -0.0284,-1.791e-4 -0.05504,-8.32e-5 -0.0801,5.168e-4 -0.100258,0.0024 -0.17745,0.021087 -0.17415,0.019637 -0.03804,0.016603 -0.04293,0.029424 -0.06821,0.099736 -0.02528,0.070311 -0.03053,0.2004273 -0.177767,0.3121257 -0.108214,0.082092 -0.175399,0.07879 -0.273369,0.096118 -0.09797,0.01733 -0.21126,0.030239 -0.330212,0.040824 -0.237903,0.021169 -0.495639,0.03113 -0.65009,0.03514 -0.116913,0.00304 -0.194878,0.015626 -0.251147,0.027389 0.01046,0.2064045 0.03335,0.4341215 0.06356,0.6464722 0.028,0.1967817 0.06044,0.3825841 0.09353,0.5291666 0.03309,0.1465832 0.0741,0.2638544 0.0801,0.2754354 0.185985,0.358686 0.72941,1.040665 1.314648,1.384929 0.245743,0.144554 0.974148,0.38654 1.60352,0.38654 0.629372,0 1.359846,-0.241987 1.605587,-0.38654 0.58524,-0.344263 1.126077,-1.026242 1.312064,-1.384929 0.006,-0.011581 0.04908,-0.1288521 0.08217,-0.2754354 0.03309,-0.1465828 0.06605,-0.3323846 0.09405,-0.5291666 0.03024,-0.2125329 0.05278,-0.4404444 0.06253,-0.646989 C 16.328367,8.396028 16.249382,8.38391 16.132866,8.380884 15.978421,8.376874 15.722231,8.366913 15.484327,8.345744 15.365375,8.335159 15.252085,8.322249 15.154115,8.30492 15.056145,8.287592 14.988963,8.290898 14.880746,8.208802 14.733517,8.0971059 14.728255,7.9669888 14.70298,7.8966763 14.6777,7.8263653 14.67282,7.8135443 14.63477,7.7969403 c 0.0033,0.00145 -0.07338,-0.017237 -0.173633,-0.019637 -0.100254,-0.0024 -0.230109,0.00177 -0.369487,0.00982 -0.278752,0.016096 -0.598649,0.044959 -0.862996,0.044958 -0.264348,0 -0.582694,-0.028862 -0.861446,-0.044958 -0.104534,-0.00604 -0.203671,-0.0098 -0.288871,-0.010335 z m -1.199927,3.4437177 c -0.0109,0.158127 -0.0344,0.326508 -0.09147,0.476973 -0.127018,0.334906 -0.400707,0.975444 -0.560172,1.231966 -0.110888,0.178393 -0.3007858,0.411626 -0.421163,0.556556 0.024428,0.200368 0.055274,0.5506 0.1095541,0.632002 0.063628,0.09544 0.1220179,0.111362 0.1803509,0.121957 0.05832,0.01065 0.04782,0.439968 0.01602,0.492993 -0.03182,0.05302 -0.1593893,0.02632 -0.1912033,0.04754 -0.03182,0.02121 -0.2864218,0.583382 -0.2811198,0.747758 0.0053,0.164377 0.079824,0.180284 0.090434,0.243913 0.00274,0.01638 -0.01743,0.08066 -0.048576,0.167948 0.1718538,0.138326 0.4024851,0.326357 0.6469891,0.534335 0.495111,0.421144 1.035638,0.89869 1.281575,1.250053 0.01135,0.0162 0.02272,0.03326 0.03411,0.04961 0.05086,0.05192 0.114574,0.113698 0.19792,0.188619 0.285263,0.256375 0.461961,0.31096 0.705384,0.412378 0.16257,0.06774 0.405242,0.04289 0.681612,0.04289 0.276369,0 0.519042,0.02485 0.681612,-0.04289 0.243429,-0.101425 0.421671,-0.156004 0.706934,-0.412378 0.08444,-0.07589 0.148514,-0.13839 0.199471,-0.190686 0.01094,-0.01571 0.02216,-0.03198 0.03307,-0.04754 0.245938,-0.351364 0.785945,-0.828909 1.281058,-1.250053 0.244147,-0.207672 0.474694,-0.395546 0.646473,-0.533818 -0.03123,-0.0875 -0.05131,-0.152059 -0.04858,-0.168465 0.01065,-0.06363 0.08512,-0.07953 0.09043,-0.243913 0.0053,-0.164375 -0.249304,-0.726544 -0.281119,-0.747758 -0.03182,-0.02121 -0.159388,0.0055 -0.191203,-0.04754 -0.03182,-0.05302 -0.0423,-0.482347 0.01602,-0.492993 0.0583,-0.01065 0.11672,-0.02652 0.18035,-0.121957 0.05431,-0.08146 0.08511,-0.432222 0.109554,-0.632519 -0.120529,-0.145136 -0.309406,-0.377929 -0.420129,-0.556039 -0.159464,-0.256522 -0.43367,-0.89706 -0.560689,-1.231966 -0.05707,-0.150465 -0.08152,-0.318846 -0.09302,-0.476973 -0.164787,0.144059 -0.34319,0.277902 -0.532267,0.389123 -0.360172,0.211866 -1.089933,0.444934 -1.817977,0.444934 -0.728044,-10e-7 -1.458321,-0.233069 -1.818494,-0.444934 -0.189076,-0.111221 -0.367176,-0.245064 -0.53175,-0.389123 z m -4.6679324,0.528133 c -0.136714,0.241616 -0.3414268,0.580391 -0.3834391,0.597896 -0.063627,0.02651 -0.1855858,-0.02656 -0.2439128,0.04237 -0.058325,0.06893 -0.89605,2.322586 -1.039213,2.577104 -0.1431648,0.254501 -0.2493276,0.387417 -0.2599325,0.413928 -0.010607,0.02651 -0.09807,0.0069 -0.1674316,0.09302 -0.047003,0.05843 -0.099142,0.177278 -0.1260905,0.268201 0.047072,-0.02374 0.094865,-0.04664 0.1405599,-0.06718 0.079899,-0.03592 0.1449754,-0.06591 0.2320272,-0.0801 0.1191492,-0.01937 0.2630722,-0.01735 0.416512,0.0021 0.153441,0.01942 0.3119296,0.05162 0.4511353,0.14056 0.101177,0.06467 0.1824129,0.129049 0.2439127,0.185519 0.03591,0.03297 0.057224,0.07151 0.082166,0.101802 0.00714,0.0011 0.017198,0.0044 0.056327,0.0057 0.071061,0.0024 0.1237561,0.01524 0.2015381,0.03152 0.077781,0.01628 0.1678424,0.03582 0.2537312,0.05633 0.00759,0.0018 0.01264,0.0034 0.020154,0.0052 0.040756,-0.153466 0.2183117,-0.361237 0.3787882,-0.497644 0.1874672,-0.159351 1.1867536,-1.242769 1.3554728,-1.559595 0.1687222,-0.316806 0.2365087,-0.343315 0.2046387,-0.4408 -0.022591,-0.0691 0.1643312,-0.578002 0.2826701,-0.876432 -0.022221,-0.0096 -0.021728,-0.0099 -0.044442,-0.01964 -0.097103,-0.04178 -0.1963651,-0.08488 -0.2733683,-0.117305 -0.029994,-0.01263 -0.052667,-0.02211 -0.074414,-0.03101 -0.035554,0.01614 -0.084943,0.0419 -0.1384929,0.06821 -0.05567,0.02736 -0.1136223,0.05508 -0.1720825,0.07803 -0.029231,0.01148 -0.059265,0.02156 -0.093534,0.02946 -0.034271,0.0079 -0.072569,0.02024 -0.1467611,0 -0.076388,-0.02083 -0.10252,-0.04091 -0.1617472,-0.07235 -0.059228,-0.03144 -0.127937,-0.06928 -0.195337,-0.109038 -0.067399,-0.03976 -0.1330112,-0.0816 -0.1875854,-0.117305 -0.027288,-0.01785 -0.052608,-0.03465 -0.074414,-0.05064 -0.021805,-0.016 -0.036162,-0.02118 -0.07028,-0.06098 -0.049114,-0.05729 -0.050124,-0.08691 -0.058394,-0.115239 -0.00828,-0.02833 -0.01252,-0.05421 -0.01757,-0.08165 -0.010103,-0.05487 -0.019169,-0.112218 -0.027388,-0.167948 -0.00614,-0.04161 -0.01173,-0.07417 -0.01757,-0.10387 -0.075239,-0.02812 -0.189018,-0.06985 -0.3462321,-0.128157 z m 14.0368694,0 c -0.156735,0.05828 -0.269911,0.100018 -0.345199,0.128157 -0.0058,0.02971 -0.01354,0.06223 -0.01964,0.10387 -0.0082,0.05573 -0.01522,0.113077 -0.02532,0.167948 -0.005,0.02744 -0.01134,0.05331 -0.01964,0.08165 -0.0083,0.02833 -0.0072,0.05795 -0.05633,0.115239 -0.03412,0.03981 -0.04847,0.04499 -0.07028,0.06098 -0.02181,0.01599 -0.04713,0.03279 -0.07441,0.05064 -0.05457,0.03571 -0.120186,0.07754 -0.187586,0.117305 -0.0674,0.03976 -0.136107,0.0776 -0.195337,0.109038 -0.05923,0.03143 -0.08742,0.05152 -0.163814,0.07235 -0.0742,0.02024 -0.112491,0.0079 -0.146761,0 -0.03427,-0.0079 -0.06224,-0.01799 -0.09147,-0.02946 -0.05845,-0.02295 -0.116412,-0.05067 -0.172082,-0.07803 -0.05355,-0.02631 -0.102943,-0.05207 -0.138493,-0.06821 -0.02175,0.0089 -0.04442,0.01838 -0.07441,0.03101 -0.077,0.03243 -0.176268,0.07553 -0.273368,0.117305 -0.02294,0.0099 -0.02253,0.0099 -0.04496,0.01964 0.118339,0.29843 0.305261,0.807333 0.28267,0.876432 -0.03187,0.09749 0.03592,0.123996 0.204639,0.4408 0.168723,0.316825 1.168003,1.400244 1.355473,1.559595 0.16048,0.136407 0.338032,0.344178 0.378788,0.497644 0.0077,-0.0019 0.01289,-0.0033 0.02067,-0.0052 0.08589,-0.02051 0.176468,-0.04056 0.254248,-0.05684 0.07778,-0.01628 0.127894,-0.0286 0.198954,-0.031 0.0394,-0.0014 0.05201,-0.0051 0.05891,-0.0062 0.02494,-0.03028 0.04574,-0.06832 0.08165,-0.101285 0.0615,-0.05647 0.14325,-0.120849 0.244429,-0.185519 0.139206,-0.08894 0.295627,-0.12114 0.449069,-0.14056 0.15343,-0.01947 0.296845,-0.02149 0.415995,-0.0021 v -5.17e-4 c 0.08705,0.0142 0.154711,0.04418 0.234611,0.0801 0.04593,0.02064 0.09277,0.04382 0.139526,0.0677 -0.02695,-0.09092 -0.07909,-0.209768 -0.12609,-0.268201 -0.06936,-0.08618 -0.156825,-0.06651 -0.167432,-0.09302 -0.01065,-0.02651 -0.116784,-0.159427 -0.259932,-0.413928 -0.143167,-0.254518 -0.980886,-2.508172 -1.039213,-2.577104 -0.05832,-0.06893 -0.180284,-0.01587 -0.243913,-0.04237 -0.04201,-0.0175 -0.247088,-0.356279 -0.383956,-0.597896 z m -9.84126,1.5012 c 0,0 0.06914,0.03673 0.115239,0.08992 0.0461,0.05324 0.09117,0.13296 0.119372,0.238229 0.03022,0.112779 0.05203,0.276928 0.07803,0.460953 0.02601,0.18404 0.05349,0.378823 0.07235,0.470773 0.02491,0.121428 0.04215,0.261025 0.06459,0.384989 0.02244,0.123965 0.06241,0.235113 0.06821,0.243913 l 0.08992,0.136942 v 0.0016 c 7.71e-4,0.0011 0.05941,0.08933 0.142627,0.193786 0.08377,0.10514 0.198976,0.224937 0.259416,0.265617 0.0044,0.003 0.106905,0.05104 0.238228,0.09147 0.131323,0.04044 0.300052,0.08399 0.482658,0.12299 0.365211,0.07799 0.79054,0.13901 1.091923,0.13901 0.297444,0 0.700791,-0.07008 1.044897,-0.15658 0.17206,-0.04326 0.330586,-0.09072 0.454753,-0.134358 0.124167,-0.04364 0.221261,-0.09074 0.234611,-0.09974 0.153226,-0.103134 0.478957,-0.428424 0.494027,-0.443384 l 0.07803,-0.117305 c 0.0058,-0.0088 0.04629,-0.119952 0.06873,-0.243913 0.02244,-0.12396 0.03919,-0.263578 0.06408,-0.384989 0.01883,-0.09195 0.04635,-0.28673 0.07235,-0.470773 0.02598,-0.184028 0.04623,-0.348128 0.07648,-0.460953 0.02819,-0.10527 0.07484,-0.184989 0.120922,-0.238229 0.0461,-0.05324 0.113172,-0.08992 0.113172,-0.08992 l 0.179834,0.38499 c 0,0 0.02191,-0.01583 0.02532,-0.01757 -0.003,0.0034 -0.01618,0.02069 -0.02945,0.07028 -0.01126,0.04202 -0.04236,0.228914 -0.06821,0.411861 -0.02585,0.182948 -0.0506,0.370803 -0.07597,0.494543 -0.01931,0.09428 -0.03727,0.237201 -0.06253,0.376721 -0.02526,0.139536 -0.04581,0.273098 -0.131258,0.40256 l -0.103353,0.153996 -0.01344,0.0155 c 0,0 -0.322607,0.339731 -0.572575,0.507979 -0.08833,0.05946 -0.190201,0.09927 -0.329695,0.148311 -0.139511,0.04904 -0.30906,0.09858 -0.492477,0.144694 -0.366818,0.09221 -0.788733,0.167949 -1.14825,0.167949 -0.355578,0 -0.794021,-0.06386 -1.179773,-0.146245 -0.192876,-0.04119 -0.37199,-0.08744 -0.519348,-0.132808 -0.147358,-0.04537 -0.25255,-0.0792 -0.34985,-0.144694 -0.142902,-0.09619 -0.258412,-0.234146 -0.353466,-0.353467 -0.09506,-0.119321 -0.164331,-0.222725 -0.164331,-0.222725 l -0.09147,-0.138493 c -0.08545,-0.129465 -0.105481,-0.263028 -0.130741,-0.40256 -0.02526,-0.139516 -0.04319,-0.282451 -0.06253,-0.376721 -0.02539,-0.123742 -0.0527,-0.311592 -0.07855,-0.494543 -0.02586,-0.182951 -0.05488,-0.369801 -0.06615,-0.411861 -0.01328,-0.04958 -0.02852,-0.06688 -0.03152,-0.07028 h 5.16e-4 c 0.0038,0.0017 0.02687,0.01757 0.02687,0.01757 z m -5.8508055,2.754871 c -0.052441,-2.13e-4 -0.096846,0.0029 -0.1235067,0.0072 8.167e-4,-1.3e-4 -0.062858,0.01876 -0.129191,0.04857 -0.066335,0.02982 -0.1431335,0.06853 -0.2165243,0.107487 -0.072618,0.03855 -0.1397881,0.07669 -0.1896525,0.10542 -0.1128693,0.136728 -0.6390326,0.83088 -0.7358724,1.243335 -0.1012322,0.431182 -0.142627,0.53597 -0.142627,0.592212 0,0.05624 0.037438,0.08605 0.074931,0.07855 0.037493,-0.0074 0.052831,0.06392 0.064079,0.258899 0.011249,0.19497 0.061545,0.796646 0.082166,0.80977 0.020623,0.01312 0.071314,-0.01508 0.071314,0.03927 0,0.05437 0.035947,0.118192 0.079065,0.136943 0.043119,0.01875 0.048624,0.09172 0.069246,0.09922 0.020623,0.0074 0.2284587,0.04347 0.2490804,-0.0016 0.020623,-0.04499 -0.024292,-0.273742 -0.0093,-0.292489 0.014994,-0.01875 0.1294829,0.07499 0.1725992,0.08062 0.043118,0.0056 0.1592237,-0.01321 0.1648479,-0.05633 0.00562,-0.04312 -0.2054101,-0.900528 -0.2077393,-1.095023 -0.00375,-0.313076 0.4644265,-0.800361 0.6909139,-0.772046 0.2264874,0.02832 0.2688538,0.389739 0.3457153,0.430981 0.076863,0.04125 0.2189207,0.07304 0.2976563,-0.101285 0.078736,-0.174348 0.2460401,-0.939131 0.2516642,-0.971001 0.00353,-0.01999 -0.00517,-0.188407 0.012402,-0.324011 -0.00485,-0.0014 -0.00954,-0.002 -0.014469,-0.0036 -0.063491,-0.02022 -0.1474034,-0.07648 -0.1834514,-0.15658 0.027679,0.0615 2.657e-4,0.0031 -0.041341,-0.03514 -0.041608,-0.0382 -0.1048516,-0.089 -0.1855184,-0.14056 C 4.9591257,16.06627 4.843312,16.03029 4.7263293,16.01549 4.6678383,16.00809 4.6077225,16.00485 4.5552803,16.00464 Z m 17.3488115,0 c -0.05244,2.12e-4 -0.113073,0.0035 -0.171565,0.01085 -0.116984,0.01481 -0.232796,0.05079 -0.275436,0.07803 -0.08067,0.05156 -0.143908,0.10236 -0.185518,0.14056 -0.04161,0.03816 -0.06851,0.09665 -0.04083,0.03514 -0.03605,0.08007 -0.120478,0.13636 -0.183968,0.15658 -0.0051,0.0016 -0.01,0.0022 -0.01499,0.0036 0.01758,0.135603 0.0089,0.304015 0.0124,0.324011 0.0056,0.03187 0.172926,0.796653 0.251664,0.971001 0.07874,0.174328 0.220793,0.142533 0.297656,0.101285 0.07687,-0.04125 0.119248,-0.402661 0.345715,-0.430981 0.22649,-0.02832 0.694659,0.45897 0.690914,0.772046 -0.0023,0.194495 -0.213357,1.051902 -0.207739,1.095023 0.0056,0.04312 0.121735,0.06198 0.164848,0.05633 0.04312,-0.0056 0.157602,-0.09937 0.172599,-0.08062 0.01499,0.01875 -0.0299,0.247495 -0.0093,0.292489 0.02063,0.04504 0.228458,0.0091 0.249081,0.0016 0.02062,-0.0074 0.02613,-0.08047 0.06925,-0.09922 0.04312,-0.01875 0.07906,-0.08257 0.07906,-0.136943 0,-0.05436 0.05068,-0.02615 0.07131,-0.03927 0.02062,-0.01312 0.07092,-0.614801 0.08216,-0.80977 0.01129,-0.194976 0.02657,-0.266338 0.06408,-0.258899 0.03749,0.0074 0.07493,-0.02231 0.07493,-0.07855 0,-0.05624 -0.0414,-0.161029 -0.142627,-0.592212 -0.09737,-0.414685 -0.628473,-1.11404 -0.737423,-1.245402 -0.04966,-0.02859 -0.115458,-0.06534 -0.187069,-0.103353 -0.07339,-0.03896 -0.152768,-0.07767 -0.219108,-0.107487 -0.06633,-0.02982 -0.127424,-0.04922 -0.126607,-0.04909 -0.02666,-0.0043 -0.07107,-0.0069 -0.123507,-0.0067 z M 9.5239665,16.357141 c -0.065083,0.170976 -0.1222902,0.325699 -0.1286743,0.374654 -0.01591,0.121964 -0.2066644,0.07964 -0.3710368,0.137976 -0.1643752,0.05832 -0.5619699,0.986542 -0.5725749,1.087272 -0.00159,0.01511 -4.231e-4,0.03408 0.00258,0.05478 0.085318,-0.0079 0.178925,-0.01432 0.2821533,-0.0155 0.3068658,-0.0035 0.6755375,0.0033 0.9157064,0.269234 0.2778011,0.307555 1.0944178,1.051703 1.1994098,2.124935 0.04836,0.494361 0.123945,1.500266 0.1757,2.441711 0.02587,0.470733 0.04521,0.924583 0.05271,1.290877 0.0031,0.150274 0.0051,0.27687 0.0047,0.391191 0.407599,0.175809 0.787032,0.270784 0.787032,0.270784 0.339341,0 -0.07811,-0.473735 -0.06098,-0.512113 0.01782,-0.03993 0.15747,-0.01113 0.176216,-0.04858 0.01875,-0.03749 0.06758,-0.708713 0.04134,-0.746208 -0.02624,-0.03747 -0.05657,-0.01135 -0.07907,-0.0863 -0.02255,-0.07498 0.601514,-0.303827 0.601514,-1.321883 0,-0.634712 0.131647,-0.966462 0.313159,-1.12603 -0.05933,-0.0156 -0.117137,-0.03834 -0.176216,-0.08475 -0.108798,-0.08546 -0.13244,-0.169128 -0.17415,-0.269234 -0.0417,-0.100107 -0.07988,-0.215094 -0.115238,-0.33228 -0.07073,-0.234371 -0.130291,-0.481849 -0.159681,-0.579809 -0.111844,-0.372871 -0.532783,-1.067759 -0.93586,-1.649512 C 11.172123,17.88719 11.117188,17.80253 11.117188,17.80253 l 0.0052,-0.0031 C 10.879184,17.528391 10.447714,17.132965 10.052616,16.796908 9.8564122,16.630006 9.6781232,16.482792 9.5239665,16.357141 Z m 7.4104005,0 c -0.15456,0.125668 -0.333952,0.272823 -0.5302,0.439767 -0.394774,0.33578 -0.825421,0.730965 -1.068669,1.002006 l 0.0062,0.0036 c 0,0 -0.05672,0.08742 -0.191719,0.232544 -0.401551,0.580406 -0.817705,1.271333 -0.929143,1.642794 -0.02939,0.09796 -0.09154,0.345438 -0.162264,0.579809 -0.03537,0.117186 -0.07353,0.232173 -0.115238,0.33228 -0.04171,0.100107 -0.06483,0.183774 -0.173633,0.269234 -0.05908,0.04641 -0.116426,0.06915 -0.175183,0.08475 0.181512,0.159568 0.313159,0.491318 0.313159,1.12603 0,1.018056 0.62401,1.246902 0.601514,1.321883 -0.0225,0.07496 -0.05229,0.04883 -0.07855,0.0863 -0.02624,0.03749 0.02207,0.708717 0.04082,0.746208 0.01875,0.03745 0.153722,0.01113 0.176217,0.04858 0.0225,0.03749 -0.400337,0.512113 -0.06098,0.512113 0,0 0.379138,-0.09463 0.786515,-0.270267 -8.87e-4,-0.11444 5.36e-4,-0.241213 0.0036,-0.391708 0.0075,-0.366292 0.02683,-0.820144 0.05271,-1.290877 0.05175,-0.94145 0.12734,-1.947351 0.1757,-2.441711 0.104991,-1.07323 0.921607,-1.817381 1.19941,-2.124935 0.240175,-0.265931 0.610916,-0.272734 0.917773,-0.269234 0.103305,0.0012 0.196569,0.0076 0.281637,0.0155 0.003,-0.0207 0.0042,-0.03967 0.0026,-0.05478 -0.01065,-0.100731 -0.408198,-1.028951 -0.572575,-1.087272 -0.164376,-0.05833 -0.355131,-0.01601 -0.371037,-0.137976 -0.0064,-0.04895 -0.0636,-0.203678 -0.128674,-0.374654 z m -8.194332,2.062923 c -0.063245,7.26e-4 -0.1242987,0.0037 -0.1813843,0.0078 -0.078572,0.270724 -0.3435538,1.023206 -0.3348633,1.331701 0.01061,0.376475 0.073897,2.847506 0.073897,2.964161 0,0.116636 0.090434,0.238588 0.090434,0.2651 0,0.02651 -0.1435035,0.137728 -0.1700155,0.24908 -0.026508,0.111357 0.030824,0.674444 0.079582,0.82734 0.06506,0.204018 0.1806506,0.38035 0.2439128,0.365352 0.053018,-0.01065 0.6554406,-0.270136 0.9291422,-0.273885 0.2225683,-0.003 0.7523461,0.04872 1.1885581,0.185002 1.79e-4,-0.06664 4.71e-4,-0.134966 -10e-4,-0.208773 -0.0073,-0.358077 -0.027,-0.809725 -0.05271,-1.277442 -0.05143,-0.935421 -0.127069,-1.94236 -0.174149,-2.423624 -0.0859,-0.878045 -0.7753385,-1.533167 -1.0914064,-1.883089 -0.056764,-0.06285 -0.3340018,-0.131775 -0.5999634,-0.128675 z m 8.928654,0 c -0.24976,0.0053 -0.496108,0.06975 -0.549321,0.128675 -0.316057,0.349922 -1.006023,1.005045 -1.091923,1.883089 -0.04706,0.481262 -0.122729,1.488204 -0.174149,2.423624 -0.02572,0.467717 -0.04541,0.919365 -0.05271,1.277442 -0.0015,0.07362 -0.0011,0.14176 -10e-4,0.208256 0.436094,-0.136139 0.965575,-0.187509 1.188042,-0.184485 0.273689,0.0037 0.992704,0.288871 0.992704,0.288871 0.339359,0 0.159142,-0.221262 0.180351,-0.380338 0.02121,-0.159074 0.106097,-0.715984 0.07958,-0.82734 -0.02651,-0.111357 -0.170015,-0.222569 -0.170015,-0.24908 0,-0.02651 0.09043,-0.148464 0.09043,-0.2651 0,-0.116653 0.06329,-2.587687 0.0739,-2.964161 0.0087,-0.308495 -0.256282,-1.060977 -0.334863,-1.331701 -0.05691,-0.004 -0.11763,-0.007 -0.180868,-0.0078 -0.01662,-1.91e-4 -0.03347,-3.52e-4 -0.05013,0 z m -5.422408,0.288355 c 0.176767,0.305 0.32199,0.598566 0.396358,0.84646 0.0381,0.127001 0.09601,0.360286 0.162264,0.579809 0.03312,0.109769 0.06715,0.216036 0.09922,0.293006 0.02047,0.04914 0.04649,0.08464 0.05426,0.09819 0.01382,0.0053 0.0377,0.01521 0.06873,0.02119 0.05523,0.01068 0.128358,0.01757 0.201538,0.01757 0.07318,0 0.147848,-0.0069 0.203088,-0.01757 0.02958,-0.0057 0.05297,-0.01467 0.06666,-0.02015 0.0072,-0.01289 0.03343,-0.04921 0.05426,-0.09922 0.03206,-0.07696 0.06868,-0.183236 0.101803,-0.293006 0.06625,-0.219523 0.122097,-0.452807 0.160197,-0.579809 0.07432,-0.247727 0.219285,-0.541166 0.396358,-0.845943 -0.04676,0.01953 -0.09345,0.03872 -0.136943,0.05684 -0.3067,0.127782 -0.611752,0.07596 -0.845426,0.07596 -0.233675,0 -0.537177,0.05182 -0.843876,-0.07596 -0.04397,-0.01832 -0.09118,-0.03758 -0.138493,-0.05736 z" />
      <path
         id="path1996"
         style="fill:#fdfdfd;fill-opacity:1;stroke:none;stroke-width:0.423333;stroke-linecap:butt;stroke-linejoin:miter;stroke-miterlimit:4;stroke-dasharray:none;stroke-opacity:1"
         d="m 12.799219,1.4810465 c -0.319688,0.00284 -0.63848,0.022773 -0.884701,0.1219564 -0.179071,0.072134 -0.318775,0.1758492 -0.423747,0.3519165 -0.10497,0.1760674 -0.175015,0.4344187 -0.170015,0.818038 0.0049,0.3801235 0.0089,0.6916747 0.01292,0.956014 0.141173,0.090264 0.330406,0.1700924 0.539502,0.2340942 0.457635,0.1400778 1.00834,0.2030884 1.355473,0.2030884 0.347132,0 0.897835,-0.063011 1.355473,-0.2030884 0.209392,-0.064093 0.400111,-0.1441892 0.541569,-0.234611 0.0045,-0.2642437 0.0085,-0.5756027 0.01344,-0.9554972 C 15.144078,2.389338 15.0746,2.1309868 14.969629,1.9549194 14.864658,1.7788521 14.722885,1.6751369 14.543815,1.6030029 14.185675,1.4587353 13.673919,1.4820801 13.229167,1.4820801 c -0.138986,0 -0.284636,-0.00232 -0.429948,-0.00103 z m -1.456242,2.7336833 c 0.0022,0.08947 0.0046,0.1710028 0.0072,0.2418457 0.01181,0.3122893 0.0523,0.4694205 0.04186,0.4594035 0.02312,0.04092 0.277068,0.4630494 0.624252,0.8433594 0.353735,0.3874874 0.812101,0.7286377 1.212846,0.7286377 0.400743,0 0.859111,-0.3411503 1.212846,-0.7286377 0.347182,-0.38031 0.601117,-0.8024236 0.624251,-0.8433594 -0.01045,0.01002 0.03004,-0.1471135 0.04186,-0.4594035 0.0027,-0.070703 0.0054,-0.1520735 0.0078,-0.2413289 -0.127963,0.060133 -0.264998,0.1106243 -0.406693,0.1539958 -0.513027,0.1570316 -1.085684,0.2185913 -1.48053,0.2185913 -0.394847,0 -0.965438,-0.06156 -1.478463,-0.2185913 -0.141944,-0.043448 -0.279038,-0.094268 -0.40721,-0.1545126 z" />
    </g>
  </g>
</svg>
