<?xml version="1.0" encoding="UTF-8" standalone="no"?>
<!-- Created with Inkscape (http://www.inkscape.org/) -->

<svg
   width="100"
   height="100"
   viewBox="0 0 26.458334 26.458334"
   version="1.1"
   id="svg5"
   inkscape:version="1.2.1 (9c6d41e410, 2022-07-14)"
   sodipodi:docname="iconu_marmour (copie 2).svg"
   inkscape:export-filename="iconu_marmour.png"
   inkscape:export-xdpi="96"
   inkscape:export-ydpi="96"
   xmlns:inkscape="http://www.inkscape.org/namespaces/inkscape"
   xmlns:sodipodi="http://sodipodi.sourceforge.net/DTD/sodipodi-0.dtd"
   xmlns="http://www.w3.org/2000/svg"
   xmlns:svg="http://www.w3.org/2000/svg">
  <sodipodi:namedview
     id="namedview7"
     pagecolor="#505050"
     bordercolor="#eeeeee"
     borderopacity="1"
     inkscape:pageshadow="0"
     inkscape:pageopacity="0"
     inkscape:pagecheckerboard="0"
     inkscape:document-units="px"
     showgrid="true"
     units="px"
     height="1122.5196px"
     inkscape:zoom="5.6568543"
     inkscape:cx="37.476659"
     inkscape:cy="46.403882"
     inkscape:window-width="1920"
     inkscape:window-height="1028"
     inkscape:window-x="0"
     inkscape:window-y="27"
     inkscape:window-maximized="1"
     inkscape:current-layer="layer1"
     showguides="false"
     width="100px"
     inkscape:guide-bbox="true"
     inkscape:showpageshadow="0"
     inkscape:deskcolor="#505050">
    <inkscape:grid
       type="xygrid"
       id="grid836" />
    <sodipodi:guide
       position="2.6458334,19.843751"
       orientation="0.70710678,-0.70710678"
       id="guide11245"
       inkscape:locked="false" />
  </sodipodi:namedview>
  <defs
     id="defs2">
    <inkscape:path-effect
       effect="mirror_symmetry"
       start_point="13.229167,2.6458333"
       end_point="13.229167,3.175"
       center_point="13.229167,2.9104167"
       id="path-effect2159"
       is_visible="true"
       lpeversion="1.1"
       mode="free"
       discard_orig_path="false"
       fuse_paths="false"
       oposite_fuse="false"
       split_items="true"
       split_open="false" />
    <inkscape:path-effect
       effect="mirror_symmetry"
       start_point="13.229167,8.4666667"
       end_point="13.229167,10.847917"
       center_point="13.229167,9.6572919"
       id="path-effect901"
       is_visible="true"
       lpeversion="1.1"
       mode="free"
       discard_orig_path="false"
       fuse_paths="false"
       oposite_fuse="false"
       split_items="true"
       split_open="false" />
    <inkscape:path-effect
       effect="mirror_symmetry"
       start_point="13.229167,1.6342052"
       end_point="13.229167,2.1060229"
       center_point="13.229167,1.870114"
       id="path-effect42275"
       is_visible="true"
       lpeversion="1.1"
       mode="free"
       discard_orig_path="false"
       fuse_paths="false"
       oposite_fuse="false"
       split_items="true"
       split_open="false" />
    <inkscape:path-effect
       effect="mirror_symmetry"
       start_point="13.229167,1.0476895"
       end_point="13.229167,4.7625"
       center_point="13.229167,2.9050947"
       id="path-effect39543"
       is_visible="true"
       lpeversion="1.1"
       mode="free"
       discard_orig_path="false"
       fuse_paths="false"
       oposite_fuse="false"
       split_items="true"
       split_open="false" />
    <inkscape:path-effect
       effect="mirror_symmetry"
       start_point="11.91781,5.1798566"
       end_point="11.91781,5.9031125"
       center_point="11.91781,5.5414846"
       id="path-effect32711"
       is_visible="true"
       lpeversion="1.1"
       mode="free"
       discard_orig_path="false"
       fuse_paths="false"
       oposite_fuse="false"
       split_items="true"
       split_open="false" />
    <inkscape:path-effect
       effect="mirror_symmetry"
       start_point="13.229208,1.0476895"
       end_point="13.229208,12.964583"
       center_point="13.229208,7.0061362"
       id="path-effect26730"
       is_visible="true"
       lpeversion="1.1"
       mode="free"
       discard_orig_path="false"
       fuse_paths="false"
       oposite_fuse="false"
       split_items="false"
       split_open="false" />
    <inkscape:path-effect
       effect="mirror_symmetry"
       start_point="13.229167,1.0583333"
       end_point="13.229167,25.42118"
       center_point="13.229167,13.239757"
       id="path-effect7396"
       is_visible="true"
       lpeversion="1.1"
       mode="free"
       discard_orig_path="false"
       fuse_paths="false"
       oposite_fuse="false"
       split_items="true"
       split_open="false" />
    <inkscape:path-effect
       effect="mirror_symmetry"
       start_point="10.583333,0.52694874"
       end_point="10.583333,26.00396"
       center_point="10.583333,13.265455"
       id="path-effect2647"
       is_visible="true"
       lpeversion="1.1"
       mode="free"
       discard_orig_path="false"
       fuse_paths="false"
       oposite_fuse="false"
       split_items="true"
       split_open="false" />
    <inkscape:path-effect
       effect="mirror_symmetry"
       start_point="10.591468,0.62624476"
       end_point="10.513751,4.6593088"
       center_point="10.552609,2.6427768"
       id="path-effect1400"
       is_visible="true"
       lpeversion="1.1"
       mode="free"
       discard_orig_path="false"
       fuse_paths="false"
       oposite_fuse="false"
       split_items="false"
       split_open="false" />
    <inkscape:path-effect
       effect="mirror_symmetry"
       start_point="22.489583,1.3229166"
       end_point="22.489583,6.6145833"
       center_point="22.489583,3.9687499"
       id="path-effect5216"
       is_visible="true"
       lpeversion="1.1"
       mode="free"
       discard_orig_path="false"
       fuse_paths="false"
       oposite_fuse="false"
       split_items="true"
       split_open="false" />
    <inkscape:path-effect
       effect="mirror_symmetry"
       start_point="13.229167,18.25625"
       end_point="13.229167,23.8125"
       center_point="13.229167,21.034375"
       id="path-effect2322"
       is_visible="true"
       lpeversion="1.1"
       mode="free"
       discard_orig_path="false"
       fuse_paths="false"
       oposite_fuse="false"
       split_items="true"
       split_open="false" />
  </defs>
  <g
     inkscape:label="Calque 1"
     inkscape:groupmode="layer"
     id="layer1">
    <path
       id="mirror-path-effect5216-6-35-3"
       style="fill:#ffffff;fill-opacity:1;stroke:none;stroke-width:0.396874;stroke-linecap:butt;stroke-linejoin:miter;stroke-miterlimit:4;stroke-dasharray:none;stroke-opacity:1"
       d="M 19.84375 3.9687501 L 19.84375 7.9375002 C 19.84375 8.6518745 22.013333 10.583334 22.489584 10.583334 C 22.965833 10.583335 25.135417 8.6518745 25.135417 7.9375002 L 25.135417 3.9687501 L 19.84375 3.9687501 z M 20.663856 5.0529217 L 24.314279 5.0529217 L 24.314279 7.6739504 C 24.314279 7.9016386 24.198986 8.0590841 24.060547 8.2439415 C 23.922108 8.4287988 23.742538 8.6224025 23.554635 8.8010134 C 23.366733 8.9796242 23.170691 9.1434541 22.996013 9.2676516 C 22.908674 9.3297504 22.828103 9.3813054 22.750033 9.4216474 C 22.671965 9.4619893 22.606298 9.4981287 22.490101 9.4981285 C 22.373905 9.4981285 22.308755 9.4619893 22.230685 9.4216474 C 22.152616 9.3813056 22.069978 9.3297505 21.982638 9.2676516 C 21.80796 9.1434541 21.611919 8.9796242 21.424016 8.8010134 C 21.236113 8.6224025 21.058609 8.4287988 20.920171 8.2439415 C 20.781731 8.0590842 20.663856 7.9016387 20.663856 7.6739504 L 20.663856 5.0529217 z M 21.140829 5.5293784 L 21.140829 7.6739504 C 21.140829 7.6605743 21.186458 7.8062224 21.301026 7.9592043 C 21.415594 8.1121862 21.578908 8.2906126 21.752161 8.4552981 C 21.925414 8.6199835 22.109865 8.7725591 22.259624 8.8790448 C 22.334507 8.9322874 22.401456 8.9731916 22.449276 8.9979006 C 22.465599 9.0063339 22.478973 9.01149 22.490101 9.0149538 C 22.501245 9.0114925 22.515029 9.0063825 22.531442 8.9979006 C 22.579257 8.973192 22.645698 8.9322878 22.720578 8.8790448 C 22.870344 8.7725591 23.053238 8.6199835 23.22649 8.4552981 C 23.399743 8.2906126 23.563057 8.1121862 23.677625 7.9592043 C 23.792195 7.8062223 23.839889 7.6605744 23.839889 7.6739504 L 23.839889 5.5293784 L 21.140829 5.5293784 z " />
    <g
       id="g8711"
       style="fill:#ffffff;fill-opacity:1">
      <path
         id="path7408-6"
         style="fill:#ffffff;fill-opacity:1;stroke:none;stroke-width:0.317501;stroke-linecap:butt;stroke-linejoin:miter;stroke-miterlimit:4;stroke-dasharray:none;stroke-opacity:1"
         d="M 11.841655 5.1810792 C 11.879643 5.2523681 11.921781 5.3227808 11.968779 5.3924358 C 12.218285 5.7622429 12.404219 6.029616 12.585795 6.1892865 C 12.767381 6.3489559 12.93323 6.4182131 13.22865 6.4182131 C 13.524079 6.4182132 13.689401 6.348956 13.870988 6.1892865 C 14.052574 6.029616 14.240567 5.7622428 14.490072 5.3924358 C 14.537035 5.3228303 14.579229 5.2523171 14.617196 5.1810792 L 11.841655 5.1810792 z M 11.546066 5.5174928 C 11.515061 5.7047041 11.468628 5.9240304 11.406022 6.0492433 C 11.34384 6.1736356 11.237835 6.3415531 11.136788 6.4735068 C 11.170763 6.5537576 11.209662 6.6462108 11.257711 6.7479087 C 11.364543 6.974027 11.509687 7.2334503 11.679908 7.4238365 C 11.831571 7.5934767 12.058532 7.6811438 12.337749 7.7225262 C 12.616958 7.7639092 12.935367 7.754049 13.22865 7.7540489 C 13.521942 7.7540489 13.841892 7.7639102 14.121102 7.7225262 C 14.400321 7.6811437 14.627786 7.5934767 14.77946 7.4238365 C 14.949666 7.2334669 15.092303 6.9740192 15.199073 6.7479087 C 15.24699 6.6464334 15.287304 6.554163 15.321546 6.4740236 C 15.220424 6.3420203 15.114545 6.1737373 15.052312 6.0492433 C 14.989833 5.924292 14.943273 5.7054838 14.912268 5.5185263 C 14.88977 5.5554956 14.866707 5.5924768 14.841988 5.6291139 C 14.591683 6.000121 14.394676 6.2929585 14.150558 6.5076133 C 13.906439 6.7222681 13.603687 6.8419598 13.22865 6.8419598 C 12.853622 6.8419598 12.55085 6.7222681 12.306743 6.5076133 C 12.062624 6.2929585 11.867695 6.0001209 11.617379 5.6291139 C 11.592416 5.5921118 11.568765 5.5548333 11.546066 5.5174928 z M 10.75645 6.6714276 C 10.616327 6.6836525 10.410734 6.7437795 10.240202 6.8802004 C 9.9921672 7.0786296 10.032463 7.1282508 9.821623 7.174756 C 9.775181 7.185001 9.6836564 7.1983299 9.5632408 7.2233319 C 9.5642608 7.6218144 9.5663414 8.4185625 9.5663414 8.5467654 C 9.5663414 8.5735253 9.5635624 8.595963 9.5596235 8.615495 C 9.5637224 8.618895 9.5663035 8.6213868 9.5704755 8.6247968 C 9.6135915 8.6600107 9.6596595 8.6961859 9.6955325 8.7188479 C 9.7179504 8.7330129 9.7398986 8.7398385 9.7435916 8.7415855 C 9.7424711 8.7416083 9.7395168 8.7414891 9.7353233 8.7410687 C 9.8257857 8.752914 9.8902151 8.8113324 9.9239423 8.8573407 C 9.9587573 8.9048347 9.9765762 8.9501658 9.9921552 8.9979006 C 10.023311 9.0933765 10.040517 9.2028068 10.052617 9.3337974 C 10.076807 9.5957812 10.073078 9.9383373 10.041248 10.320301 C 10.009508 10.701162 9.9650613 10.963053 9.9043053 11.154358 C 9.8503073 11.324379 9.7896624 11.377096 9.6753787 11.610144 C 9.6756623 11.616844 9.6762045 11.623698 9.6764122 11.630298 C 9.6825622 11.822534 9.6510823 11.983763 9.6014814 12.076783 C 9.5518764 12.169762 9.4713079 12.33103 9.4774579 12.517066 C 9.4836079 12.703101 9.9238947 13.806947 9.9363447 13.912329 C 9.9487906 14.017749 10.016912 14.761891 10.029362 14.941724 C 10.041812 15.121558 10.060362 15.450219 9.9797529 15.685865 C 9.9590629 15.746345 9.9439815 15.792806 9.9322105 15.830559 C 10.172929 15.834759 10.43535 15.839257 10.720793 15.841927 C 11.071518 15.845227 11.422185 15.845727 11.693343 15.841927 C 11.820125 15.840027 11.924144 15.836626 12.005469 15.832626 C 11.50531 15.663159 11.176489 15.392516 10.972457 15.103471 C 10.63422 14.624317 10.63656 14.114902 10.63656 14.015682 C 10.63656 13.916462 10.63416 13.405014 10.972457 12.925826 C 11.121202 12.715137 11.336196 12.513903 11.635466 12.354802 C 11.450382 12.327892 11.284254 12.287972 11.150224 12.22096 C 11.024826 12.15826 10.96796 12.066525 10.90011 11.956893 C 10.83226 11.847262 10.766206 11.712934 10.701156 11.560535 C 10.571063 11.255739 10.445509 10.876947 10.343555 10.496 C 10.241601 10.11509 10.164572 9.7356932 10.1384 9.4237144 C 10.12533 9.2677269 10.123611 9.128704 10.144601 9.0041018 C 10.165591 8.8794995 10.207501 8.7366751 10.359575 8.6640709 C 10.503486 8.5953399 10.678521 8.5641319 10.894426 8.5353965 C 11.110332 8.5066656 11.362798 8.4875553 11.630815 8.4744183 C 12.099808 8.4514294 12.61532 8.4463485 13.048299 8.4454795 C 13.110159 8.4453554 13.17054 8.4454796 13.22865 8.4454795 C 13.693529 8.4454795 14.292001 8.4481504 14.828036 8.4744183 C 15.096053 8.4875553 15.34852 8.5066656 15.564425 8.5353965 C 15.780331 8.5641315 15.953778 8.5953395 16.097726 8.6640709 C 16.249799 8.7366758 16.293343 8.8794993 16.31425 9.0041018 C 16.33528 9.128704 16.333561 9.2677269 16.320451 9.4237144 C 16.294241 9.7356932 16.21725 10.11509 16.115296 10.496 C 16.013343 10.876947 15.885728 11.255737 15.755628 11.560535 C 15.690578 11.712934 15.626591 11.847262 15.558741 11.956893 C 15.490891 12.066525 15.434024 12.15826 15.308627 12.22096 C 15.174476 12.28804 15.008154 12.327896 14.822868 12.354802 C 15.122553 12.513902 15.337651 12.715141 15.486394 12.925826 C 15.824598 13.405014 15.82229 13.916462 15.82229 14.015682 C 15.82229 14.114902 15.824579 14.624317 15.486394 15.103471 C 15.282362 15.392516 14.952987 15.663159 14.452348 15.832626 C 14.533588 15.836726 14.637077 15.840127 14.76344 15.841927 C 15.034633 15.845727 15.387332 15.845227 15.738058 15.841927 C 16.023315 15.839227 16.285539 15.834829 16.526123 15.830559 C 16.514353 15.792809 16.499271 15.746349 16.478581 15.685865 C 16.397971 15.450219 16.416522 15.121558 16.428972 14.941724 C 16.441382 14.761891 16.509539 14.017749 16.521989 13.912329 C 16.534389 13.806947 16.974676 12.703101 16.980876 12.517066 C 16.987076 12.33103 16.906456 12.169765 16.856853 12.076783 C 16.807253 11.983763 16.775742 11.822534 16.781922 11.630298 C 16.782136 11.623698 16.782704 11.616844 16.782955 11.610144 C 16.668684 11.377094 16.606924 11.324366 16.552995 11.154358 C 16.492315 10.963068 16.447793 10.70114 16.416053 10.320301 C 16.384183 9.9383371 16.382024 9.5957814 16.406234 9.3337974 C 16.418334 9.2028066 16.435536 9.0933764 16.466696 8.9979006 C 16.482276 8.9501627 16.500088 8.9048346 16.534908 8.8573407 C 16.56864 8.8113329 16.633078 8.752914 16.723527 8.7410687 C 16.719213 8.7413375 16.715955 8.7410918 16.714742 8.7410687 C 16.717983 8.739321 16.739356 8.7330085 16.761768 8.7188479 C 16.797638 8.6961869 16.845768 8.6600107 16.888892 8.6247968 C 16.89245 8.6218905 16.895722 8.6189121 16.899227 8.6160118 C 16.895184 8.5963195 16.892509 8.5738286 16.892509 8.5467654 C 16.892509 8.4185973 16.894594 7.6218278 16.89561 7.2233319 C 16.774951 7.198266 16.683216 7.1850145 16.636711 7.174756 C 16.425871 7.1282508 16.466178 7.0786303 16.218132 6.8802004 C 16.046293 6.7427347 15.838961 6.683007 15.698784 6.6714276 C 15.66605 6.7470614 15.627791 6.83282 15.581995 6.9298097 C 15.466609 7.1741691 15.30999 7.4629927 15.093653 7.7049562 C 14.85065 7.9767461 14.513148 8.0914426 14.181564 8.1405886 C 13.84997 8.1897336 13.512241 8.1777956 13.22865 8.1777956 C 12.945068 8.1777956 12.606814 8.1897336 12.27522 8.1405886 C 11.943625 8.0914426 11.606135 7.9767463 11.363131 7.7049562 C 11.14681 7.4630093 10.990236 7.1741613 10.874789 6.9298097 C 10.82898 6.8328559 10.792285 6.7470466 10.760067 6.6714276 C 10.758826 6.6715292 10.757702 6.6713184 10.75645 6.6714276 z M 17.31729 7.3375368 C 17.316195 7.7657683 17.314824 8.3679176 17.314706 8.5136924 C 17.327346 8.5335294 17.353553 8.5687865 17.388603 8.6092938 C 17.423159 8.6492358 17.46653 8.6951666 17.515727 8.7452029 L 17.515727 7.4140179 C 17.448211 7.3851171 17.381762 7.3596705 17.31729 7.3375368 z M 9.1400108 7.3380536 C 9.0760551 7.360037 9.0100721 7.385383 8.9431236 7.4140179 L 8.9431236 8.7436526 C 8.9915322 8.6942427 9.0339965 8.6488041 9.0681806 8.6092938 C 9.1032255 8.5687869 9.1299516 8.5335294 9.1425946 8.5136924 C 9.1447246 8.5103524 9.1436917 8.5111148 9.1446617 8.5085248 C 9.1444778 8.3579155 9.1416508 7.7710576 9.1400108 7.3380536 z M 8.5193768 7.6455284 C 8.3887597 7.7354066 8.2625506 7.8433318 8.14834 7.9726402 L 8.14834 9.4722903 C 8.2640616 9.3721839 8.3927695 9.2594428 8.5193768 9.1451785 L 8.5193768 7.6455284 z M 17.939474 7.6455284 L 17.939474 9.146212 C 18.065387 9.2595302 18.193326 9.3713354 18.308444 9.47074 L 18.308444 7.9705731 C 18.194815 7.8421534 18.069329 7.7349443 17.939474 7.6455284 z M 7.7266604 8.6258303 C 7.3809644 9.2164136 7.3765436 9.1909161 7.4031659 9.2521487 C 7.4341818 9.3234586 7.5333887 9.3916786 7.5240887 9.4381838 C 7.5157587 9.4798338 7.2887881 9.8298583 7.2414186 9.9849205 C 7.2571906 9.9792705 7.2706609 9.9749158 7.2868939 9.9689008 C 7.4283998 9.9164736 7.5848891 9.8491153 7.7266604 9.7735639 L 7.7266604 8.6258303 z M 18.73219 8.6268638 L 18.73219 9.7735639 C 18.873971 9.8491141 19.030484 9.9164732 19.171957 9.9689008 C 19.187965 9.9748333 19.201355 9.9788251 19.216915 9.9844037 C 19.169231 9.8291033 18.942565 9.479792 18.934245 9.4381838 C 18.924945 9.3916779 19.024155 9.3234579 19.055168 9.2521487 C 19.081779 9.1909509 19.077298 9.2163855 18.73219 8.6268638 z M 13.01781 8.8692263 C 12.737298 8.8698129 12.425379 8.8723774 12.11709 8.8800783 L 12.11709 11.97498 C 12.15675 11.97848 12.19674 11.981582 12.236463 11.984282 C 12.519574 12.003602 12.806008 12.011958 13.01781 12.015288 L 13.01781 8.8692263 z M 13.441557 8.8692263 L 13.441557 12.015288 C 13.653817 12.011888 13.940592 12.003542 14.222905 11.984282 C 14.261825 11.981582 14.300835 11.97838 14.339694 11.97498 L 14.339694 8.8800783 C 14.032483 8.8723494 13.721409 8.8697943 13.441557 8.8692263 z M 11.69541 8.8945478 C 11.68045 8.8952341 11.665302 8.8958848 11.650452 8.8966148 C 11.389598 8.9094008 11.14634 8.9287722 10.949203 8.9550092 C 10.776708 8.9779662 10.64124 9.0107842 10.572482 9.0361412 C 10.569682 9.0433212 10.565963 9.0544918 10.562663 9.0743817 C 10.551563 9.1397097 10.549266 9.2513092 10.560596 9.3865074 C 10.583316 9.6568998 10.654406 10.023121 10.751799 10.386963 C 10.849189 10.750843 10.972754 11.115683 11.09183 11.394654 C 11.15137 11.534102 11.209438 11.652838 11.259778 11.734168 C 11.303828 11.805328 11.352228 11.844397 11.346078 11.844239 C 11.397888 11.867969 11.528454 11.896914 11.69541 11.923304 L 11.69541 8.8945478 z M 14.76344 8.8945478 L 14.76344 11.923304 C 14.930966 11.896734 15.061757 11.867512 15.11329 11.843722 C 15.11079 11.841322 15.156513 11.802942 15.199073 11.734168 C 15.249413 11.652838 15.307481 11.534101 15.367021 11.394654 C 15.486096 11.115683 15.609662 10.750843 15.707052 10.386963 C 15.804442 10.023121 15.875535 9.6568998 15.898255 9.3865074 C 15.909565 9.2513092 15.907594 9.1397097 15.896705 9.0743817 C 15.893405 9.0545478 15.889686 9.0433302 15.886886 9.0361412 C 15.817886 9.0107632 15.680456 8.9780172 15.507581 8.9550092 C 15.310443 8.9287722 15.067665 8.9093998 14.806849 8.8966148 C 14.792559 8.8959143 14.77783 8.8952167 14.76344 8.8945478 z M 9.317261 8.9643109 C 9.2442839 9.0433783 9.1595137 9.1287068 9.0666303 9.2170087 C 8.8167357 9.4545766 8.5165419 9.7136855 8.3007855 9.8986209 C 8.048559 10.114817 7.7121845 10.262063 7.433655 10.365259 C 7.386029 10.382899 7.342953 10.396978 7.2992962 10.411768 C 7.1833659 10.708701 6.9616983 11.205035 6.8791668 11.493872 C 6.7551514 11.927954 6.1970297 13.168189 6.0110028 13.465845 C 5.9950318 13.491395 5.9756725 13.522718 5.9567425 13.553178 C 6.0935968 13.612628 6.3171478 13.711713 6.5215659 13.820345 C 6.6632224 13.895635 6.8070534 13.974544 6.9256756 14.048755 C 6.9849886 14.085875 7.0378413 14.122235 7.0838055 14.158309 C 7.1297705 14.194379 7.1718475 14.212729 7.2150637 14.304554 C 7.2591056 14.398133 7.2368995 14.444678 7.2284995 14.484388 C 7.2200995 14.524098 7.2100066 14.558448 7.1954266 14.595492 C 7.1662666 14.669582 7.1237085 14.752933 7.073987 14.847673 C 6.9745431 15.037162 6.8392165 15.269415 6.7013999 15.499829 C 6.5635832 15.730261 6.4241529 15.958623 6.3184775 16.134933 C 6.2656416 16.223083 6.2214525 16.297557 6.1913535 16.351457 C 6.1900635 16.353857 6.1905295 16.355458 6.1892865 16.357658 C 6.2046824 16.379698 6.2173114 16.400366 6.2419964 16.431556 C 6.3148803 16.523635 6.4199491 16.643994 6.5293174 16.765385 C 6.5317174 16.768085 6.5336253 16.770437 6.5360353 16.773137 C 6.8289065 16.446135 7.4878009 15.736913 7.5798993 15.586646 C 7.6977175 15.394409 9.361187 11.548648 9.3901247 11.462866 C 9.4190637 11.377097 9.4894123 11.253606 9.5250002 11.1125 C 9.5605902 10.971394 9.5887814 10.648414 9.6190513 10.285161 C 9.6492353 9.9229817 9.6516979 9.5978732 9.6309369 9.3730715 C 9.6205559 9.2606706 9.6020405 9.1720435 9.5880455 9.1291588 C 9.5867855 9.1252788 9.586972 9.1235176 9.587012 9.1229576 C 9.5869256 9.1225873 9.5864548 9.1219634 9.5859784 9.1208905 C 9.5494747 9.1047582 9.502208 9.095811 9.47074 9.075932 C 9.4167006 9.0417956 9.3649154 9.0026861 9.317261 8.9643109 z M 17.142107 8.9643109 C 17.094459 9.0026748 17.042149 9.0417981 16.988111 9.075932 C 16.955991 9.096218 16.908861 9.1067146 16.871322 9.1229576 C 16.869622 9.1268576 16.871188 9.12337 16.869255 9.1291588 C 16.855255 9.1720437 16.838294 9.2606705 16.827914 9.3730715 C 16.807184 9.5978734 16.807572 9.9229814 16.837732 10.285161 C 16.868002 10.648438 16.888944 10.972555 16.933334 11.1125 C 16.981404 11.238313 17.012404 11.377095 17.041338 11.462866 C 17.070267 11.548646 18.76061 15.394409 18.878435 15.586646 C 18.970483 15.736829 19.628662 16.445375 19.921782 16.77262 C 19.92393 16.770238 19.925837 16.768284 19.927983 16.765902 C 20.037385 16.64451 20.143944 16.523642 20.216854 16.431556 C 20.241544 16.400366 20.254164 16.379688 20.269564 16.357658 C 20.268275 16.355358 20.268797 16.353757 20.267497 16.351457 C 20.237394 16.29756 20.193213 16.223083 20.140373 16.134933 C 20.034696 15.958623 19.893715 15.730261 19.755901 15.499829 C 19.618084 15.269401 19.482247 15.037162 19.382797 14.847673 C 19.333077 14.752929 19.292584 14.669572 19.263424 14.595492 C 19.248844 14.558454 19.236684 14.524098 19.228284 14.484388 C 19.219894 14.444679 19.200264 14.39814 19.244304 14.304554 C 19.287523 14.212719 19.329075 14.194379 19.375045 14.158309 C 19.421011 14.122234 19.473865 14.085885 19.533175 14.048755 C 19.651802 13.974503 19.795627 13.895635 19.937285 13.820345 C 20.141707 13.711699 20.364927 13.612628 20.501591 13.553178 C 20.482663 13.522716 20.463302 13.491399 20.447331 13.465845 C 20.261297 13.168189 19.703187 11.927954 19.579167 11.493872 C 19.496618 11.204977 19.274435 10.708683 19.158521 10.411768 C 19.115229 10.397056 19.072484 10.382784 19.025196 10.365259 C 18.746725 10.262062 18.41028 10.114804 18.158065 9.8986209 C 17.942306 9.7136849 17.642635 9.454578 17.392737 9.2170087 C 17.299026 9.1279203 17.216151 9.0438971 17.142107 8.9643109 z M 13.175424 12.441618 C 12.069002 12.452688 11.571234 12.811237 11.318172 13.169739 C 11.061145 13.53391 11.060307 13.916462 11.060307 14.015682 C 11.060307 14.114902 11.061145 14.495421 11.318172 14.859558 C 11.575234 15.223729 12.085097 15.589746 13.22865 15.589746 C 14.372202 15.589746 14.88365 15.223729 15.140678 14.859558 C 15.39774 14.495421 15.398544 14.114902 15.398544 14.015682 C 15.398544 13.916462 15.39774 13.53391 15.140678 13.169739 C 14.88365 12.805568 14.372202 12.441618 13.22865 12.441618 C 13.21975 12.441618 13.210638 12.441574 13.201778 12.441618 C 13.192978 12.441662 13.184134 12.441531 13.175424 12.441618 z M 5.7603721 13.876673 C 5.6739631 14.023353 5.5832655 14.184014 5.5040569 14.34021 L 5.5040569 17.507459 C 5.5341289 17.532629 5.5616979 17.554993 5.5919069 17.580323 C 5.6995251 17.670583 5.8010728 17.754625 5.8973146 17.834054 C 5.9870825 17.750104 6.3331742 17.441698 6.4238975 17.276982 C 6.3551056 17.202334 6.2878747 17.129894 6.2146079 17.048572 C 6.1024133 16.924044 5.9941029 16.79953 5.9102337 16.693555 C 5.8682998 16.640575 5.8318997 16.593665 5.8027467 16.546794 C 5.7881697 16.523364 5.7757236 16.50026 5.7634726 16.47083 C 5.7512237 16.4414 5.7320024 16.40846 5.7443524 16.328203 C 5.7553373 16.256783 5.7653253 16.253227 5.7774253 16.228467 C 5.7895253 16.203707 5.8051988 16.177072 5.8223838 16.146302 C 5.8372498 16.119682 5.8544057 16.089035 5.8730267 16.056385 L 5.8730267 13.941785 C 5.8341457 13.919345 5.7956136 13.897123 5.7603721 13.876673 z M 20.697962 13.876673 C 20.662152 13.897484 20.623315 13.919965 20.583757 13.942819 L 20.583757 16.051734 C 20.603467 16.086244 20.621397 16.11839 20.636984 16.146302 C 20.654174 16.177072 20.667775 16.203707 20.679875 16.228467 C 20.691975 16.253227 20.704025 16.256783 20.715015 16.328203 C 20.727375 16.408481 20.707638 16.4414 20.695378 16.47083 C 20.683118 16.50026 20.669134 16.523364 20.654554 16.546794 C 20.625395 16.593658 20.591084 16.640565 20.549134 16.693555 C 20.465238 16.79953 20.354405 16.924562 20.242176 17.049089 C 20.16895 17.13034 20.102591 17.202383 20.034437 17.276982 C 20.125236 17.441838 20.47161 17.750934 20.561019 17.834571 C 20.657438 17.754998 20.759018 17.670816 20.866944 17.580323 C 20.897353 17.554826 20.925044 17.532275 20.955311 17.506942 L 20.955311 14.342277 C 20.875848 14.185435 20.784764 14.024 20.697962 13.876673 z M 6.2967734 14.180013 L 6.2967734 15.349968 C 6.3105634 15.327008 6.3243486 15.304258 6.3381146 15.281238 C 6.4743479 15.05345 6.6074879 14.825274 6.6993329 14.650269 C 6.7397278 14.573299 6.7691799 14.514528 6.7892498 14.466818 C 6.7639189 14.448628 6.7387219 14.431773 6.7013999 14.408423 C 6.5980438 14.343733 6.4588733 14.266149 6.3220949 14.193449 C 6.3139249 14.189149 6.3051384 14.184553 6.2967734 14.180013 z M 20.162077 14.180013 C 20.153718 14.1845 20.144924 14.189108 20.136756 14.193449 C 19.999974 14.266148 19.861326 14.343733 19.757968 14.408423 C 19.720648 14.431783 19.695448 14.448618 19.670118 14.466818 C 19.690198 14.514526 19.717588 14.573339 19.757968 14.650269 C 19.849814 14.825274 19.982949 15.05345 20.119186 15.281238 C 20.133438 15.305068 20.147761 15.328786 20.162077 15.352552 L 20.162077 14.180013 z M 5.0803102 15.475542 C 5.0202312 15.624291 4.962748 15.74516 4.9195965 15.809888 C 4.8203756 15.958719 4.8389735 15.97122 4.7707683 15.97732 C 4.7025594 15.98342 4.5723245 15.96487 4.4793133 16.095142 C 4.3997243 16.206573 4.2616592 16.653493 4.2038779 16.908529 C 4.4215454 16.887359 4.6578858 16.878849 4.8674033 17.009815 C 4.9273162 17.047265 5.0014168 17.101635 5.0803102 17.16226 L 5.0803102 15.475542 z M 21.379057 15.478125 L 21.379057 17.16226 C 21.457899 17.101669 21.532087 17.047238 21.591964 17.009815 C 21.80187 16.878607 22.036854 16.887266 22.254456 16.908529 C 22.196672 16.653493 22.058613 16.206573 21.979021 16.095142 C 21.886001 15.964867 21.755776 15.98342 21.687566 15.97732 C 21.619346 15.97112 21.637935 15.95872 21.538738 15.809888 C 21.495843 15.745546 21.438745 15.625677 21.379057 15.478125 z M 12.663827 16.190743 C 12.657927 16.190846 12.652167 16.191192 12.646257 16.19126 C 12.551627 16.19236 12.46359 16.195079 12.39666 16.201079 C 12.33809 16.206379 12.290979 16.219742 12.287622 16.219682 C 12.222922 16.247962 12.206352 16.242167 12.171867 16.246037 C 12.154927 16.247937 12.13658 16.250122 12.11709 16.251722 L 12.11709 16.873906 C 12.492171 16.875706 12.740809 16.87714 13.01781 16.87804 L 13.01781 16.193844 C 12.906557 16.192244 12.790491 16.190043 12.681914 16.190743 C 12.675914 16.190781 12.669767 16.190641 12.663827 16.190743 z M 13.72216 16.190743 C 13.6915 16.190769 13.660403 16.19102 13.629143 16.19126 C 13.566633 16.191741 13.503396 16.192427 13.441557 16.193327 L 13.441557 16.879074 C 13.675332 16.879531 14.025782 16.879033 14.339694 16.879074 L 14.339694 16.251205 C 14.320914 16.249605 14.303284 16.247937 14.286984 16.246037 C 14.252504 16.242137 14.235914 16.247942 14.171228 16.219682 C 14.167928 16.219726 14.121268 16.206329 14.062708 16.201079 C 13.995778 16.194979 13.907224 16.19236 13.812594 16.19126 C 13.783024 16.190917 13.75281 16.190718 13.72216 16.190743 z M 9.6340375 16.247587 C 9.6331199 16.254887 9.6321337 16.261778 9.6314537 16.269808 C 9.6170827 16.438175 9.6029193 16.714131 9.6081993 16.863054 C 9.7282758 16.863325 10.124067 16.865571 10.370943 16.866671 L 10.370943 16.261023 C 10.14158 16.257623 9.9246509 16.253821 9.7441083 16.250171 C 9.6996634 16.249281 9.6737553 16.248487 9.6340375 16.247587 z M 16.824296 16.247587 C 16.784777 16.248474 16.758986 16.249271 16.714742 16.250171 C 16.533678 16.253771 16.315997 16.257573 16.08584 16.261023 L 16.08584 16.87959 C 16.411086 16.87936 16.691723 16.879001 16.850135 16.879074 C 16.857035 16.7345 16.84184 16.444007 16.82688 16.269808 C 16.826192 16.261808 16.825196 16.254907 16.824296 16.247587 z M 11.69541 16.265674 C 11.439455 16.269174 11.118809 16.268874 10.79469 16.266191 L 10.79469 16.868221 C 11.139695 16.869921 11.307462 16.870456 11.69541 16.872356 L 11.69541 16.265674 z M 14.76344 16.265674 L 14.76344 16.87959 C 15.112632 16.879496 15.328234 16.879825 15.664161 16.87959 L 15.664161 16.266191 C 15.340113 16.268791 15.01939 16.269191 14.76344 16.265674 z M 9.6846804 17.287317 C 9.5962815 17.560109 9.4301318 18.2183 9.3947756 18.543571 C 9.3509347 18.946982 9.0877376 20.306363 9.0438926 20.665923 C 9.0000517 21.025446 8.7767202 24.08229 8.8015302 24.330298 C 8.8263321 24.578345 8.6674484 25.169327 9.0712812 25.097177 C 9.4751117 25.025027 12.10373 25.23466 12.20184 25.30595 C 12.248579 25.339909 12.399752 24.837205 12.549105 24.288441 C 12.276553 24.286941 11.915932 24.282737 11.525395 24.271387 C 11.158707 24.260687 10.786391 24.24421 10.486182 24.21661 C 10.336078 24.20281 10.203935 24.18515 10.095508 24.1639 C 10.041298 24.15327 9.9933797 24.1432 9.9471967 24.12721 C 9.9010137 24.11122 9.8553407 24.09765 9.7988853 24.04091 C 9.6993294 23.940865 9.6987333 23.869906 9.6717613 23.767542 C 9.6447883 23.665178 9.6212383 23.540085 9.5994143 23.398572 C 9.5557673 23.115571 9.5200943 22.76382 9.4981285 22.414136 C 9.4761605 22.064476 9.4682575 21.719401 9.4805585 21.445203 C 9.4867085 21.308105 9.4972566 21.190284 9.5177655 21.089669 C 9.5280215 21.039359 9.538746 20.993619 9.560657 20.945492 C 9.582568 20.897362 9.6124321 20.832217 9.7048342 20.79098 C 9.7980321 20.74936 9.8464878 20.76621 9.8965538 20.77341 C 9.9466167 20.78061 9.996208 20.794077 10.052617 20.810617 C 10.165422 20.843687 10.300018 20.892617 10.456726 20.955311 C 10.770143 21.080676 11.162672 21.257042 11.558468 21.441586 C 12.145427 21.715273 12.650638 21.964306 12.988872 22.133017 C 13.017262 21.806425 13.038379 21.486043 13.030729 21.384742 C 13.02554 21.316012 13.003642 21.246833 12.988872 21.184237 C 12.903602 21.050454 12.646055 20.64545 12.53722 20.464901 C 12.412173 20.25751 12.163849 19.82809 11.986349 19.316651 C 11.893429 19.048888 11.804098 18.649447 11.734168 18.285189 C 11.699198 18.103061 11.669465 17.931114 11.648385 17.792713 C 11.627305 17.654312 11.615312 17.566299 11.615312 17.484205 C 11.615312 17.406025 11.616496 17.373783 11.617896 17.296102 C 10.819848 17.292402 10.025557 17.288417 9.6846804 17.287317 z M 12.040092 17.298169 C 12.038792 17.361199 12.036992 17.426896 12.036992 17.484205 C 12.036992 17.484994 12.048464 17.597016 12.068514 17.728634 C 12.088564 17.860252 12.116163 18.027964 12.150163 18.205091 C 12.218173 18.55932 12.310331 18.95717 12.386841 19.177641 C 12.548216 19.642646 12.781652 20.049193 12.900505 20.24631 C 12.973115 20.366739 13.116021 20.592596 13.229684 20.771859 C 13.35187 20.579215 13.492069 20.357091 13.558863 20.24631 C 13.677715 20.049193 13.911176 19.642646 14.072526 19.177641 C 14.149036 18.95717 14.240678 18.559321 14.308688 18.205091 C 14.342688 18.027964 14.370813 17.860252 14.390853 17.728634 C 14.410953 17.597016 14.419792 17.484994 14.419792 17.484205 C 14.419792 17.411855 14.418508 17.37924 14.417208 17.303854 C 13.966481 17.303854 13.536262 17.303655 13.22865 17.30282 C 12.918822 17.301936 12.489367 17.300269 12.040092 17.298169 z M 16.778304 17.30282 C 16.404602 17.302811 15.621927 17.303629 14.840955 17.303854 C 14.842255 17.379474 14.843539 17.409244 14.843539 17.484205 C 14.843539 17.566304 14.829489 17.654312 14.808399 17.792713 C 14.787309 17.931114 14.757576 18.103061 14.722616 18.285189 C 14.652686 18.649447 14.565422 19.048888 14.472502 19.316651 C 14.295004 19.828091 14.047195 20.25751 13.922148 20.464901 C 13.812704 20.646417 13.552034 21.05565 13.468429 21.186821 C 13.453739 21.248711 13.432694 21.316951 13.427605 21.384742 C 13.419905 21.486043 13.441072 21.806425 13.469462 22.133017 C 13.807096 21.96432 14.311175 21.715326 14.898316 21.441586 C 15.294121 21.257042 15.686638 21.080677 16.000057 20.955311 C 16.156777 20.892621 16.293422 20.843687 16.406234 20.810617 C 16.462644 20.794077 16.512227 20.78061 16.562297 20.77341 C 16.612367 20.76621 16.658768 20.74936 16.751949 20.79098 C 16.844349 20.832219 16.874754 20.897362 16.896643 20.945492 C 16.918553 20.993622 16.931342 21.039362 16.941602 21.089669 C 16.962112 21.190284 16.972092 21.308105 16.978292 21.445203 C 16.990592 21.719401 16.982692 22.064474 16.960722 22.414136 C 16.938762 22.76382 16.903082 23.115569 16.859436 23.398572 C 16.837606 23.540085 16.814059 23.665178 16.787089 23.767542 C 16.760119 23.869906 16.757979 23.940863 16.658415 24.04091 C 16.601965 24.09766 16.557834 24.110703 16.511654 24.126693 C 16.465464 24.142683 16.417564 24.15327 16.363343 24.1639 C 16.25491 24.18515 16.122785 24.20281 15.972669 24.21661 C 15.672437 24.24421 15.298087 24.260687 14.931389 24.271387 C 14.54207 24.282737 14.181601 24.286951 13.909229 24.288441 C 14.058581 24.837207 14.209752 25.339911 14.256494 25.30595 C 14.354604 25.23465 16.983205 25.025027 17.387053 25.097177 C 17.790861 25.169327 17.631994 24.578345 17.656804 24.330298 C 17.681604 24.08229 17.458291 21.025446 17.414441 20.665923 C 17.370591 20.306363 17.107408 18.946982 17.063558 18.543571 C 17.028818 18.223974 16.867774 17.583869 16.778304 17.30282 z M 4.3082643 17.329692 C 4.2686713 17.329819 4.2282643 17.33186 4.1883749 17.33486 C 4.2077789 17.43153 4.24376 17.509056 4.2932781 17.533814 C 4.392493 17.583424 3.8345103 18.439185 3.7165691 18.656226 C 3.5987509 18.873267 3.3196906 19.245332 3.3010906 19.375562 C 3.2824906 19.505792 3.25143 20.510377 3.24528 20.770826 C 3.23907 21.031236 3.2824955 21.204904 3.3320964 21.235914 C 3.3817114 21.266924 3.4065105 21.471553 3.4933269 21.496363 C 3.5801398 21.521113 3.6917688 21.539725 3.7413738 21.508765 C 3.7910197 21.477755 3.7662261 21.242072 3.7537761 21.1615 C 3.7413711 21.08089 3.7785884 21.049928 3.7971843 21.087085 C 3.8157853 21.124305 3.8344055 21.223515 3.9770183 21.242115 C 4.1196945 21.260715 4.1258465 21.229671 4.1258465 21.167701 C 4.1258465 21.105691 3.9150543 20.386348 3.9026043 20.305738 C 3.8901993 20.225128 4.1692656 19.580201 4.4235027 19.425171 C 4.6777406 19.270189 4.708709 19.263937 4.721159 19.294947 C 4.733564 19.325957 4.7087597 19.468578 4.8141766 19.511988 C 4.919589 19.555398 5.0870336 19.592595 5.1490398 19.549195 C 5.2110518 19.505785 5.4466996 18.557013 5.4652996 18.426783 C 5.4827516 18.304692 5.4676902 18.133328 5.5474651 18.097087 C 5.4724192 18.033797 5.4017533 17.974122 5.3185385 17.904334 C 5.0454411 17.675296 4.7474271 17.432926 4.6426108 17.367416 C 4.6140028 17.349566 4.4686796 17.329172 4.3082643 17.329692 z M 22.149036 17.329692 C 21.988634 17.329165 21.843317 17.349521 21.81469 17.367416 C 21.70985 17.432941 21.411927 17.675292 21.138762 17.904334 C 21.055571 17.974088 20.985118 18.033819 20.910352 18.097087 C 20.990632 18.1329 20.975565 18.304469 20.993034 18.426783 C 21.011634 18.557008 21.247284 19.505785 21.309294 19.549195 C 21.371304 19.592595 21.538775 19.555398 21.644157 19.511988 C 21.749617 19.468578 21.724725 19.325957 21.737175 19.294947 C 21.749575 19.263947 21.780626 19.270178 22.034831 19.425171 C 22.289079 19.580201 22.56818 20.225128 22.55573 20.305738 C 22.54333 20.386358 22.332488 21.105691 22.332488 21.167701 C 22.332488 21.229671 22.338688 21.260715 22.481316 21.242115 C 22.623939 21.223515 22.64255 21.124295 22.66115 21.087085 C 22.67975 21.049916 22.717008 21.08088 22.704558 21.1615 C 22.692198 21.242079 22.66736 21.477755 22.71696 21.508765 C 22.76657 21.539725 22.878187 21.521173 22.965007 21.496363 C 23.051827 21.471563 23.076638 21.266924 23.126238 21.235914 C 23.175858 21.204904 23.219154 21.031236 23.213054 20.770826 C 23.206854 20.510377 23.175843 19.505792 23.157243 19.375562 C 23.138643 19.245337 22.85959 18.873267 22.741765 18.656226 C 22.623943 18.439185 22.065826 17.583424 22.165056 17.533814 C 22.214551 17.509052 22.250033 17.431524 22.269442 17.33486 C 22.229312 17.331812 22.188883 17.329823 22.149036 17.329692 z M 9.9275597 21.214726 C 9.9171517 21.277846 9.9070282 21.355934 9.9022382 21.462773 C 9.8910682 21.711758 9.8985282 22.049969 9.9198082 22.388815 C 9.9410932 22.727661 9.9766527 23.069305 10.017477 23.333977 C 10.037887 23.466313 10.059225 23.579118 10.080005 23.657988 C 10.091805 23.702868 10.101876 23.724755 10.102226 23.730335 C 10.120136 23.736035 10.143194 23.743172 10.177674 23.749972 C 10.228444 23.759872 10.296283 23.769484 10.370943 23.778394 L 10.370943 21.376474 C 10.348153 21.367174 10.322523 21.356285 10.300664 21.347535 C 10.150869 21.287605 10.023288 21.243043 9.9337608 21.216793 C 9.9310308 21.215993 9.9302197 21.215526 9.9275597 21.214726 z M 16.531291 21.214726 C 16.528591 21.215526 16.528307 21.215993 16.525607 21.216793 C 16.436067 21.243043 16.307994 21.287603 16.158187 21.347535 C 16.134897 21.356835 16.11016 21.36705 16.08584 21.37699 L 16.08584 23.779428 C 16.16272 23.770328 16.229246 23.760152 16.281177 23.749972 C 16.314137 23.743472 16.336858 23.735945 16.354558 23.730335 C 16.355349 23.724135 16.365169 23.702048 16.376779 23.657988 C 16.397559 23.579118 16.420964 23.466313 16.441374 23.333977 C 16.482194 23.069305 16.517763 22.727661 16.539043 22.388815 C 16.560323 22.049969 16.567783 21.711758 16.556613 21.462773 C 16.551813 21.355934 16.541701 21.277846 16.531291 21.214726 z M 15.664161 21.556824 C 15.477236 21.639484 15.27831 21.73069 15.07815 21.823991 C 14.971244 21.873831 14.866098 21.923031 14.76344 21.971786 L 14.76344 23.851775 C 14.81457 23.850475 14.866522 23.849141 14.92002 23.847641 C 15.17605 23.840141 15.434154 23.829664 15.664161 23.815084 L 15.664161 21.556824 z M 10.79469 21.557341 L 10.79469 23.815084 C 11.025001 23.829694 11.282508 23.840161 11.538831 23.847641 C 11.592391 23.849241 11.644265 23.850475 11.69541 23.851775 L 11.69541 21.972303 C 11.592771 21.923573 11.487607 21.874353 11.380701 21.824508 C 11.180461 21.731138 10.981709 21.640058 10.79469 21.557341 z M 12.11709 22.174874 L 12.11709 23.860043 C 12.332238 23.863143 12.516009 23.864294 12.66176 23.864694 C 12.780507 23.410884 12.879411 23.011976 12.894304 22.959839 C 12.905854 22.919419 12.925093 22.772996 12.945463 22.584152 C 12.769553 22.495452 12.473333 22.347547 12.11709 22.174874 z M 14.339694 22.175908 C 13.983993 22.348559 13.688294 22.496206 13.512871 22.584669 C 13.533221 22.773234 13.55249 22.919457 13.56403 22.959839 C 13.57892 23.011969 13.677827 23.410884 13.796574 23.864694 C 13.942149 23.864373 14.125583 23.863243 14.339694 23.860043 L 14.339694 22.175908 z " />
      <path
         id="mirror-path-effect39543-2"
         style="fill:#ffffff;fill-opacity:1;stroke:none;stroke-width:0.42333334;stroke-linecap:butt;stroke-linejoin:miter;stroke-miterlimit:4;stroke-dasharray:none;stroke-opacity:1"
         d="M 13.22865 1.26969 C 12.943298 1.26969 12.679684 1.3011163 12.452987 1.4081828 C 12.22629 1.5152494 12.026524 1.6938137 11.857674 2.0427694 C 11.49149 2.7994158 11.476965 2.9765904 11.490255 3.4473349 C 11.504093 3.9355451 11.510136 4.7126717 11.968779 5.3924358 C 12.218285 5.762245 12.404212 6.0296153 12.585795 6.1892865 C 12.767381 6.3489573 12.933223 6.4182131 13.22865 6.4182131 C 13.524079 6.4182132 13.689401 6.3489574 13.870988 6.1892865 C 14.052574 6.0296153 14.240567 5.7622449 14.490072 5.3924358 C 14.948708 4.7126642 14.954806 3.9354994 14.968596 3.4473349 C 14.981938 2.9766098 14.967874 2.7994209 14.601693 2.0427694 C 14.432843 1.6938138 14.232561 1.5152494 14.005864 1.4081828 C 13.779168 1.3011163 13.514005 1.26969 13.22865 1.26969 z M 12.539287 2.0117636 C 12.592859 2.0101696 12.660641 2.0330667 12.703101 2.0686076 C 12.745571 2.1041481 12.765315 2.1407285 12.777515 2.1698934 C 12.801865 2.228223 12.803621 2.266777 12.808521 2.3047689 C 12.818351 2.3807527 12.825161 2.4532408 12.843661 2.5135417 C 12.862161 2.5738423 12.884711 2.6139413 12.931511 2.6484172 C 12.978314 2.6828922 13.061866 2.7186972 13.22865 2.7186972 C 13.395433 2.7186972 13.478473 2.6828932 13.525273 2.6484172 C 13.572073 2.6139417 13.59669 2.5738427 13.61519 2.5135417 C 13.63369 2.4532411 13.64053 2.3807529 13.65033 2.3047689 C 13.65524 2.2667774 13.657453 2.2282234 13.681853 2.1698934 C 13.694053 2.140728 13.71329 2.1041486 13.75575 2.0686076 C 13.798216 2.0330667 13.866511 2.0101636 13.920081 2.0117636 C 14.123758 2.0178276 14.345988 2.0976976 14.560352 2.1915975 L 14.390853 2.5781373 C 14.260596 2.5210798 14.151815 2.5001447 14.048755 2.4763347 C 14.041715 2.5288666 14.04008 2.5688077 14.0193 2.6365316 C 13.983362 2.7536715 13.911667 2.8911365 13.777454 2.9899984 C 13.64324 3.08886 13.45871 3.1424439 13.22865 3.1424439 C 12.998588 3.1424439 12.81561 3.0888603 12.681397 2.9899984 C 12.547183 2.8911366 12.475491 2.7536716 12.439551 2.6365316 C 12.418751 2.5688894 12.417096 2.5288306 12.410096 2.4763347 C 12.307037 2.5001452 12.198772 2.5210803 12.068514 2.5781373 L 11.898499 2.1915975 C 12.112863 2.0976981 12.335609 2.0178236 12.539287 2.0117636 z M 11.733651 3.0225546 C 11.736467 3.022375 11.739349 3.022487 11.741919 3.0225546 C 11.747059 3.0226899 11.751622 3.0233641 11.755872 3.0235881 C 11.772862 3.0244881 11.784646 3.0268525 11.795146 3.0292725 C 11.816146 3.0341035 11.833383 3.0400225 11.851473 3.0468425 C 11.887659 3.0604755 11.928323 3.0774785 11.974463 3.0995525 C 12.066753 3.1437003 12.179446 3.2046362 12.294857 3.2675009 C 12.410268 3.3303651 12.526915 3.3960095 12.620935 3.4509522 C 12.714956 3.5058952 12.775196 3.5397232 12.822473 3.5760092 C 12.91163 3.6444352 12.941049 3.7207724 12.976469 3.8064861 C 13.011889 3.8922001 13.046176 3.9703565 13.031246 4.0819215 C 13.02054 4.1622166 12.965533 4.2064296 12.927893 4.2286826 C 12.890258 4.2509353 12.854939 4.2611172 12.818339 4.2695069 C 12.745148 4.2862836 12.663627 4.2903369 12.57236 4.2870769 C 12.389823 4.2805605 12.176453 4.2418968 11.998234 4.128947 C 11.767378 3.9826375 11.652919 3.749269 11.599809 3.5527548 C 11.573259 3.4544977 11.561237 3.3645467 11.560535 3.289205 C 11.560135 3.2515341 11.560586 3.217471 11.568286 3.181718 C 11.572126 3.163841 11.577981 3.1450116 11.589991 3.1212566 C 11.602011 3.0975016 11.621043 3.061341 11.675773 3.037024 C 11.676643 3.036636 11.711986 3.0251181 11.724866 3.0235881 C 11.728086 3.0232056 11.730835 3.0227343 11.733651 3.0225546 z M 14.723133 3.0225546 C 14.728273 3.0224194 14.733746 3.0228231 14.740186 3.0235881 C 14.753066 3.0251151 14.789957 3.0366364 14.790829 3.037024 C 14.845559 3.061341 14.865118 3.0975006 14.877128 3.1212566 C 14.889158 3.1450126 14.892449 3.163841 14.896249 3.181718 C 14.903949 3.2174709 14.906418 3.251534 14.906067 3.289205 C 14.905367 3.3645469 14.89387 3.45243 14.86731 3.5506878 C 14.814197 3.7472022 14.699742 3.9826374 14.468885 4.128947 C 14.290665 4.241897 14.077296 4.2805569 13.894759 4.2870769 C 13.803493 4.2903349 13.719903 4.2862839 13.646713 4.2695069 C 13.610122 4.2611181 13.576866 4.2509354 13.539226 4.2286826 C 13.50159 4.2064293 13.446056 4.1622163 13.435356 4.0819215 C 13.420416 3.9703564 13.452646 3.8921999 13.488066 3.8064861 C 13.523484 3.7207721 13.55343 3.644435 13.642578 3.5760092 C 13.68986 3.5397221 13.751647 3.5043449 13.845667 3.4494019 C 13.939689 3.394459 14.054266 3.3303647 14.169678 3.2675009 C 14.28509 3.2046368 14.399849 3.1437003 14.492139 3.0995525 C 14.538285 3.0774785 14.578949 3.0604755 14.615129 3.0468425 C 14.633219 3.0400265 14.648896 3.0341025 14.669906 3.0292725 C 14.680406 3.0268525 14.69219 3.0244841 14.70918 3.0235881 C 14.71343 3.0233641 14.717993 3.0226899 14.723133 3.0225546 z M 11.898499 3.4178793 C 11.902199 3.4368093 11.90085 3.4484602 11.90625 3.4685222 C 11.945493 3.6137189 12.029551 3.7736884 12.167733 3.8612631 C 12.269675 3.9258709 12.444444 3.9658309 12.584245 3.9708172 C 12.63083 3.9724872 12.660072 3.9668457 12.693282 3.9630657 C 12.688882 3.9451607 12.690864 3.9458567 12.683464 3.9279257 C 12.662919 3.878205 12.621607 3.8274791 12.624553 3.8256064 C 12.619187 3.8221842 12.547763 3.7756911 12.460738 3.7248373 C 12.369951 3.6717836 12.256906 3.6062423 12.144479 3.5450033 C 12.054705 3.4961035 11.973139 3.4551003 11.898499 3.4178793 z M 14.568103 3.4183961 C 14.493402 3.4556243 14.412104 3.4959874 14.322124 3.5450033 C 14.209697 3.606242 14.096654 3.6717835 14.005864 3.7248373 C 13.918783 3.775723 13.84541 3.8222395 13.839982 3.8256064 C 13.843301 3.8274791 13.803683 3.8782049 13.783138 3.9279257 C 13.775738 3.9457697 13.77762 3.9452307 13.77332 3.9630657 C 13.806525 3.9668457 13.836284 3.9724772 13.882874 3.9708172 C 14.022637 3.9658279 14.196927 3.9258711 14.298869 3.8612631 C 14.437052 3.7736882 14.521112 3.613719 14.560352 3.4685222 C 14.565701 3.4486506 14.564531 3.4370136 14.568103 3.4183961 z " />
    </g>
  </g>
</svg>
