<?xml version="1.0" encoding="UTF-8" standalone="no"?>
<!-- Created with Inkscape (http://www.inkscape.org/) -->

<svg
   width="100"
   height="100"
   viewBox="0 0 26.458333 26.458334"
   version="1.1"
   id="svg5"
   inkscape:version="1.1.1 (3bf5ae0d25, 2021-09-20)"
   sodipodi:docname="iconu_bsuit - Copie.svg"
   inkscape:export-filename="E:\unvanquished assets\icons\iconu_bsuit.png"
   inkscape:export-xdpi="96"
   inkscape:export-ydpi="96"
   xmlns:inkscape="http://www.inkscape.org/namespaces/inkscape"
   xmlns:sodipodi="http://sodipodi.sourceforge.net/DTD/sodipodi-0.dtd"
   xmlns="http://www.w3.org/2000/svg"
   xmlns:svg="http://www.w3.org/2000/svg">
  <sodipodi:namedview
     id="namedview7"
     pagecolor="#ffffff"
     bordercolor="#666666"
     borderopacity="1.0"
     inkscape:pageshadow="2"
     inkscape:pageopacity="0.0"
     inkscape:pagecheckerboard="0"
     inkscape:document-units="mm"
     showgrid="true"
     units="px"
     inkscape:zoom="8"
     inkscape:cx="79.1875"
     inkscape:cy="44.3125"
     inkscape:window-width="1920"
     inkscape:window-height="1017"
     inkscape:window-x="-8"
     inkscape:window-y="-8"
     inkscape:window-maximized="1"
     inkscape:current-layer="layer1">
    <inkscape:grid
       type="xygrid"
       id="grid1942" />
  </sodipodi:namedview>
  <defs
     id="defs2">
    <inkscape:path-effect
       effect="mirror_symmetry"
       start_point="22.489583,1.3229166"
       end_point="22.489583,6.6145833"
       center_point="22.489583,3.9687499"
       id="path-effect5216"
       is_visible="true"
       lpeversion="1.1"
       mode="free"
       discard_orig_path="false"
       fuse_paths="false"
       oposite_fuse="false"
       split_items="true"
       split_open="false" />
    <inkscape:path-effect
       effect="mirror_symmetry"
       start_point="13.229167,18.25625"
       end_point="13.229167,23.8125"
       center_point="13.229167,21.034375"
       id="path-effect2322"
       is_visible="true"
       lpeversion="1.1"
       mode="free"
       discard_orig_path="false"
       fuse_paths="false"
       oposite_fuse="false"
       split_items="true"
       split_open="false" />
    <inkscape:path-effect
       effect="mirror_symmetry"
       start_point="10.583333,0.52694874"
       end_point="10.583333,26.00396"
       center_point="10.583333,13.265455"
       id="path-effect2647"
       is_visible="true"
       lpeversion="1.1"
       mode="free"
       discard_orig_path="false"
       fuse_paths="false"
       oposite_fuse="false"
       split_items="true"
       split_open="false" />
    <inkscape:path-effect
       effect="mirror_symmetry"
       start_point="10.591468,0.62624476"
       end_point="10.513751,4.6593088"
       center_point="10.552609,2.6427768"
       id="path-effect1400"
       is_visible="true"
       lpeversion="1.1"
       mode="free"
       discard_orig_path="false"
       fuse_paths="false"
       oposite_fuse="false"
       split_items="false"
       split_open="false" />
  </defs>
  <g
     inkscape:label="Calque 1"
     inkscape:groupmode="layer"
     id="layer1">
    <path
       id="mirror-path-effect5216-6"
       d="M 25.664583,7.9375 V 3.96875 h -5.291666 c 0,0 -1e-6,3.175 0,3.96875 0,0.79375 2.116666,2.645833 2.645833,2.645833 0.529167,1e-6 2.645833,-1.852083 2.645833,-2.645833 z"
       style="fill:#ffffff;fill-opacity:1;stroke:#000000;stroke-width:0.33072917;stroke-linecap:butt;stroke-linejoin:miter;stroke-miterlimit:4;stroke-dasharray:none;stroke-opacity:1"
       sodipodi:nodetypes="scczzs"
       inkscape:export-filename="/media/stela/My Passport/unvanquished assets/icons/bsuit2.png"
       inkscape:export-xdpi="480"
       inkscape:export-ydpi="480" />
    <path
       id="mirror-path-effect5216-6-3"
       d="M 24.60625,7.6729166 V 5.2916664 h -3.175 c 0,0 -10e-7,1.9050002 0,2.3812502 0,0.47625 1.27,1.5875 1.5875,1.5875 0.3175,0 1.5875,-1.11125 1.5875,-1.5875 z"
       style="fill:#ffffff;fill-opacity:1;stroke:#000000;stroke-width:0.3175;stroke-linecap:butt;stroke-linejoin:miter;stroke-miterlimit:4;stroke-dasharray:none;stroke-opacity:1"
       sodipodi:nodetypes="scczzs"
       inkscape:export-filename="/media/stela/My Passport/unvanquished assets/icons/iconu_bsuit.png"
       inkscape:export-xdpi="96"
       inkscape:export-ydpi="96" />
    <path
       sodipodi:type="star"
       style="fill:#ffffff;fill-rule:evenodd;stroke:#000000;stroke-width:1.55160056;stroke-linejoin:round;stroke-miterlimit:4;stroke-dasharray:none;stroke-opacity:1;paint-order:markers fill stroke"
       id="path2402"
       inkscape:flatsided="false"
       sodipodi:sides="4"
       sodipodi:cx="72.241669"
       sodipodi:cy="2.4176538"
       sodipodi:r1="7.3189363"
       sodipodi:r2="3.0143113"
       sodipodi:arg1="0"
       sodipodi:arg2="0.78539816"
       inkscape:rounded="0"
       inkscape:randomized="0"
       d="m 79.560605,2.4176538 -5.187496,2.13144 -2.13144,5.1874963 -2.13144,-5.1874963 -5.187497,-2.13144 5.187497,-2.13143996 2.13144,-5.18749634 2.13144,5.18749632 z"
       transform="matrix(0.17052284,0,0,0.17052284,10.699895,6.5417723)" />
    <path
       style="fill:#ffffff;fill-opacity:1;stroke:#000000;stroke-width:0.3175;stroke-linecap:butt;stroke-linejoin:miter;stroke-miterlimit:4;stroke-dasharray:none;stroke-opacity:1"
       d="m 10.459936,4.3530551 c 0,0 -0.75295,0.015906 -0.912024,0.4560122 C 9.388838,5.249172 9.396792,5.5858788 9.378234,5.5938323 9.359674,5.6017823 8.70482,6.0392396 8.627934,6.0233321 8.551054,6.0074252 6.6819288,4.689762 6.1092624,5.3684777 5.5365959,6.0471935 5.3881269,6.5774401 5.3987318,7.4046249 5.409339,8.2318098 5.8971637,9.302908 6.024423,9.4407721 6.1516825,9.5786362 6.0191129,9.8941328 5.918374,10.061161 5.8176274,10.228188 5.538003,11.002268 5.5042582,11.111 c -0.033746,0.108734 -0.074988,0.153726 -0.0075,0.19497 0.06749,0.04124 0.153726,0.02625 0.1462269,0.07124 -0.0075,0.04499 -0.4457479,0.810241 -0.5093776,0.836753 -0.063629,0.02651 -0.1855863,-0.02651 -0.2439133,0.04242 -0.058327,0.06893 -0.896117,2.32248 -1.0392836,2.576998 -0.1431666,0.254519 -0.2492159,0.387081 -0.2598208,0.413592 -0.010607,0.02651 -0.097892,0.0072 -0.1672552,0.09336 -0.069364,0.08623 -0.1499766,0.303702 -0.1443524,0.369316 0.00562,0.06562 0.02437,0.151851 0.061866,0.179973 0.037493,0.02811 -0.046868,0.146226 -0.1237311,0.234337 -0.076863,0.08812 -0.6486478,0.82862 -0.749882,1.259802 -0.101234,0.431182 -0.1424776,0.536165 -0.1424776,0.592407 0,0.05624 0.037495,0.08624 0.074988,0.07874 0.037495,-0.0074 0.052492,0.06373 0.063741,0.258708 0.011249,0.19497 0.061866,0.79675 0.082487,0.809874 0.020623,0.01312 0.071239,-0.01499 0.071239,0.03936 0,0.05437 0.035619,0.118103 0.078737,0.136854 0.043119,0.01875 0.048742,0.09186 0.069364,0.09936 0.020623,0.0074 0.228714,0.04312 0.2493357,-0.0019 0.020623,-0.04499 -0.02437,-0.273707 -0.00938,-0.292454 0.014996,-0.01875 0.1293548,0.07498 0.1724729,0.08061 0.043118,0.0056 0.1593499,-0.01312 0.1649741,-0.05624 0.00562,-0.04312 -0.2054804,-0.900684 -0.2078096,-1.095179 -0.00375,-0.313076 0.4644529,-0.799972 0.6909439,-0.771657 0.226491,0.02832 0.268622,0.389569 0.3454853,0.430811 0.076863,0.04125 0.2193406,0.07311 0.298078,-0.101236 0.078738,-0.174348 0.2455865,-0.939228 0.2512106,-0.971098 0.00562,-0.03187 -0.019704,-0.440786 0.079657,-0.49322 0.099359,-0.0525 0.5979494,0.08846 0.586701,-0.06526 -0.011249,-0.153726 0.199756,-0.410681 0.3872264,-0.57003 0.1874708,-0.159351 1.1866884,-1.24293 1.3554112,-1.559756 0.168724,-0.316824 0.236213,-0.34307 0.204343,-0.440555 -0.03187,-0.09748 0.354319,-1.07233 0.374941,-1.092952 0.02062,-0.02062 0.169098,0.01331 0.204717,-0.01106 0.03562,-0.02437 0.44618,-0.706764 0.481799,-0.759256 0.03562,-0.05249 0.190847,-0.613215 0.202094,-0.626338 0.01129,-0.01312 0.07311,0.01312 0.07687,0.03 0.0037,0.01687 -0.07571,0.314085 -0.09821,0.413444 -0.0225,0.09936 -0.06302,0.482666 -0.05364,0.540781 0.0094,0.05812 0.05249,0.187471 0.151851,0.224965 0.09936,0.03749 0.119976,0.0094 0.129356,0.03375 0.0094,0.02437 0.02701,0.06156 0.02436,0.08409 -0.0027,0.02254 -0.04507,0.03579 -0.04375,0.07158 0.0013,0.03579 0.09677,0.357917 0.137864,0.452036 0.04109,0.09412 0.02651,0.115328 0.140515,0.115328 0.113999,0 0.145818,-0.02121 0.149795,-0.0013 0.004,0.01988 -0.13919,0.137864 -0.112677,0.296938 0.02651,0.159075 0.05832,0.625692 0.121963,0.721136 0.06363,0.09544 0.121951,0.111356 0.180284,0.121951 0.05832,0.01065 0.04773,0.440105 0.01591,0.49313 -0.03182,0.05302 -0.159075,0.02651 -0.190889,0.04773 -0.03182,0.02121 -0.286333,0.583271 -0.281031,0.747647 0.0053,0.164377 0.07953,0.180284 0.09014,0.243913 0.01065,0.06363 -0.318148,0.837791 -0.334056,0.959747 -0.01591,0.121964 -0.206796,0.07953 -0.371172,0.137864 -0.164377,0.05832 -0.562062,0.986259 -0.572667,1.087007 -0.01061,0.100749 0.09544,0.355264 0.12726,0.371172 0.03181,0.0159 -0.36587,1.05519 -0.355265,1.431666 0.01061,0.376475 0.07423,2.847424 0.07423,2.964079 0,0.116654 0.09014,0.238611 0.09014,0.265123 0,0.02651 -0.143167,0.137864 -0.169679,0.249216 -0.02651,0.111357 0.03078,0.674289 0.07954,0.827185 0.06506,0.204018 0.1803,0.380241 0.243564,0.365243 0.05302,-0.01065 0.65567,-0.269957 0.929377,-0.273706 0.273706,-0.0037 1.012341,0.07499 1.46977,0.292453 0.457427,0.217467 0.931167,0.33561 0.931167,0.33561 0.339359,0 -0.07837,-0.473454 -0.06124,-0.511832 0.01782,-0.03993 0.157476,-0.01129 0.176222,-0.04874 0.01875,-0.03749 0.06749,-0.708638 0.04125,-0.746133 -0.02624,-0.03749 -0.05624,-0.01129 -0.07874,-0.08624 -0.02255,-0.07498 0.601229,-0.303843 0.601229,-1.321917 0,-1.018073 0.339359,-1.255625 0.678716,-1.255625 0.339358,0 0.678717,0.237552 0.678717,1.255625 0,1.018074 0.623761,1.246936 0.601265,1.321917 -0.0225,0.07496 -0.05248,0.04875 -0.07874,0.08624 -0.02624,0.03749 0.0225,0.708642 0.04125,0.746133 0.01875,0.03745 0.153726,0.01129 0.176221,0.04874 0.0225,0.03749 -0.400639,0.511832 -0.06128,0.511832 0,0 0.47372,-0.118142 0.931149,-0.33561 0.457428,-0.217459 1.196061,-0.296173 1.469768,-0.292453 0.273707,0.0037 0.992663,0.288704 0.992663,0.288704 0.339359,0 0.159084,-0.221169 0.180293,-0.380245 0.02121,-0.159074 0.106046,-0.715828 0.07953,-0.827184 -0.02651,-0.111357 -0.16968,-0.222706 -0.16968,-0.249217 0,-0.02651 0.09014,-0.148469 0.09014,-0.265123 0,-0.116653 0.06363,-2.587604 0.07424,-2.964078 0.01065,-0.376477 -0.38708,-1.415762 -0.355265,-1.431667 0.03182,-0.0159 0.137867,-0.270423 0.127261,-0.371172 -0.01065,-0.100749 -0.40829,-1.028686 -0.572667,-1.087007 -0.164376,-0.05833 -0.355267,-0.0159 -0.371173,-0.137864 -0.0159,-0.12195 -0.344662,-0.896116 -0.334055,-0.959747 0.01065,-0.06363 0.08483,-0.07953 0.09014,-0.243913 0.0053,-0.164375 -0.249215,-0.726433 -0.28103,-0.747647 -0.03182,-0.02121 -0.159074,0.0053 -0.190889,-0.04773 -0.03182,-0.05302 -0.04242,-0.482484 0.0159,-0.49313 0.05832,-0.01065 0.116654,-0.02651 0.180284,-0.121951 0.06363,-0.09544 0.09544,-0.562061 0.121951,-0.721136 0.02651,-0.159074 -0.116653,-0.277055 -0.112677,-0.296938 0.004,-0.01989 0.0358,0.0013 0.149793,0.0013 0.113999,0 0.09943,-0.02121 0.140517,-0.115328 0.0411,-0.09412 0.136543,-0.416244 0.137864,-0.452035 0.0013,-0.03579 -0.04111,-0.04905 -0.04375,-0.07158 -0.0027,-0.02254 0.01498,-0.05972 0.02436,-0.08409 0.0094,-0.02437 0.03,0.0037 0.129354,-0.03375 0.09936,-0.03749 0.142475,-0.166848 0.151851,-0.224964 0.0094,-0.05812 -0.03114,-0.441422 -0.05364,-0.540782 -0.0225,-0.09936 -0.101955,-0.39657 -0.09821,-0.413443 0.0037,-0.01687 0.06562,-0.04312 0.07687,-0.03 0.01129,0.01312 0.166474,0.573846 0.202093,0.626339 0.03562,0.05249 0.44618,0.734883 0.481801,0.759255 0.03562,0.02437 0.184093,-0.0096 0.204716,0.01106 0.02062,0.02062 0.40681,0.995473 0.374941,1.092952 -0.03187,0.09749 0.03562,0.123734 0.204343,0.440556 0.168723,0.316825 1.167941,1.400404 1.355411,1.559755 0.187471,0.159349 0.398476,0.416304 0.387227,0.57003 -0.01129,0.153721 0.487342,0.0127 0.586701,0.06526 0.09936,0.05243 0.07405,0.461347 0.07965,0.49322 0.0056,0.03187 0.172473,0.79675 0.251211,0.971098 0.07874,0.174346 0.221215,0.142485 0.298078,0.101237 0.07687,-0.04125 0.119001,-0.402492 0.345486,-0.430812 0.22649,-0.02832 0.694688,0.458581 0.690943,0.771657 -0.0023,0.194495 -0.213427,1.052058 -0.207809,1.095179 0.0056,0.04312 0.121861,0.06189 0.164974,0.05624 0.04312,-0.0056 0.157476,-0.09936 0.172473,-0.08061 0.01499,0.01875 -0.03,0.24746 -0.0094,0.292454 0.02063,0.04504 0.228713,0.0094 0.249336,0.0019 0.02062,-0.0074 0.02624,-0.08061 0.06936,-0.09936 0.04312,-0.01875 0.07874,-0.08248 0.07874,-0.136854 0,-0.05436 0.05061,-0.02624 0.07124,-0.03936 0.02062,-0.01312 0.07124,-0.614904 0.08248,-0.809873 0.01129,-0.194976 0.02624,-0.266148 0.06375,-0.258709 0.03749,0.0074 0.07499,-0.0225 0.07499,-0.07874 0,-0.05624 -0.04125,-0.161224 -0.142478,-0.592407 -0.101236,-0.431182 -0.673018,-1.171687 -0.749882,-1.259802 -0.07687,-0.08812 -0.161224,-0.206222 -0.123733,-0.234337 0.03749,-0.02812 0.05624,-0.114358 0.06186,-0.179973 0.0056,-0.06562 -0.07499,-0.283086 -0.144353,-0.369316 -0.06936,-0.08618 -0.156648,-0.06685 -0.167255,-0.09336 -0.01065,-0.02651 -0.116654,-0.159073 -0.25982,-0.413592 -0.143167,-0.254518 -0.980957,-2.508066 -1.039284,-2.576998 -0.05832,-0.06893 -0.180284,-0.01591 -0.243913,-0.04242 -0.06363,-0.02651 -0.501875,-0.791761 -0.509378,-0.836754 -0.0074,-0.04499 0.07874,-0.02999 0.146226,-0.07124 0.06748,-0.04124 0.02624,-0.08624 -0.0074,-0.194969 -0.03375,-0.108734 -0.313372,-0.882814 -0.414118,-1.049841 C 19.052666,9.8941291 18.920094,9.5786325 19.047356,9.4407684 19.174617,9.3029043 19.662441,8.231806 19.673048,7.4046212 19.683694,6.5774364 19.535184,6.0471898 18.962518,5.368474 18.389851,4.6897583 16.520732,6.0074211 16.443845,6.0233284 16.366966,6.0392354 15.712105,5.6017826 15.693547,5.5938286 15.674987,5.5858764 15.682901,5.2491683 15.523868,4.8090636 15.364714,4.3689571 14.611764,4.3530514 14.611764,4.3530514"
       id="path3351"
       sodipodi:nodetypes="csssscscsccssssccccsscssssccsccszcsccsssssssscscssccssssscsscsscsssssssccccscsczzzcscsccccssssssscsscsscsssssscsscscssssssssccscssccsccsssscssssccssssssscssssssc" />
    <path
       style="fill:#ffffff;fill-opacity:1;stroke:#000000;stroke-width:0.3175;stroke-linecap:butt;stroke-linejoin:miter;stroke-miterlimit:4;stroke-dasharray:none;stroke-opacity:1"
       d="M 10.51031,4.9336754 C 10.4431,4.8101008 10.43607,4.3397992 10.41487,2.6960345 10.39366,1.0522698 11.668786,1.190134 12.535857,1.190134 c 0.867072,0 2.142197,-0.1378641 2.120987,1.5059006 -0.02121,1.6437647 -0.02823,2.114066 -0.09544,2.2376409 -0.06721,0.1235746 -1.007469,1.6861845 -2.025545,1.6861845 -1.018076,-1e-7 -1.958338,-1.5626096 -2.025545,-1.6861846 z"
       id="path1996"
       sodipodi:nodetypes="zszsszz" />
    <path
       style="fill:none;stroke:#000000;stroke-width:0.3175;stroke-linecap:butt;stroke-linejoin:miter;stroke-miterlimit:4;stroke-dasharray:none;stroke-opacity:1"
       d="m 12.535852,11.710228 c -0.678715,0 -1.408224,-0.237296 -1.711182,-0.415506 C 10.187271,10.919781 9.639857,10.229889 9.429891,9.824953 9.312071,9.597732 9.107441,8.400177 9.174931,7.7927725 9.242421,7.1853682 9.339904,5.6556091 9.339904,5.6556091"
       id="path3485"
       sodipodi:nodetypes="csssc" />
    <path
       style="fill:none;stroke:#000000;stroke-width:0.3175;stroke-linecap:butt;stroke-linejoin:miter;stroke-miterlimit:4;stroke-dasharray:none;stroke-opacity:1"
       d="m 7.869681,18.163329 c 0,0 0.636297,-0.217398 0.933234,0.111356 0.296939,0.328753 1.049889,1.028679 1.145333,2.004332 0.09544,0.975654 0.185587,3.510233 0.09014,3.945035"
       id="path3904"
       sodipodi:nodetypes="cssc" />
    <path
       style="fill:none;stroke:#000000;stroke-width:0.3175;stroke-linecap:butt;stroke-linejoin:miter;stroke-miterlimit:4;stroke-dasharray:none;stroke-opacity:1"
       d="m 3.3344271,15.949805 c 0,0 0.197641,-0.251402 0.3701138,-0.279522 0.1724729,-0.02811 0.5361658,-0.0037 0.7180124,0.112485 0.1818463,0.11623 0.2887042,0.228714 0.3055769,0.266208 0.016873,0.03749 0.067446,0.05434 0.1854257,0.05832 0.1179798,0.004 0.4294999,0.0067 0.4401047,0.0067"
       id="path5026"
       sodipodi:nodetypes="cccssc" />
    <path
       style="fill:none;stroke:#000000;stroke-width:0.3175;stroke-linecap:butt;stroke-linejoin:miter;stroke-miterlimit:4;stroke-dasharray:none;stroke-opacity:1"
       d="m 2.6149368,19.21852 c 0,0 0.2333086,-0.02917 0.2651233,-0.113999 0.031815,-0.08483 0.00264,-0.405637 0.058327,-0.572666 0.055676,-0.167026 0.1829354,-0.228004 0.2227035,-0.262471"
       id="path5867"
       sodipodi:nodetypes="cscc" />
    <path
       style="fill:none;stroke:#000000;stroke-width:0.3175;stroke-linecap:butt;stroke-linejoin:miter;stroke-miterlimit:4;stroke-dasharray:none;stroke-opacity:1"
       d="m 5.5979933,11.482192 c 0,0 0.3674421,0.07499 0.4274328,0.09748 0.05999,0.0225 0.074988,0.44243 0.1199807,0.494922 0.044993,0.05249 0.5024209,0.32245 0.5849081,0.344946 0.082487,0.0225 0.4499291,-0.209967 0.5024211,-0.194969 0.05249,0.015 0.494922,0.172473 0.494922,0.172473"
       id="path6381"
       sodipodi:nodetypes="cssssc" />
    <path
       style="fill:none;stroke:#000000;stroke-width:0.3175;stroke-linecap:butt;stroke-linejoin:miter;stroke-miterlimit:4;stroke-dasharray:none;stroke-opacity:1"
       d="m 6.0854167,9.525 c 0,0 1.0348373,0.1762225 1.2822983,0.033745 C 7.615176,9.416268 7.607521,8.3634397 7.731408,7.9052555 7.96762,7.0316432 8.612519,6.0193022 8.612519,6.0193022"
       id="path6383"
       sodipodi:nodetypes="cssc" />
    <path
       style="fill:none;stroke:#000000;stroke-width:0.3175;stroke-linecap:butt;stroke-linejoin:miter;stroke-miterlimit:4;stroke-dasharray:none;stroke-opacity:1"
       d="m 9.978501,10.560526 c 0,0 0.03871,0.608366 -0.08296,0.929141 -0.121669,0.320775 -0.414796,0.989978 -0.542,1.194611 -0.127197,0.204632 -0.145138,0.293793 -0.145138,0.293793"
       id="path8481"
       sodipodi:nodetypes="cssc" />
    <path
       style="fill:none;stroke:#000000;stroke-width:0.3175;stroke-linecap:butt;stroke-linejoin:miter;stroke-miterlimit:4;stroke-dasharray:none;stroke-opacity:1"
       d="m 8.667964,10.992168 c 0,0 0.277661,-0.37934 0.469287,-0.660913 0.191625,-0.281572 0.312858,-0.4575549 0.312858,-0.4575549"
       id="path9029"
       sodipodi:nodetypes="csc" />
    <path
       style="fill:none;stroke:#000000;stroke-width:0.3175;stroke-linecap:butt;stroke-linejoin:miter;stroke-miterlimit:4;stroke-dasharray:none;stroke-opacity:1"
       d="m 9.156805,10.296059 c 0,0 -0.113409,-0.3402336 -0.08604,-0.6452702 0.02737,-0.3050369 0.03911,-0.4419121 0.08213,-0.5279482 0.04302,-0.086036 0.08995,-0.1016791 0.08995,-0.1016791"
       id="path9031"
       sodipodi:nodetypes="cssc" />
    <path
       style="fill:none;stroke:#000000;stroke-width:0.3175;stroke-linecap:butt;stroke-linejoin:miter;stroke-miterlimit:4;stroke-dasharray:none;stroke-opacity:1"
       d="m 9.195912,7.5781035 c 0,0 0.129053,-0.06257 0.43018,-0.070394 0.301125,-0.00782 1.016788,-0.043018 1.1302,-0.129054 0.113408,-0.086036 0.0743,-0.3441437 0.289394,-0.4380014 0.21509,-0.093858 0.993405,0.018563 1.490166,0.018563 0.496761,0 1.275076,-0.1124209 1.490166,-0.018563 0.215091,0.093858 0.175982,0.3519653 0.289394,0.4380014 0.113408,0.086036 0.829074,0.1212325 1.1302,0.129054 0.301127,0.00782 0.430181,0.070394 0.430181,0.070394"
       id="path9085"
       sodipodi:nodetypes="cssszsssc" />
    <path
       style="fill:none;stroke:#000000;stroke-width:0.3175;stroke-linecap:butt;stroke-linejoin:miter;stroke-miterlimit:4;stroke-dasharray:none;stroke-opacity:1"
       d="m 9.624541,13.309236 c 0,0 0.07743,0.03595 0.118911,0.190805 0.04148,0.154858 0.0083,0.782581 0.05254,0.998274 0.04425,0.215695 0.165919,0.486694 0.257174,0.624958 l 0.09126,0.138266 c 0,0 0.255995,0.380484 0.459354,0.517359 0.203358,0.136876 1.275127,0.389187 1.932088,0.389186 0.656962,0 1.728711,-0.25231 1.932069,-0.389186 0.203357,-0.136875 0.459353,-0.517359 0.459353,-0.517359 l 0.09126,-0.138266 c 0.09126,-0.138264 0.212923,-0.409263 0.257173,-0.624958 0.0442,-0.215693 0.01103,-0.843416 0.05254,-0.998274 0.04148,-0.154856 0.118911,-0.190805 0.118911,-0.190805"
       id="path11773"
       sodipodi:nodetypes="cssscszscscsc" />
    <path
       id="path2653-0"
       d="m 12.535852,11.710228 c 0.678715,0 1.408224,-0.237296 1.711181,-0.415506 0.637399,-0.374941 1.184813,-1.064833 1.394781,-1.4697688 0.11782,-0.2272211 0.322448,-1.4247761 0.25496,-2.0321805 -0.06749,-0.6074044 -0.164975,-2.1371635 -0.164975,-2.1371635"
       style="fill:none;stroke:#000000;stroke-width:0.3175;stroke-linecap:butt;stroke-linejoin:miter;stroke-miterlimit:4;stroke-dasharray:none;stroke-opacity:1" />
    <path
       id="path2657-3"
       d="m 17.202022,18.163329 c 0,0 -0.636295,-0.217398 -0.933234,0.111356 -0.296938,0.328753 -1.049888,1.028679 -1.145332,2.004332 -0.09544,0.975654 -0.185586,3.510233 -0.09014,3.945035"
       style="fill:none;stroke:#000000;stroke-width:0.3175;stroke-linecap:butt;stroke-linejoin:miter;stroke-miterlimit:4;stroke-dasharray:none;stroke-opacity:1" />
    <path
       id="path2661-1"
       d="m 16.132986,15.992732 c 0,0 -1.383532,1.121074 -1.803466,1.72098 -0.419933,0.599904 -0.869864,1.319792 -1.004842,1.769721 -0.06749,0.224965 -0.23668,0.964535 -0.37869,1.07608 -0.142011,0.111549 -0.678263,0.111549 -0.820272,0 -0.142009,-0.111549 -0.3112,-0.851115 -0.37869,-1.07608 -0.134978,-0.449929 -0.584908,-1.169817 -1.004842,-1.769721 -0.419934,-0.599906 -1.803466,-1.72098 -1.803466,-1.72098"
       style="fill:none;stroke:#000000;stroke-width:0.3175;stroke-linecap:butt;stroke-linejoin:miter;stroke-miterlimit:4;stroke-dasharray:none;stroke-opacity:1"
       sodipodi:nodetypes="csszzssc" />
    <path
       id="path2665-5"
       d="m 21.737277,15.949805 c 0,0 -0.197641,-0.251402 -0.370114,-0.279522 -0.172473,-0.02811 -0.536166,-0.0037 -0.718012,0.112485 -0.181847,0.11623 -0.288705,0.228714 -0.305578,0.266208 -0.01688,0.03749 -0.06745,0.05434 -0.185424,0.05832 -0.117975,0.004 -0.429501,0.0067 -0.440106,0.0067"
       style="fill:none;stroke:#000000;stroke-width:0.3175;stroke-linecap:butt;stroke-linejoin:miter;stroke-miterlimit:4;stroke-dasharray:none;stroke-opacity:1" />
    <path
       id="path2667-0"
       d="m 22.456767,19.21852 c 0,0 -0.233308,-0.02917 -0.265124,-0.113999 -0.03182,-0.08483 -0.0027,-0.405637 -0.05832,-0.572666 -0.05568,-0.167026 -0.182935,-0.228004 -0.222703,-0.262471"
       style="fill:none;stroke:#000000;stroke-width:0.3175;stroke-linecap:butt;stroke-linejoin:miter;stroke-miterlimit:4;stroke-dasharray:none;stroke-opacity:1" />
    <path
       id="path2669-5"
       d="m 19.473711,11.482192 c 0,0 -0.367442,0.07499 -0.427434,0.09748 -0.05999,0.0225 -0.07498,0.44243 -0.119975,0.494922 -0.04499,0.05249 -0.502421,0.32245 -0.584907,0.344946 -0.08249,0.0225 -0.44993,-0.209967 -0.502421,-0.194969 -0.0525,0.015 -0.494923,0.172473 -0.494923,0.172473"
       style="fill:none;stroke:#000000;stroke-width:0.3175;stroke-linecap:butt;stroke-linejoin:miter;stroke-miterlimit:4;stroke-dasharray:none;stroke-opacity:1" />
    <path
       id="path2671-0"
       d="m 18.986287,9.5250001 c 0,0 -1.034837,0.1762225 -1.282298,0.033746 C 17.456528,9.4162686 17.464183,8.3634403 17.340296,7.9052561 17.104084,7.0316438 16.459185,6.0193028 16.459185,6.0193028"
       style="fill:none;stroke:#000000;stroke-width:0.3175;stroke-linecap:butt;stroke-linejoin:miter;stroke-miterlimit:4;stroke-dasharray:none;stroke-opacity:1" />
    <path
       id="path2687-7"
       d="m 15.093203,10.560526 c 0,0 -0.03871,0.608366 0.08296,0.929141 0.121669,0.320775 0.414796,0.989978 0.541999,1.194611 0.12721,0.204632 0.145138,0.293793 0.145138,0.293793"
       style="fill:none;stroke:#000000;stroke-width:0.3175;stroke-linecap:butt;stroke-linejoin:miter;stroke-miterlimit:4;stroke-dasharray:none;stroke-opacity:1" />
    <path
       id="path2689-8"
       d="m 16.403741,10.992168 c 0,0 -0.277662,-0.37934 -0.469288,-0.660913 -0.191626,-0.281572 -0.312858,-0.4575547 -0.312858,-0.4575547"
       style="fill:none;stroke:#000000;stroke-width:0.3175;stroke-linecap:butt;stroke-linejoin:miter;stroke-miterlimit:4;stroke-dasharray:none;stroke-opacity:1" />
    <path
       id="path2691-3"
       d="m 15.9149,10.296059 c 0,0 0.113408,-0.3402334 0.08604,-0.6452701 C 15.97357,9.345752 15.96183,9.2088768 15.91881,9.1228407 15.87579,9.0368047 15.82886,9.0211616 15.82886,9.0211616"
       style="fill:none;stroke:#000000;stroke-width:0.3175;stroke-linecap:butt;stroke-linejoin:miter;stroke-miterlimit:4;stroke-dasharray:none;stroke-opacity:1" />
    <path
       id="path2699-5"
       d="m 14.467931,17.55828 c 0,0 -0.09386,0.152518 -0.402806,0.43018 -0.308947,0.277661 -0.531858,0.351966 -0.766502,0.449731 -0.234644,0.09777 -0.507749,0.05919 -0.762771,0.05919 -0.255022,0 -0.528127,0.03858 -0.762771,-0.05919 -0.234643,-0.09776 -0.457555,-0.17207 -0.766502,-0.449731 -0.308948,-0.277662 -0.402805,-0.43018 -0.402805,-0.43018"
       style="fill:none;stroke:#000000;stroke-width:0.3175;stroke-linecap:butt;stroke-linejoin:miter;stroke-miterlimit:4;stroke-dasharray:none;stroke-opacity:1"
       sodipodi:nodetypes="csczcsc" />
    <path
       id="path2709-7"
       d="m 14.646233,3.5364757 c -0.137864,0.6866699 -1.368401,0.7078792 -2.110381,0.7078792 -0.74198,0 -1.972517,-0.021209 -2.110381,-0.7078794"
       style="fill:none;stroke:#000000;stroke-width:0.3175;stroke-linecap:butt;stroke-linejoin:miter;stroke-miterlimit:4;stroke-dasharray:none;stroke-opacity:1"
       sodipodi:nodetypes="czc" />
  </g>
</svg>
