<?xml version="1.0" encoding="UTF-8" standalone="no"?>
<!-- Created with Inkscape (http://www.inkscape.org/) -->

<svg
   version="1.1"
   id="svg2"
   width="100"
   height="100"
   viewBox="0 0 100 100"
   sodipodi:docname="cross_medkit.svg"
   inkscape:version="1.1.1 (3bf5ae0d25, 2021-09-20)"
   inkscape:export-filename="/media/stela/My Passport/unvanquished assets/ui/neutral/without_shadows/cross_medkit.png"
   inkscape:export-xdpi="96"
   inkscape:export-ydpi="96"
   xmlns:inkscape="http://www.inkscape.org/namespaces/inkscape"
   xmlns:sodipodi="http://sodipodi.sourceforge.net/DTD/sodipodi-0.dtd"
   xmlns="http://www.w3.org/2000/svg"
   xmlns:svg="http://www.w3.org/2000/svg">
  <defs
     id="defs6">
    <inkscape:path-effect
       effect="mirror_symmetry"
       start_point="124,36"
       end_point="117,48"
       center_point="120.5,42"
       id="path-effect6840"
       is_visible="true"
       lpeversion="1.1"
       mode="free"
       discard_orig_path="false"
       fuse_paths="false"
       oposite_fuse="false"
       split_items="true"
       split_open="false" />
    <inkscape:path-effect
       effect="mirror_symmetry"
       start_point="130,26"
       end_point="101,75"
       center_point="115.5,50.5"
       id="path-effect1345"
       is_visible="true"
       lpeversion="1.1"
       mode="free"
       discard_orig_path="false"
       fuse_paths="false"
       oposite_fuse="false"
       split_items="true"
       split_open="false" />
    <inkscape:path-effect
       effect="mirror_symmetry"
       start_point="130,26"
       end_point="101,75"
       center_point="115.5,50.5"
       id="path-effect7020"
       is_visible="true"
       lpeversion="1.1"
       mode="free"
       discard_orig_path="false"
       fuse_paths="false"
       oposite_fuse="false"
       split_items="true"
       split_open="false" />
    <filter
       style="color-interpolation-filters:sRGB;"
       inkscape:label="Drop Shadow"
       id="filter7822"
       x="-0.095419847"
       y="-0.095419847"
       width="1.2061069"
       height="1.1908397">
      <feFlood
         flood-opacity="0.498039"
         flood-color="rgb(0,0,0)"
         result="flood"
         id="feFlood7812" />
      <feComposite
         in="flood"
         in2="SourceGraphic"
         operator="in"
         result="composite1"
         id="feComposite7814" />
      <feGaussianBlur
         in="composite1"
         stdDeviation="2.5"
         result="blur"
         id="feGaussianBlur7816" />
      <feOffset
         dx="1"
         dy="0"
         result="offset"
         id="feOffset7818" />
      <feComposite
         in="SourceGraphic"
         in2="offset"
         operator="over"
         result="composite2"
         id="feComposite7820" />
    </filter>
    <filter
       style="color-interpolation-filters:sRGB;"
       inkscape:label="Drop Shadow"
       id="filter937"
       x="-0.096153846"
       y="-0.096153846"
       width="1.1923077"
       height="1.1923077">
      <feFlood
         flood-opacity="0.498039"
         flood-color="rgb(0,0,0)"
         result="flood"
         id="feFlood927" />
      <feComposite
         in="flood"
         in2="SourceGraphic"
         operator="in"
         result="composite1"
         id="feComposite929" />
      <feGaussianBlur
         in="composite1"
         stdDeviation="2.5"
         result="blur"
         id="feGaussianBlur931" />
      <feOffset
         dx="0"
         dy="0"
         result="offset"
         id="feOffset933" />
      <feComposite
         in="SourceGraphic"
         in2="offset"
         operator="over"
         result="composite2"
         id="feComposite935" />
    </filter>
    <filter
       style="color-interpolation-filters:sRGB;"
       inkscape:label="Drop Shadow"
       id="filter10299"
       x="-0.14312676"
       y="-0.099113514"
       width="1.2863306"
       height="1.1981476">
      <feFlood
         flood-opacity="0.498039"
         flood-color="rgb(0,0,0)"
         result="flood"
         id="feFlood10289" />
      <feComposite
         in="flood"
         in2="SourceGraphic"
         operator="in"
         result="composite1"
         id="feComposite10291" />
      <feGaussianBlur
         in="composite1"
         stdDeviation="2.5"
         result="blur"
         id="feGaussianBlur10293" />
      <feOffset
         dx="0"
         dy="0"
         result="offset"
         id="feOffset10295" />
      <feComposite
         in="SourceGraphic"
         in2="offset"
         operator="over"
         result="composite2"
         id="feComposite10297" />
    </filter>
  </defs>
  <sodipodi:namedview
     id="namedview4"
     pagecolor="#ffffff"
     bordercolor="#666666"
     borderopacity="1.0"
     inkscape:pageshadow="2"
     inkscape:pageopacity="0.0"
     inkscape:pagecheckerboard="0"
     showgrid="true"
     inkscape:zoom="2.8284272"
     inkscape:cx="86.090248"
     inkscape:cy="5.8336308"
     inkscape:window-width="1920"
     inkscape:window-height="1022"
     inkscape:window-x="0"
     inkscape:window-y="33"
     inkscape:window-maximized="1"
     inkscape:current-layer="g8">
    <inkscape:grid
       type="xygrid"
       id="grid849" />
  </sodipodi:namedview>
  <g
     inkscape:groupmode="layer"
     inkscape:label="Image"
     id="g8">
    <path
       id="rect1525"
       style="fill:#ffffff;fill-opacity:1;stroke:#000000;stroke-width:1;stroke-opacity:1;stroke-miterlimit:4;stroke-dasharray:none"
       d="M 25,10 V 30 H 5 V 55 H 25 V 75 H 50 V 55 H 70 V 30 H 50 V 10 Z"
       sodipodi:nodetypes="ccccccccccccc"
       inkscape:export-filename="/media/stela/My Passport/unvanquished assets/ui/neutral/without_shadows/cross_medkit.png"
       inkscape:export-xdpi="96"
       inkscape:export-ydpi="96" />
    <g
       id="g10127"
       transform="translate(-85.249041,-1.0270013)"
       inkscape:export-filename="/media/stela/My Passport/unvanquished assets/ui/neutral/without_shadows/cross_medkit.png"
       inkscape:export-xdpi="96"
       inkscape:export-ydpi="96"
       style="stroke-width:1;stroke-miterlimit:4;stroke-dasharray:none">
      <path
         id="mirror-path-effect1345-6"
         style="fill:#fdffff;fill-opacity:1;stroke:#000000;stroke-width:1;stroke-linecap:butt;stroke-linejoin:miter;stroke-miterlimit:4;stroke-dasharray:none;stroke-opacity:1"
         d="M 114.42969,18.75 C 113.1965,18.717907 111.86817,19.054634 111,20 c -0.95657,1.041622 -2,2.999999 -2,5 0,2.000001 1,3.999995 2,4 1,-3e-6 -0.88644,-4.059589 0,-6 0.88644,-1.940408 3,-3.000006 6,-2 3,0.999997 4,4.999999 4,7 0,2.000001 -18,27.999994 -17,30 1,1.999997 4,3 4,4 0,1.000001 -8,12 -7,13 1,1 7.63315,-11.03444 8.50977,-11.515625 0.87662,-0.481184 2.71479,0.790827 4.94921,0.705078 2.23443,-0.08575 16.3659,-28.375522 18.11914,-29.337891 1.75325,-0.962369 5.74038,-2.010002 8.06055,0.138672 2.32018,2.148674 2.40727,4.511892 1.13281,6.222657 -1.27446,1.710767 -5.74094,2.010099 -5.25976,2.886718 0.48119,0.876619 2.71746,0.790494 4.4707,-0.171875 1.75324,-0.962369 2.9671,-2.818443 3.41992,-4.158203 0.59778,-1.768661 -0.40221,-3.769611 -1.52929,-4.865234 -1.43409,-1.394059 -3.02886,-2.335035 -5.37696,-4.064453 C 134.99905,29.000732 132.2396,27.325475 130,26 127.7604,24.674525 124.96413,23.059861 122.15039,21.755859 119.50448,20.529639 117.91212,19.586352 116,19 c -0.46962,-0.144007 -1.00977,-0.235412 -1.57031,-0.25 z M 120,34 c 1,0 2.71235,1.248874 4,2 1.28765,0.751126 3.21675,1.627581 3.70898,2.498047 0.49223,0.870466 -5.25843,11.015584 -6.1289,11.507812 C 120.70962,50.498087 118.43963,48.839785 117,48 c -1.43963,-0.839785 -4,-2 -4,-3 0,-1 6,-11 7,-11 z" />
      <path
         id="path9878"
         style="opacity:0.99;fill:#fdffff;fill-opacity:1;stroke:#000000;stroke-width:1;stroke-miterlimit:4;stroke-dasharray:none"
         d="m 134,12 a 6,6 0 0 0 -6,6 6,6 0 0 0 6,6 6,6 0 0 0 6,-6 6,6 0 0 0 -6,-6 z m 0,2 a 4,4 0 0 1 4,4 4,4 0 0 1 -4,4 4,4 0 0 1 -4,-4 4,4 0 0 1 4,-4 z" />
    </g>
  </g>
</svg>
